GeoramaSemiCondensed-ExtraBoldItalic.ufo
<glyph name="exclam" format="2">
  <advance width="219.556"/>
  <unicode hex="0021"/>
  <outline>
    <contour>
      <point x="35.008" y="259.7" type="line"/>
      <point x="174.784" y="259.7" type="line"/>
      <point x="267.156" y="740.0" type="line"/>
      <point x="102.44" y="740.0" type="line"/>
    </contour>
    <contour>
      <point x="-10.564" y="61.083999999999996" type="curve" smooth="yes"/>
      <point x="-10.704" y="14.7"/>
      <point x="11.880000000000003" y="-8.6"/>
      <point x="64.30399999999999" y="-8.6" type="curve" smooth="yes"/>
      <point x="142.452" y="-8.6"/>
      <point x="171.548" y="63.09199999999999"/>
      <point x="171.968" y="127.54399999999998" type="curve" smooth="yes"/>
      <point x="172.108" y="174.04"/>
      <point x="149.29999999999998" y="197.22799999999998"/>
      <point x="97.16000000000001" y="197.22799999999998" type="curve" smooth="yes"/>
      <point x="19.752000000000002" y="197.22799999999998"/>
      <point x="-10.143999999999998" y="126.052"/>
    </contour>
  </outline>
</glyph>
<glyph name="numbersign" format="2">
  <advance width="526.512"/>
  <unicode hex="0023"/>
  <outline>
    <contour>
      <point x="91.736" y="407.176" type="line"/>
      <point x="139.264" y="407.176" type="line"/>
      <point x="107.104" y="285.892" type="line"/>
      <point x="58.291999999999994" y="285.892" type="line"/>
      <point x="35.943999999999996" y="146.144" type="line"/>
      <point x="74.356" y="146.144" type="line"/>
      <point x="38.804" y="0.0" type="line"/>
      <point x="167.792" y="0.0" type="line"/>
      <point x="203.204" y="146.144" type="line"/>
      <point x="249.67600000000002" y="146.144" type="line"/>
      <point x="214.26399999999998" y="0.0" type="line"/>
      <point x="342.452" y="0.0" type="line"/>
      <point x="377.86400000000003" y="146.144" type="line"/>
      <point x="436.224" y="146.144" type="line"/>
      <point x="458.288" y="285.892" type="line"/>
      <point x="410.984" y="285.892" type="line"/>
      <point x="442.77200000000005" y="407.176" type="line"/>
      <point x="491.732" y="407.176" type="line"/>
      <point x="514.684" y="547.9559999999999" type="line"/>
      <point x="475.54799999999994" y="547.9559999999999" type="line"/>
      <point x="512.904" y="700.0" type="line"/>
      <point x="384.028" y="700.0" type="line"/>
      <point x="346.672" y="547.9559999999999" type="line"/>
      <point x="300.20000000000005" y="547.9559999999999" type="line"/>
      <point x="337.556" y="700.0" type="line"/>
      <point x="209.368" y="700.0" type="line"/>
      <point x="172.012" y="547.9559999999999" type="line"/>
      <point x="114.516" y="547.9559999999999" type="line"/>
    </contour>
    <contour>
      <point x="267.452" y="407.176" type="line"/>
      <point x="313.924" y="407.176" type="line"/>
      <point x="282.452" y="285.892" type="line"/>
      <point x="235.98" y="285.892" type="line"/>
    </contour>
  </outline>
</glyph>
<glyph name="dollar" format="2">
  <advance width="526.512"/>
  <unicode hex="0024"/>
  <outline>
    <contour>
      <point x="513.4159999999999" y="674.896" type="line"/>
      <point x="486.7" y="687.192"/>
      <point x="445.01599999999996" y="700.8879999999999"/>
      <point x="395.52" y="706.356" type="curve"/>
      <point x="410.71999999999997" y="803.624" type="line"/>
      <point x="276.48" y="803.624" type="line"/>
      <point x="259.132" y="697.676" type="line"/>
      <point x="151.17200000000003" y="672.612"/>
      <point x="80.384" y="595.512"/>
      <point x="80.384" y="489.112" type="curve" smooth="yes"/>
      <point x="80.384" y="294.89599999999996"/>
      <point x="302.2" y="276.14400000000006"/>
      <point x="302.2" y="199.91599999999997" type="curve" smooth="yes"/>
      <point x="302.2" y="160.80800000000002"/>
      <point x="272.312" y="139.28400000000002"/>
      <point x="221.372" y="139.28400000000002" type="curve" smooth="yes"/>
      <point x="166.98800000000003" y="139.28400000000002"/>
      <point x="110.668" y="152.516"/>
      <point x="56.248" y="175.12000000000003" type="curve"/>
      <point x="4.632000000000002" y="32.739999999999995" type="line"/>
      <point x="43.708" y="13.191999999999998"/>
      <point x="94.536" y="-0.6839999999999999"/>
      <point x="144.49200000000002" y="-5.7" type="curve"/>
      <point x="129.49200000000002" y="-105.0" type="line"/>
      <point x="263.56" y="-105.0" type="line"/>
      <point x="278.56" y="-2.664" type="line"/>
      <point x="394.76" y="21.884"/>
      <point x="469.05600000000004" y="104.016"/>
      <point x="469.05600000000004" y="211.25599999999997" type="curve" smooth="yes"/>
      <point x="469.05600000000004" y="404.356"/>
      <point x="252.57599999999996" y="416.092"/>
      <point x="252.57599999999996" y="495.296" type="curve" smooth="yes"/>
      <point x="252.57599999999996" y="531.7040000000001"/>
      <point x="283.75199999999995" y="554.0279999999999"/>
      <point x="333.5" y="554.0279999999999" type="curve" smooth="yes"/>
      <point x="370.2" y="554.0279999999999"/>
      <point x="415.516" y="548.2959999999998"/>
      <point x="461.472" y="529.0640000000001" type="curve"/>
    </contour>
  </outline>
</glyph>
<glyph name="ampersand" format="2">
  <advance width="600.8800000000001"/>
  <unicode hex="0026"/>
  <outline>
    <contour>
      <point x="252.46399999999994" y="-10.0" type="curve" smooth="yes"/>
      <point x="435.5280000000001" y="-10.0"/>
      <point x="551.2160000000001" y="141.35999999999999"/>
      <point x="518.5999999999999" y="299.456" type="curve"/>
      <point x="391.47999999999996" y="288.5760000000001" type="line"/>
      <point x="435.184" y="206.744"/>
      <point x="358.048" y="132.152"/>
      <point x="276.8" y="132.152" type="curve" smooth="yes"/>
      <point x="204.68" y="132.152"/>
      <point x="168.064" y="169.896"/>
      <point x="168.064" y="226.024" type="curve" smooth="yes"/>
      <point x="168.064" y="294.824"/>
      <point x="212.83200000000002" y="354.832"/>
      <point x="280.62399999999997" y="354.832" type="curve" smooth="yes"/>
      <point x="308.056" y="354.832" type="line"/>
      <point x="333.848" y="459.65599999999995" type="line"/>
      <point x="315.272" y="462.952" type="line" smooth="yes"/>
      <point x="272.03999999999996" y="468.904"/>
      <point x="253.84800000000004" y="489.224"/>
      <point x="253.84800000000004" y="518.6320000000001" type="curve" smooth="yes"/>
      <point x="253.84800000000004" y="551.96"/>
      <point x="281.744" y="573.576"/>
      <point x="314.88" y="573.576" type="curve" smooth="yes"/>
      <point x="341.06399999999996" y="573.576"/>
      <point x="363.96799999999996" y="567.976"/>
      <point x="390.96" y="549.5760000000001" type="curve"/>
      <point x="467.264" y="665.848" type="line"/>
      <point x="415.29599999999994" y="695.144"/>
      <point x="364.84" y="710.0"/>
      <point x="297.96000000000004" y="710.0" type="curve" smooth="yes"/>
      <point x="174.312" y="710.0"/>
      <point x="97.392" y="629.928"/>
      <point x="97.392" y="541.312" type="curve" smooth="yes"/>
      <point x="97.392" y="489.928"/>
      <point x="122.62400000000001" y="451.408"/>
      <point x="173.61600000000004" y="419.78400000000005" type="curve"/>
      <point x="77.53600000000002" y="394.59999999999997"/>
      <point x="7.823999999999998" y="319.664"/>
      <point x="7.823999999999998" y="195.984" type="curve" smooth="yes"/>
      <point x="7.823999999999998" y="78.11200000000001"/>
      <point x="88.76799999999999" y="-10.0"/>
    </contour>
    <contour>
      <point x="356.42400000000004" y="213.096" type="line"/>
      <point x="359.304" y="244.768"/>
      <point x="371.28000000000003" y="264.752"/>
      <point x="397.8" y="264.752" type="curve" smooth="yes"/>
      <point x="434.75199999999995" y="264.752"/>
      <point x="473.904" y="259.81600000000003"/>
      <point x="504.69599999999997" y="259.81600000000003" type="curve" smooth="yes"/>
      <point x="578.424" y="259.81600000000003"/>
      <point x="626.736" y="336.432"/>
      <point x="611.92" y="418.288" type="curve"/>
      <point x="514.4799999999999" y="419.29600000000005" type="line"/>
      <point x="512.1759999999999" y="366.976"/>
      <point x="490.13599999999997" y="358.272"/>
      <point x="445.53599999999994" y="358.272" type="curve" smooth="yes"/>
      <point x="422.76000000000005" y="358.272"/>
      <point x="401.536" y="363.83200000000005"/>
      <point x="378.312" y="363.83200000000005" type="curve" smooth="yes"/>
      <point x="294.568" y="363.83200000000005"/>
      <point x="262.656" y="298.272"/>
      <point x="259.32800000000003" y="231.904" type="curve"/>
    </contour>
  </outline>
</glyph>
<glyph name="quotesingle" format="2">
  <advance width="196.036"/>
  <unicode hex="0027"/>
  <outline>
    <contour>
      <point x="52.824" y="427.0" type="line"/>
      <point x="187.428" y="427.0" type="line"/>
      <point x="239.58800000000002" y="700.0" type="line"/>
      <point x="90.44800000000001" y="700.0" type="line"/>
    </contour>
  </outline>
</glyph>
<glyph name="parenleft" format="2">
  <advance width="281.456"/>
  <unicode hex="0028"/>
  <outline>
    <contour>
      <point x="18.936" y="56.760000000000005" type="curve" smooth="yes"/>
      <point x="18.936" y="-97.912"/>
      <point x="67.816" y="-201.452"/>
      <point x="184.34799999999998" y="-220.0" type="curve"/>
      <point x="208.936" y="-81.47999999999999" type="line"/>
      <point x="168.852" y="-60.668"/>
      <point x="148.93599999999998" y="-20.035999999999998"/>
      <point x="148.93599999999998" y="61.644000000000005" type="curve" smooth="yes"/>
      <point x="148.93599999999998" y="187.68800000000002"/>
      <point x="208.8" y="594.412"/>
      <point x="319.248" y="609.6560000000001" type="curve"/>
      <point x="340.21999999999997" y="749.888" type="line"/>
      <point x="101.028" y="739.648"/>
      <point x="18.936" y="302.86800000000005"/>
    </contour>
  </outline>
</glyph>
<glyph name="parenright" format="2">
  <advance width="281.456"/>
  <unicode hex="0029"/>
  <outline>
    <contour>
      <point x="259.46" y="473.18399999999997" type="curve" smooth="yes"/>
      <point x="259.46" y="628.884"/>
      <point x="210.63599999999997" y="731.452"/>
      <point x="94.07600000000001" y="750.0" type="curve"/>
      <point x="69.71199999999999" y="610.228" type="line"/>
      <point x="110.3" y="588.688"/>
      <point x="129.46" y="548.644"/>
      <point x="129.46" y="468.896" type="curve" smooth="yes"/>
      <point x="129.46" y="342.208"/>
      <point x="69.68" y="-64.524"/>
      <point x="-41.019999999999996" y="-79.824" type="curve"/>
      <point x="-61.879999999999995" y="-220.0" type="line"/>
      <point x="176.05200000000002" y="-207.908"/>
      <point x="259.46" y="227.64800000000002"/>
    </contour>
  </outline>
</glyph>
<glyph name="asterisk" format="2">
  <advance width="337.03200000000004"/>
  <unicode hex="002A"/>
  <outline>
    <contour>
      <point x="125.048" y="396.14000000000004" type="line"/>
      <point x="198.964" y="471.13199999999995" type="line"/>
      <point x="247.824" y="396.252" type="line"/>
      <point x="314.024" y="440.596" type="line"/>
      <point x="282.624" y="528.928" type="line"/>
      <point x="372.936" y="571.8879999999999" type="line"/>
      <point x="362.25600000000003" y="645.652" type="line"/>
      <point x="270.3" y="625.212" type="line"/>
      <point x="276.94" y="725.5680000000001" type="line"/>
      <point x="203.264" y="725.5680000000001" type="line"/>
      <point x="176.672" y="625.3240000000001" type="line"/>
      <point x="93.072" y="645.764" type="line"/>
      <point x="58.123999999999995" y="572.112" type="line"/>
      <point x="131.488" y="529.152" type="line"/>
      <point x="73.03200000000001" y="440.652" type="line"/>
    </contour>
  </outline>
</glyph>
<glyph name="plus" format="2">
  <advance width="446.296"/>
  <unicode hex="002B"/>
  <outline>
    <contour>
      <point x="130.576" y="137.188" type="line"/>
      <point x="272.012" y="137.188" type="line"/>
      <point x="289.676" y="248.928" type="line"/>
      <point x="396.4440000000001" y="248.928" type="line"/>
      <point x="419.91200000000003" y="396.90000000000003" type="line"/>
      <point x="313.144" y="396.90000000000003" type="line"/>
      <point x="331.00800000000004" y="508.58000000000004" type="line"/>
      <point x="189.916" y="508.58000000000004" type="line"/>
      <point x="171.708" y="396.90000000000003" type="line"/>
      <point x="65.344" y="396.90000000000003" type="line"/>
      <point x="41.876" y="248.928" type="line"/>
      <point x="148.58399999999997" y="248.928" type="line"/>
    </contour>
  </outline>
</glyph>
<glyph name="comma" format="2">
  <advance width="210.632"/>
  <unicode hex="002C"/>
  <outline>
    <contour>
      <point x="1.6280000000000012" y="100.05199999999999" type="line"/>
      <point x="0.992" y="69.3"/>
      <point x="-2.391999999999999" y="41.676"/>
      <point x="-5.143999999999999" y="26.032" type="curve" smooth="yes"/>
      <point x="-13.744" y="-30.396"/>
      <point x="-47.592" y="-107.792"/>
      <point x="-81.048" y="-153.63199999999998" type="curve"/>
      <point x="35.72" y="-184.512" type="line"/>
      <point x="103.24000000000001" y="-108.736"/>
      <point x="151.34" y="-23.872"/>
      <point x="151.34" y="68.532" type="curve" smooth="yes"/>
      <point x="151.34" y="80.388"/>
      <point x="150.396" y="91.41600000000001"/>
      <point x="149.516" y="101.94800000000001" type="curve"/>
    </contour>
  </outline>
</glyph>
<glyph name="hyphen" format="2">
  <advance width="317.728"/>
  <unicode hex="002D"/>
  <outline>
    <contour>
      <point x="28.9" y="233.276" type="line"/>
      <point x="274.63199999999995" y="233.276" type="line"/>
      <point x="300.964" y="391.424" type="line"/>
      <point x="55.232" y="391.424" type="line"/>
    </contour>
  </outline>
</glyph>
<glyph name="period" format="2">
  <advance width="212.868"/>
  <unicode hex="002E"/>
  <outline>
    <contour>
      <point x="-12.932000000000002" y="63.148" type="curve" smooth="yes"/>
      <point x="-13.072000000000003" y="16.076"/>
      <point x="8.824" y="-6.536"/>
      <point x="61.936" y="-6.536" type="curve" smooth="yes"/>
      <point x="140.084" y="-6.536"/>
      <point x="168.49200000000002" y="65.15599999999999"/>
      <point x="168.91199999999998" y="130.984" type="curve" smooth="yes"/>
      <point x="169.05199999999996" y="176.792"/>
      <point x="146.93200000000002" y="199.292"/>
      <point x="94.792" y="199.292" type="curve" smooth="yes"/>
      <point x="16.695999999999998" y="199.292"/>
      <point x="-12.512" y="128.11599999999999"/>
    </contour>
  </outline>
</glyph>
<glyph name="slash" format="2">
  <advance width="391.02"/>
  <unicode hex="002F"/>
  <outline>
    <contour>
      <point x="-80.64800000000001" y="-210.0" type="line"/>
      <point x="54.252" y="-210.0" type="line"/>
      <point x="468.668" y="740.0" type="line"/>
      <point x="332.22" y="740.0" type="line"/>
    </contour>
  </outline>
</glyph>
<glyph name="zero" format="2">
  <advance width="526.68"/>
  <unicode hex="0030"/>
  <outline>
    <contour>
      <point x="234.4" y="-10.28" type="curve" smooth="yes"/>
      <point x="436.88000000000005" y="-10.28"/>
      <point x="520.8199999999999" y="252.94"/>
      <point x="520.8199999999999" y="478.93999999999994" type="curve" smooth="yes"/>
      <point x="520.8199999999999" y="634.5999999999999"/>
      <point x="458.88000000000005" y="710.14"/>
      <point x="315.55999999999995" y="710.14" type="curve" smooth="yes"/>
      <point x="115.42000000000002" y="710.14"/>
      <point x="28.999999999999996" y="446.5"/>
      <point x="28.999999999999996" y="221.34" type="curve" smooth="yes"/>
      <point x="28.999999999999996" y="65.82"/>
      <point x="91.08" y="-10.28"/>
    </contour>
    <contour>
      <point x="243.68000000000004" y="142.29999999999998" type="curve" smooth="yes"/>
      <point x="210.95999999999998" y="142.29999999999998"/>
      <point x="195.42" y="160.96"/>
      <point x="195.55999999999997" y="209.73999999999998" type="curve" smooth="yes"/>
      <point x="195.70000000000002" y="310.24000000000007"/>
      <point x="238.42" y="557.6999999999999"/>
      <point x="308.08" y="557.6999999999999" type="curve" smooth="yes"/>
      <point x="340.08" y="557.6999999999999"/>
      <point x="355.12" y="538.9599999999998"/>
      <point x="354.98" y="491.26" type="curve" smooth="yes"/>
      <point x="354.8399999999999" y="393.91999999999996"/>
      <point x="310.9" y="142.29999999999998"/>
    </contour>
  </outline>
</glyph>
<glyph name="one" format="2">
  <advance width="526.512"/>
  <unicode hex="0031"/>
  <outline>
    <contour>
      <point x="47.104" y="0.0" type="line"/>
      <point x="423.34800000000007" y="0.0" type="line"/>
      <point x="447.332" y="147.25199999999998" type="line"/>
      <point x="346.75600000000003" y="147.25199999999998" type="line"/>
      <point x="435.892" y="700.28" type="line"/>
      <point x="354.71599999999995" y="700.28" type="line"/>
      <point x="124.312" y="619.184" type="line"/>
      <point x="132.424" y="454.916" type="line"/>
      <point x="238.46000000000004" y="495.108" type="line"/>
      <point x="182.272" y="147.25199999999998" type="line"/>
      <point x="70.4" y="147.25199999999998" type="line"/>
    </contour>
  </outline>
</glyph>
<glyph name="two" format="2">
  <advance width="526.68"/>
  <unicode hex="0032"/>
  <outline>
    <contour>
      <point x="37.92" y="118.11999999999999" type="curve"/>
      <point x="19.999999999999996" y="0.0" type="line"/>
      <point x="420.88" y="0.0" type="line"/>
      <point x="444.02000000000004" y="137.46" type="line"/>
      <point x="250.96" y="137.46" type="line"/>
      <point x="377.04" y="278.82000000000005"/>
      <point x="480.84000000000003" y="394.36"/>
      <point x="480.84000000000003" y="541.6999999999999" type="curve" smooth="yes"/>
      <point x="480.84000000000003" y="647.74"/>
      <point x="413.9" y="710.0"/>
      <point x="315.08" y="710.0" type="curve" smooth="yes"/>
      <point x="238.70000000000002" y="710.0"/>
      <point x="161.68" y="684.04"/>
      <point x="103.98" y="645.6800000000002" type="curve"/>
      <point x="132.58" y="486.24000000000007" type="line"/>
      <point x="171.28000000000003" y="507.62000000000006"/>
      <point x="208.98000000000002" y="523.76"/>
      <point x="246.18" y="523.76" type="curve" smooth="yes"/>
      <point x="283.84000000000003" y="523.76"/>
      <point x="300.40000000000003" y="500.09999999999997"/>
      <point x="300.40000000000003" y="472.52000000000004" type="curve" smooth="yes"/>
      <point x="300.40000000000003" y="377.62"/>
      <point x="161.22000000000003" y="224.89999999999998"/>
    </contour>
  </outline>
</glyph>
<glyph name="three" format="2">
  <advance width="526.6800000000001"/>
  <unicode hex="0033"/>
  <outline>
    <contour>
      <point x="0.96" y="39.629999999999995" type="line"/>
      <point x="51.16" y="7.64"/>
      <point x="108.82" y="-10.0"/>
      <point x="188.09" y="-10.0" type="curve" smooth="yes"/>
      <point x="314.46" y="-10.0"/>
      <point x="459.25" y="63.98000000000001"/>
      <point x="459.25" y="228.75" type="curve" smooth="yes"/>
      <point x="459.25" y="312.77"/>
      <point x="422.45" y="350.61"/>
      <point x="380.4" y="371.0" type="curve"/>
      <point x="449.45" y="410.57"/>
      <point x="497.2300000000001" y="468.02"/>
      <point x="497.2300000000001" y="556.61" type="curve" smooth="yes"/>
      <point x="497.2300000000001" y="655.8000000000001"/>
      <point x="432.89000000000004" y="710.0"/>
      <point x="307.61" y="710.0" type="curve" smooth="yes"/>
      <point x="228.73999999999998" y="710.0"/>
      <point x="153.8" y="689.89"/>
      <point x="104.11999999999999" y="656.81" type="curve"/>
      <point x="125.33" y="528.45" type="line"/>
      <point x="158.19000000000003" y="542.1899999999999"/>
      <point x="199.06" y="551.75"/>
      <point x="243.57000000000002" y="551.75" type="curve" smooth="yes"/>
      <point x="293.51" y="551.75"/>
      <point x="326.5" y="531.5"/>
      <point x="326.5" y="491.60999999999996" type="curve" smooth="yes"/>
      <point x="326.5" y="449.58"/>
      <point x="295.66" y="417.2"/>
      <point x="234.01" y="417.2" type="curve" smooth="yes"/>
      <point x="164.64000000000001" y="417.2" type="line"/>
      <point x="143.87" y="291.56" type="line"/>
      <point x="228.05999999999997" y="291.56" type="line" smooth="yes"/>
      <point x="278.84999999999997" y="291.56"/>
      <point x="299.29" y="267.26"/>
      <point x="299.29" y="231.99" type="curve" smooth="yes"/>
      <point x="299.29" y="176.24"/>
      <point x="261.12" y="143.15"/>
      <point x="192.23999999999998" y="143.15" type="curve" smooth="yes"/>
      <point x="145.78" y="143.15"/>
      <point x="104.57" y="152.26999999999998"/>
      <point x="69.71" y="171.23" type="curve"/>
    </contour>
  </outline>
</glyph>
<glyph name="four" format="2">
  <advance width="526.6800000000001"/>
  <unicode hex="0034"/>
  <outline>
    <contour>
      <point x="2.3000000000000007" y="98.11000000000001" type="line"/>
      <point x="226.67" y="98.11000000000001" type="line"/>
      <point x="211.22" y="-0.13999999999999996" type="line"/>
      <point x="381.65000000000003" y="-0.13999999999999996" type="line"/>
      <point x="397.1" y="98.11000000000001" type="line"/>
      <point x="464.35999999999996" y="98.11000000000001" type="line"/>
      <point x="485.41999999999996" y="233.05999999999997" type="line"/>
      <point x="419.09000000000003" y="233.05999999999997" type="line"/>
      <point x="494.66" y="699.7900000000001" type="line"/>
      <point x="328.51" y="700.56" type="line"/>
      <point x="21.8" y="225.69" type="line"/>
    </contour>
    <contour>
      <point x="140.05" y="233.05999999999997" type="line"/>
      <point x="296.03000000000003" y="483.68000000000006" type="line"/>
      <point x="254.18" y="233.05999999999997" type="line"/>
    </contour>
  </outline>
</glyph>
<glyph name="five" format="2">
  <advance width="526.68"/>
  <unicode hex="0035"/>
  <outline>
    <contour>
      <point x="5.640000000000001" y="33.81" type="line"/>
      <point x="54.199999999999996" y="3.6200000000000006"/>
      <point x="110.39" y="-10.0"/>
      <point x="188.95000000000002" y="-10.0" type="curve" smooth="yes"/>
      <point x="385.7099999999999" y="-10.0"/>
      <point x="468.25" y="127.50999999999999"/>
      <point x="468.25" y="270.93000000000006" type="curve" smooth="yes"/>
      <point x="468.25" y="379.44"/>
      <point x="414.54999999999995" y="424.97999999999996"/>
      <point x="315.79" y="428.28000000000003" type="curve" smooth="yes"/>
      <point x="256.85" y="429.5" type="line"/>
      <point x="282.41999999999996" y="544.7700000000002" type="line"/>
      <point x="488.54" y="544.7700000000002" type="line"/>
      <point x="512.6100000000001" y="700.0" type="line"/>
      <point x="187.24000000000004" y="700.0" type="line"/>
      <point x="84.85999999999999" y="301.24999999999994" type="line"/>
      <point x="90.78" y="289.75" type="line"/>
      <point x="220.9" y="289.75" type="line" smooth="yes"/>
      <point x="278.14" y="289.75"/>
      <point x="297.24" y="271.47"/>
      <point x="297.24" y="231.45000000000002" type="curve" smooth="yes"/>
      <point x="297.24" y="192.04"/>
      <point x="271.4599999999999" y="144.16"/>
      <point x="187.79000000000002" y="144.16" type="curve" smooth="yes"/>
      <point x="135.17000000000002" y="144.16"/>
      <point x="91.14" y="159.56"/>
      <point x="60.34000000000001" y="174.66" type="curve"/>
    </contour>
  </outline>
</glyph>
<glyph name="six" format="2">
  <advance width="526.68"/>
  <unicode hex="0036"/>
  <note>
14
</note>
  <outline>
    <contour>
      <point x="242.24000000000007" y="-10.0" type="curve" smooth="yes"/>
      <point x="394.96" y="-10.0"/>
      <point x="489.5400000000001" y="109.73999999999998"/>
      <point x="489.5400000000001" y="294.52" type="curve" smooth="yes"/>
      <point x="489.5400000000001" y="403.1000000000001"/>
      <point x="431.92" y="454.0"/>
      <point x="344.14" y="454.0" type="curve" smooth="yes"/>
      <point x="291.96" y="454.0"/>
      <point x="245.29999999999998" y="439.03999999999996"/>
      <point x="203.88" y="399.84" type="curve"/>
      <point x="192.55999999999997" y="279.26" type="line"/>
      <point x="215.72" y="305.91999999999996"/>
      <point x="244.35999999999999" y="322.08"/>
      <point x="273.64" y="322.08" type="curve" smooth="yes"/>
      <point x="316.15999999999997" y="322.08"/>
      <point x="331.15999999999997" y="301.31999999999994"/>
      <point x="331.15999999999997" y="259.48" type="curve" smooth="yes"/>
      <point x="331.15999999999997" y="197.22000000000003"/>
      <point x="297.48" y="133.84"/>
      <point x="255.22" y="133.84" type="curve" smooth="yes"/>
      <point x="215.51999999999998" y="133.84"/>
      <point x="196.2" y="157.22"/>
      <point x="196.2" y="202.73999999999998" type="curve" smooth="yes"/>
      <point x="196.2" y="281.02000000000004"/>
      <point x="213.14" y="360.59999999999997"/>
      <point x="248.49999999999997" y="449.38" type="curve" smooth="yes"/>
      <point x="276.66" y="519.3"/>
      <point x="319.76000000000005" y="558.42"/>
      <point x="391.06" y="558.42" type="curve" smooth="yes"/>
      <point x="426.44" y="558.42"/>
      <point x="454.53999999999996" y="548.06"/>
      <point x="481.37999999999994" y="534.72" type="curve"/>
      <point x="542.4" y="671.12" type="line"/>
      <point x="515.9999999999999" y="688.8199999999999"/>
      <point x="454.84" y="710.0"/>
      <point x="383.68" y="710.0" type="curve" smooth="yes"/>
      <point x="155.54" y="710.0"/>
      <point x="37.3" y="487.17999999999995"/>
      <point x="37.3" y="215.07999999999998" type="curve" smooth="yes"/>
      <point x="37.3" y="60.18"/>
      <point x="110.78" y="-10.0"/>
    </contour>
  </outline>
</glyph>
<glyph name="seven" format="2">
  <advance width="526.512"/>
  <unicode hex="0037"/>
  <note>
9
</note>
  <outline>
    <contour>
      <point x="84.89600000000002" y="0.0" type="curve"/>
      <point x="258.464" y="0.0" type="line"/>
      <point x="280.472" y="121.17600000000002"/>
      <point x="314.464" y="205.83999999999997"/>
      <point x="404.19200000000006" y="368.352" type="curve" smooth="yes"/>
      <point x="521.568" y="579.5999999999999" type="line"/>
      <point x="540.592" y="700.0" type="line"/>
      <point x="122.728" y="700.0" type="line"/>
      <point x="97.912" y="544.64" type="line"/>
      <point x="334.62399999999997" y="544.64" type="line"/>
      <point x="230.48" y="374.616" type="line" smooth="yes"/>
      <point x="147.416" y="238.984"/>
      <point x="106.72" y="133.64"/>
    </contour>
  </outline>
</glyph>
<glyph name="eight" format="2">
  <advance width="549.0"/>
  <unicode hex="0038"/>
  <outline>
    <contour>
      <point x="251.46" y="-10.0" type="curve" smooth="yes"/>
      <point x="396.26" y="-10.0"/>
      <point x="501.92" y="49.66"/>
      <point x="501.92" y="210.06" type="curve" smooth="yes"/>
      <point x="501.92" y="426.0"/>
      <point x="231.20000000000002" y="395.2"/>
      <point x="231.20000000000002" y="520.76" type="curve" smooth="yes"/>
      <point x="231.20000000000002" y="555.7"/>
      <point x="272.90000000000003" y="570.7599999999999"/>
      <point x="321.86" y="570.7599999999999" type="curve" smooth="yes"/>
      <point x="374.96000000000004" y="570.7599999999999"/>
      <point x="402.66" y="547.4"/>
      <point x="402.66" y="509.54" type="curve" smooth="yes"/>
      <point x="402.66" y="461.26"/>
      <point x="362.64" y="437.62"/>
      <point x="332.11999999999995" y="416.72" type="curve"/>
      <point x="398.74" y="353.86" type="line"/>
      <point x="469.7" y="395.12"/>
      <point x="538.8199999999999" y="453.64"/>
      <point x="538.8199999999999" y="548.4" type="curve" smooth="yes"/>
      <point x="538.8199999999999" y="635.08"/>
      <point x="480.74" y="710.0"/>
      <point x="329.24" y="710.0" type="curve" smooth="yes"/>
      <point x="177.62" y="710.0"/>
      <point x="88.16" y="634.7"/>
      <point x="88.16" y="511.0" type="curve" smooth="yes"/>
      <point x="88.16" y="292.72"/>
      <point x="355.88000000000005" y="329.84"/>
      <point x="355.88000000000005" y="194.85999999999999" type="curve" smooth="yes"/>
      <point x="355.88000000000005" y="137.60000000000002"/>
      <point x="313.29999999999995" y="123.08"/>
      <point x="258.74" y="123.08" type="curve" smooth="yes"/>
      <point x="198.38" y="123.08"/>
      <point x="163.42" y="151.82"/>
      <point x="163.42" y="190.68" type="curve" smooth="yes"/>
      <point x="163.42" y="252.76"/>
      <point x="210.95999999999998" y="280.28"/>
      <point x="250.45999999999998" y="294.1" type="curve"/>
      <point x="180.12" y="368.93999999999994" type="line"/>
      <point x="88.12" y="347.61999999999995"/>
      <point x="16.3" y="264.52"/>
      <point x="16.3" y="171.5" type="curve" smooth="yes"/>
      <point x="16.3" y="69.6"/>
      <point x="84.32000000000001" y="-10.0"/>
    </contour>
  </outline>
</glyph>
<glyph name="nine" format="2">
  <advance width="526.68"/>
  <unicode hex="0039"/>
  <outline>
    <contour>
      <point x="310.88" y="710.0" type="curve" smooth="yes"/>
      <point x="159.6" y="710.0"/>
      <point x="63.440000000000005" y="590.9799999999999"/>
      <point x="63.440000000000005" y="410.88" type="curve" smooth="yes"/>
      <point x="63.440000000000005" y="295.81999999999994"/>
      <point x="124.24" y="246.14"/>
      <point x="211.88000000000002" y="246.14" type="curve" smooth="yes"/>
      <point x="264.20000000000005" y="246.14"/>
      <point x="307.82" y="260.53999999999996"/>
      <point x="349.1" y="301.56000000000006" type="curve"/>
      <point x="360.42" y="420.88" type="line"/>
      <point x="337.4000000000001" y="394.22"/>
      <point x="308.62000000000006" y="378.06000000000006"/>
      <point x="279.34000000000003" y="378.06000000000006" type="curve" smooth="yes"/>
      <point x="236.96" y="378.06000000000006"/>
      <point x="221.96" y="398.68000000000006"/>
      <point x="221.96" y="440.52000000000004" type="curve" smooth="yes"/>
      <point x="221.96" y="502.91999999999996"/>
      <point x="255.64" y="566.16"/>
      <point x="297.4" y="566.16" type="curve" smooth="yes"/>
      <point x="336.24" y="566.16"/>
      <point x="356.42" y="542.4200000000001"/>
      <point x="356.42" y="498.12" type="curve" smooth="yes"/>
      <point x="356.42" y="427.22"/>
      <point x="341.84000000000003" y="338.40000000000003"/>
      <point x="306.34" y="249.48000000000002" type="curve" smooth="yes"/>
      <point x="278.68000000000006" y="179.20000000000002"/>
      <point x="239.68" y="140.08"/>
      <point x="165.06" y="140.08" type="curve" smooth="yes"/>
      <point x="129.82" y="140.08"/>
      <point x="98.58" y="151.94"/>
      <point x="71.6" y="166.12" type="curve"/>
      <point x="10.58" y="29.580000000000005" type="line"/>
      <point x="37.620000000000005" y="11.180000000000001"/>
      <point x="100.78" y="-10.0"/>
      <point x="174.02" y="-10.0" type="curve" smooth="yes"/>
      <point x="398.52" y="-10.0"/>
      <point x="515.3199999999999" y="212.82"/>
      <point x="515.3199999999999" y="485.06" type="curve" smooth="yes"/>
      <point x="515.3199999999999" y="639.9599999999999"/>
      <point x="442.20000000000005" y="710.0"/>
    </contour>
  </outline>
</glyph>
<glyph name="less" format="2">
  <advance width="442.996"/>
  <unicode hex="003C"/>
  <outline>
    <contour>
      <point x="382.528" y="89.816" type="line"/>
      <point x="403.93199999999996" y="227.20000000000002" type="line"/>
      <point x="180.42000000000002" y="309.81199999999995" type="line"/>
      <point x="430.828" y="393.05199999999996" type="line"/>
      <point x="452.232" y="530.344" type="line"/>
      <point x="48.368" y="385.964" type="line"/>
      <point x="24.616000000000003" y="236.172" type="line"/>
    </contour>
  </outline>
</glyph>
<glyph name="equal" format="2">
  <advance width="417.68399999999997"/>
  <unicode hex="003D"/>
  <outline>
    <contour>
      <point x="370.20000000000005" y="271.648" type="line"/>
      <point x="47.28" y="271.648" type="line"/>
      <point x="25.188000000000002" y="123.56400000000001" type="line"/>
      <point x="348.10800000000006" y="123.56400000000001" type="line"/>
    </contour>
    <contour>
      <point x="403.06" y="497.34000000000003" type="line"/>
      <point x="80.656" y="497.34000000000003" type="line"/>
      <point x="58.048" y="349.25600000000003" type="line"/>
      <point x="380.968" y="349.25600000000003" type="line"/>
    </contour>
  </outline>
</glyph>
<glyph name="greater" format="2">
  <advance width="442.996"/>
  <unicode hex="003E"/>
  <outline>
    <contour>
      <point x="405.56000000000006" y="235.836" type="line"/>
      <point x="428.96799999999996" y="383.048" type="line"/>
      <point x="71.976" y="528.4" type="line"/>
      <point x="50.22800000000001" y="393.08" type="line"/>
      <point x="274.712" y="309.92400000000004" type="line"/>
      <point x="23.788" y="227.34000000000003" type="line"/>
      <point x="2.1000000000000005" y="89.59200000000001" type="line"/>
    </contour>
  </outline>
</glyph>
<glyph name="question" format="2">
  <advance width="405.1"/>
  <unicode hex="003F"/>
  <outline>
    <contour>
      <point x="108.02000000000001" y="259.756" type="line"/>
      <point x="248.344" y="259.756" type="line"/>
      <point x="259.97200000000004" y="327.992" type="line"/>
      <point x="363.21599999999995" y="374.02400000000006"/>
      <point x="438.036" y="463.244"/>
      <point x="438.036" y="580.176" type="curve" smooth="yes"/>
      <point x="438.036" y="693.7"/>
      <point x="369.472" y="750.0"/>
      <point x="265.70000000000005" y="750.0" type="curve" smooth="yes"/>
      <point x="197.308" y="750.0"/>
      <point x="124.24000000000001" y="728.604"/>
      <point x="73.848" y="690.14" type="curve"/>
      <point x="104.12" y="542.3760000000001" type="line"/>
      <point x="140.748" y="566.2239999999999"/>
      <point x="171.928" y="579.836"/>
      <point x="203.204" y="579.836" type="curve" smooth="yes"/>
      <point x="236.012" y="579.836"/>
      <point x="254.82" y="564.352"/>
      <point x="254.82" y="533.9920000000001" type="curve" smooth="yes"/>
      <point x="254.82" y="476.408"/>
      <point x="207.388" y="437.69599999999997"/>
      <point x="128.59199999999998" y="405.95599999999996" type="curve"/>
    </contour>
    <contour>
      <point x="61.61200000000001" y="59.763999999999996" type="curve" smooth="yes"/>
      <point x="61.64" y="13.872"/>
      <point x="83.396" y="-8.6"/>
      <point x="135.104" y="-8.6" type="curve" smooth="yes"/>
      <point x="213.33599999999998" y="-8.6"/>
      <point x="242.99200000000002" y="60.339999999999996"/>
      <point x="242.90800000000002" y="126.77199999999999" type="curve" smooth="yes"/>
      <point x="242.88" y="174.04"/>
      <point x="221.44799999999998" y="197.08799999999997"/>
      <point x="170.164" y="197.08799999999997" type="curve" smooth="yes"/>
      <point x="90.748" y="197.08799999999997"/>
      <point x="61.528000000000006" y="126.19200000000001"/>
    </contour>
  </outline>
</glyph>
<glyph name="at" format="2">
  <advance width="838.06"/>
  <unicode hex="0040"/>
  <outline>
    <contour>
      <point x="366.38" y="-122.64" type="curve" smooth="yes"/>
      <point x="419.58" y="-122.64"/>
      <point x="507.03999999999996" y="-105.30000000000001"/>
      <point x="559.6" y="-80.60000000000001" type="curve"/>
      <point x="544.02" y="-19.44" type="line"/>
      <point x="484.97999999999996" y="-39.72"/>
      <point x="423.76" y="-51.39999999999999"/>
      <point x="368.15999999999997" y="-51.39999999999999" type="curve" smooth="yes"/>
      <point x="218.08" y="-51.39999999999999"/>
      <point x="104.89999999999999" y="25.2"/>
      <point x="104.89999999999999" y="220.39999999999998" type="curve" smooth="yes"/>
      <point x="104.89999999999999" y="411.28000000000003"/>
      <point x="237.32" y="646.72"/>
      <point x="478.78000000000003" y="646.72" type="curve" smooth="yes"/>
      <point x="654.0600000000001" y="646.72"/>
      <point x="743.92" y="554.08"/>
      <point x="743.92" y="380.82" type="curve" smooth="yes"/>
      <point x="743.92" y="301.92"/>
      <point x="721.98" y="149.06"/>
      <point x="632.1999999999999" y="149.06" type="curve" smooth="yes"/>
      <point x="580.26" y="149.06"/>
      <point x="575.14" y="187.23999999999998"/>
      <point x="589.52" y="245.32" type="curve" smooth="yes"/>
      <point x="659.16" y="519.78" type="line"/>
      <point x="605.22" y="545.1800000000001"/>
      <point x="548.84" y="560.86"/>
      <point x="481.4" y="560.86" type="curve" smooth="yes"/>
      <point x="286.66" y="560.86"/>
      <point x="198.4" y="335.52"/>
      <point x="198.4" y="187.70000000000002" type="curve" smooth="yes"/>
      <point x="198.4" y="96.14"/>
      <point x="242.4" y="49.78000000000001"/>
      <point x="315.88" y="49.78000000000001" type="curve" smooth="yes"/>
      <point x="375.15999999999997" y="49.78000000000001"/>
      <point x="426.34000000000003" y="90.28"/>
      <point x="467.4" y="136.88" type="curve"/>
      <point x="485.04" y="71.85999999999999"/>
      <point x="528.9399999999999" y="45.7"/>
      <point x="599.16" y="45.7" type="curve" smooth="yes"/>
      <point x="755.4399999999999" y="45.7"/>
      <point x="819.02" y="230.64000000000004"/>
      <point x="819.02" y="393.06" type="curve" smooth="yes"/>
      <point x="819.02" y="598.86"/>
      <point x="681.14" y="716.88"/>
      <point x="494.17999999999995" y="716.88" type="curve" smooth="yes"/>
      <point x="190.77999999999997" y="716.88"/>
      <point x="28.439999999999998" y="458.88"/>
      <point x="28.439999999999998" y="203.72" type="curve" smooth="yes"/>
      <point x="28.439999999999998" y="-1.6800000000000013"/>
      <point x="153.4" y="-122.64"/>
    </contour>
    <contour>
      <point x="390.90000000000003" y="193.64000000000001" type="curve" smooth="yes"/>
      <point x="364.54" y="193.64000000000001"/>
      <point x="350.18" y="208.26"/>
      <point x="350.18" y="233.34" type="curve" smooth="yes"/>
      <point x="350.18" y="281.7"/>
      <point x="408.52000000000004" y="446.04"/>
      <point x="468.3" y="446.04" type="curve" smooth="yes"/>
      <point x="483.5" y="446.04"/>
      <point x="493.8999999999999" y="443.4"/>
      <point x="507.5999999999999" y="437.62" type="curve"/>
      <point x="454.26000000000005" y="224.64" type="line" smooth="yes"/>
      <point x="440.71999999999997" y="207.78"/>
      <point x="414.28" y="193.64000000000001"/>
    </contour>
  </outline>
</glyph>
<glyph name="A" format="2">
  <advance width="520.9060000000001"/>
  <unicode hex="0041"/>
  <anchor x="216.782" y="0.0" name="bottom"/>
  <anchor x="472.382" y="0.0" name="ogonek"/>
  <anchor x="322.98400000000004" y="700.0" name="top"/>
  <outline>
    <contour>
      <point x="-39.476000000000006" y="0.0" type="line"/>
      <point x="136.82600000000002" y="0.0" type="line"/>
      <point x="173.07999999999998" y="114.146" type="line"/>
      <point x="295.14199999999994" y="114.146" type="line"/>
      <point x="295.58" y="0.0" type="line"/>
      <point x="472.382" y="0.0" type="line"/>
      <point x="440.76800000000003" y="703.12" type="line"/>
      <point x="206.62" y="703.12" type="line"/>
    </contour>
    <contour>
      <point x="217.70399999999998" y="259.636" type="line"/>
      <point x="305.092" y="573.956" type="line"/>
      <point x="298.37399999999997" y="259.636" type="line"/>
    </contour>
  </outline>
</glyph>
<glyph name="B" format="2">
  <advance width="503.44000000000005"/>
  <unicode hex="0042"/>
  <outline>
    <contour>
      <point x="-5.647999999999996" y="3.767999999999999" type="line"/>
      <point x="81.184" y="-6.048"/>
      <point x="130.84799999999998" y="-10.0"/>
      <point x="209.392" y="-10.0" type="curve" smooth="yes"/>
      <point x="381.84799999999996" y="-10.0"/>
      <point x="484.86400000000003" y="98.8"/>
      <point x="484.86400000000003" y="252.296" type="curve" smooth="yes"/>
      <point x="484.86400000000003" y="315.976"/>
      <point x="459.016" y="365.32"/>
      <point x="410.88" y="384.544" type="curve"/>
      <point x="475.816" y="422.088"/>
      <point x="512.104" y="488.0"/>
      <point x="512.104" y="564.5360000000001" type="curve" smooth="yes"/>
      <point x="512.104" y="654.728"/>
      <point x="453.632" y="710.0"/>
      <point x="312.2" y="710.0" type="curve" smooth="yes"/>
      <point x="270.68" y="710.0"/>
      <point x="200.70399999999998" y="706.912"/>
      <point x="103.888" y="696.008" type="curve"/>
    </contour>
    <contour>
      <point x="225.28799999999998" y="417.712" type="line"/>
      <point x="247.768" y="562.304" type="line"/>
      <point x="268.2" y="564.728"/>
      <point x="277.74399999999997" y="566.64"/>
      <point x="296.552" y="566.64" type="curve" smooth="yes"/>
      <point x="336.064" y="566.64"/>
      <point x="350.83200000000005" y="554.16"/>
      <point x="350.83200000000005" y="517.072" type="curve" smooth="yes"/>
      <point x="350.83200000000005" y="453.432"/>
      <point x="317.024" y="417.712"/>
      <point x="283.15999999999997" y="417.712" type="curve" smooth="yes"/>
    </contour>
    <contour>
      <point x="203.856" y="284.128" type="line"/>
      <point x="265.79200000000003" y="284.128" type="line" smooth="yes"/>
      <point x="300.472" y="284.128"/>
      <point x="317.6" y="268.40000000000003"/>
      <point x="317.6" y="235.048" type="curve" smooth="yes"/>
      <point x="317.6" y="167.016"/>
      <point x="284.99199999999996" y="132.00799999999998"/>
      <point x="225.824" y="132.00799999999998" type="curve" smooth="yes"/>
      <point x="214.32" y="132.00799999999998"/>
      <point x="197.04" y="132.688"/>
      <point x="180.096" y="135.488" type="curve"/>
    </contour>
  </outline>
</glyph>
<glyph name="C" format="2">
  <advance width="456.49999999999994"/>
  <unicode hex="0043"/>
  <anchor x="232.61" y="0.0" name="bottom"/>
  <anchor x="344.53" y="700.0" name="top"/>
  <outline>
    <contour>
      <point x="269.93999999999994" y="-10.0" type="curve" smooth="yes"/>
      <point x="319.45" y="-10.0"/>
      <point x="361.75000000000006" y="-4.859999999999999"/>
      <point x="406.45000000000005" y="8.58" type="curve"/>
      <point x="398.94" y="150.91999999999996" type="line"/>
      <point x="368.29" y="144.49999999999997"/>
      <point x="336.59000000000003" y="139.07"/>
      <point x="305.9099999999999" y="139.07" type="curve" smooth="yes"/>
      <point x="233.24" y="139.07"/>
      <point x="194.29999999999998" y="163.59999999999997"/>
      <point x="194.29999999999998" y="254.84" type="curve" smooth="yes"/>
      <point x="194.29999999999998" y="421.25"/>
      <point x="251.22" y="560.93"/>
      <point x="354.14" y="560.93" type="curve" smooth="yes"/>
      <point x="389.49" y="560.93"/>
      <point x="424.07" y="553.85"/>
      <point x="455.33000000000004" y="543.2099999999999" type="curve"/>
      <point x="502.18" y="679.17" type="line"/>
      <point x="455.71000000000004" y="701.0600000000001"/>
      <point x="399.28" y="710.0"/>
      <point x="343.02" y="710.0" type="curve" smooth="yes"/>
      <point x="145.7" y="710.0"/>
      <point x="24.160000000000004" y="519.3599999999999"/>
      <point x="24.160000000000004" y="228.11" type="curve" smooth="yes"/>
      <point x="24.160000000000004" y="64.39"/>
      <point x="110.46000000000002" y="-10.0"/>
    </contour>
  </outline>
</glyph>
<glyph name="D" format="2">
  <advance width="532.8699999999999"/>
  <unicode hex="0044"/>
  <anchor x="215.83" y="0.0" name="bottom"/>
  <anchor x="277.04796999999996" y="350.0" name="center"/>
  <anchor x="302.79" y="700.0" name="top"/>
  <outline>
    <contour>
      <point x="200.51000000000002" y="-10.0" type="curve" smooth="yes"/>
      <point x="418.46" y="-10.0"/>
      <point x="529.07" y="175.85999999999999"/>
      <point x="529.07" y="450.60999999999996" type="curve" smooth="yes"/>
      <point x="529.07" y="628.4699999999999"/>
      <point x="447.47999999999996" y="710.0"/>
      <point x="282.6" y="710.0" type="curve" smooth="yes"/>
      <point x="226.46" y="710.0"/>
      <point x="172.31000000000003" y="707.1400000000001"/>
      <point x="103.99000000000001" y="699.4100000000001" type="curve"/>
      <point x="-7.15" y="2.8099999999999987" type="line"/>
      <point x="55.279999999999994" y="-5.42"/>
      <point x="119.69" y="-10.0"/>
    </contour>
    <contour>
      <point x="221.87" y="128.54" type="curve" smooth="yes"/>
      <point x="202.85" y="128.54"/>
      <point x="193.69" y="130.04"/>
      <point x="178.75" y="131.24999999999997" type="curve"/>
      <point x="247.48000000000002" y="562.23" type="line"/>
      <point x="258.51000000000005" y="563.3699999999999"/>
      <point x="271.72999999999996" y="564.44"/>
      <point x="288.69000000000005" y="564.44" type="curve" smooth="yes"/>
      <point x="336.81" y="564.44"/>
      <point x="361.72" y="529.1800000000001"/>
      <point x="361.72" y="449.11000000000007" type="curve" smooth="yes"/>
      <point x="361.72" y="290.36999999999995"/>
      <point x="302.55" y="128.54"/>
    </contour>
  </outline>
</glyph>
<glyph name="E" format="2">
  <advance width="447.638"/>
  <unicode hex="0045"/>
  <anchor x="190.528" y="0.0" name="bottom"/>
  <anchor x="386.724" y="0.0" name="ogonek"/>
  <anchor x="296.10800000000006" y="700.0" name="top"/>
  <anchor x="87.80727" y="700.0" name="topleft"/>
  <outline>
    <contour>
      <point x="-7.223999999999999" y="0.0" type="line"/>
      <point x="386.724" y="0.0" type="line"/>
      <point x="410.35999999999996" y="147.338" type="line"/>
      <point x="180.32000000000002" y="147.338" type="line"/>
      <point x="201.294" y="282.20799999999997" type="line"/>
      <point x="396.03000000000003" y="282.20799999999997" type="line"/>
      <point x="419.22999999999996" y="419.48599999999993" type="line"/>
      <point x="223.708" y="419.48599999999993" type="line"/>
      <point x="244.332" y="549.432" type="line"/>
      <point x="461.516" y="549.432" type="line"/>
      <point x="486.51399999999995" y="700.0" type="line"/>
      <point x="103.636" y="700.0" type="line"/>
    </contour>
  </outline>
</glyph>
<glyph name="F" format="2">
  <advance width="430.29600000000005"/>
  <unicode hex="0046"/>
  <outline>
    <contour>
      <point x="-7.799999999999999" y="0.0" type="line"/>
      <point x="157.776" y="0.0" type="line"/>
      <point x="194.344" y="227.68800000000002" type="line"/>
      <point x="375.33600000000007" y="227.68800000000002" type="line"/>
      <point x="399.664" y="379.2" type="line"/>
      <point x="218.04" y="379.2" type="line"/>
      <point x="244.736" y="547.048" type="line"/>
      <point x="458.15999999999997" y="547.048" type="line"/>
      <point x="483.576" y="700.0" type="line"/>
      <point x="103.776" y="700.0" type="line"/>
    </contour>
  </outline>
</glyph>
<glyph name="G" format="2">
  <advance width="500.1"/>
  <unicode hex="0047"/>
  <anchor x="253.39999999999998" y="0.0" name="bottom"/>
  <anchor x="349.388" y="700.0" name="top"/>
  <outline>
    <contour>
      <point x="255.848" y="-10.0" type="curve" smooth="yes"/>
      <point x="326.05600000000004" y="-10.0"/>
      <point x="392.432" y="4.048"/>
      <point x="436.40799999999996" y="31.735999999999997" type="curve"/>
      <point x="496.23600000000005" y="405.75600000000003" type="line"/>
      <point x="283.11199999999997" y="405.75600000000003" type="line"/>
      <point x="262.396" y="274.44" type="line"/>
      <point x="329.412" y="274.44" type="line"/>
      <point x="307.436" y="136.98" type="line"/>
      <point x="298.42" y="132.708"/>
      <point x="280.83599999999996" y="129.744"/>
      <point x="262.48800000000006" y="129.744" type="curve" smooth="yes"/>
      <point x="212.16" y="129.744"/>
      <point x="185.56400000000002" y="154.72400000000002"/>
      <point x="185.56400000000002" y="237.91199999999998" type="curve" smooth="yes"/>
      <point x="185.56400000000002" y="402.552"/>
      <point x="243.89600000000002" y="561.14"/>
      <point x="353.91599999999994" y="561.14" type="curve" smooth="yes"/>
      <point x="400.98" y="561.14"/>
      <point x="438.292" y="549.948"/>
      <point x="470.87199999999996" y="540.44" type="curve"/>
      <point x="521.188" y="680.5319999999999" type="line"/>
      <point x="468.308" y="701.74"/>
      <point x="410.38800000000003" y="710.0"/>
      <point x="348.344" y="710.0" type="curve" smooth="yes"/>
      <point x="114.512" y="710.0"/>
      <point x="22.256" y="451.44399999999996"/>
      <point x="22.256" y="227.34" type="curve" smooth="yes"/>
      <point x="22.256" y="70.46000000000001"/>
      <point x="109.55599999999998" y="-10.0"/>
    </contour>
  </outline>
</glyph>
<glyph name="H" format="2">
  <advance width="529.124"/>
  <unicode hex="0048"/>
  <anchor x="221.026272" y="0.0" name="bottom"/>
  <anchor x="276.524552" y="350.0" name="center"/>
  <anchor x="331.909944" y="700.0" name="top"/>
  <anchor x="87.053944" y="700.0" name="topleft"/>
  <outline>
    <contour>
      <point x="-7.8279999999999985" y="0.0" type="line"/>
      <point x="158.0" y="0.0" type="line"/>
      <point x="196.43200000000002" y="244.904" type="line"/>
      <point x="322.98400000000004" y="244.904" type="line"/>
      <point x="284.896" y="0.0" type="line"/>
      <point x="448.3759999999999" y="0.0" type="line"/>
      <point x="560.064" y="700.0" type="line"/>
      <point x="396.06800000000004" y="700.0" type="line"/>
      <point x="346.968" y="393.93600000000004" type="line"/>
      <point x="220.304" y="393.93600000000004" type="line"/>
      <point x="269.576" y="700.0" type="line"/>
      <point x="103.74799999999999" y="700.0" type="line"/>
    </contour>
  </outline>
</glyph>
<glyph name="I" format="2">
  <advance width="238.63600000000002"/>
  <unicode hex="0049"/>
  <anchor x="75.649904" y="0.0" name="bottom"/>
  <anchor x="159.97126400000002" y="6.879999999999999" name="ogonek"/>
  <anchor x="186.556108" y="700.0" name="top"/>
  <anchor x="87.83134400000002" y="700.0" name="topleft"/>
  <outline>
    <contour>
      <point x="-7.8279999999999985" y="0.0" type="line"/>
      <point x="157.888" y="0.0" type="line"/>
      <point x="269.576" y="700.0" type="line"/>
      <point x="103.74799999999999" y="700.0" type="line"/>
    </contour>
  </outline>
</glyph>
<glyph name="J" format="2">
  <advance width="388.25600000000003"/>
  <unicode hex="004A"/>
  <anchor x="144.673472" y="0.0" name="bottom"/>
  <anchor x="267.184" y="700.0" name="top"/>
  <outline>
    <contour>
      <point x="-34.436" y="23.86" type="line"/>
      <point x="10.6" y="4.279999999999999"/>
      <point x="63.716" y="-10.0"/>
      <point x="128.568" y="-10.0" type="curve" smooth="yes"/>
      <point x="249.08400000000003" y="-10.0"/>
      <point x="320.30400000000003" y="63.364"/>
      <point x="343.876" y="206.588" type="curve" smooth="yes"/>
      <point x="422.844" y="700.0" type="line"/>
      <point x="112.244" y="700.0" type="line"/>
      <point x="88.604" y="554.0640000000001" type="line"/>
      <point x="233.48800000000003" y="554.0640000000001" type="line"/>
      <point x="186.964" y="262.152" type="line" smooth="yes"/>
      <point x="172.852" y="173.852"/>
      <point x="147.46" y="152.276"/>
      <point x="99.292" y="152.276" type="curve" smooth="yes"/>
      <point x="75.66" y="152.276"/>
      <point x="44.044" y="159.644"/>
      <point x="11.328" y="169.24800000000002" type="curve"/>
    </contour>
  </outline>
</glyph>
<glyph name="K" format="2">
  <advance width="524.004"/>
  <unicode hex="004B"/>
  <anchor x="237.74" y="0.0" name="bottom"/>
  <anchor x="330.60400000000004" y="700.0" name="top"/>
  <outline>
    <contour>
      <point x="-8.212" y="0.0" type="line"/>
      <point x="158.08800000000002" y="0.0" type="line"/>
      <point x="269.276" y="700.0" type="line"/>
      <point x="104.12000000000002" y="700.0" type="line"/>
    </contour>
    <contour>
      <point x="416.464" y="-9.8" type="curve" smooth="yes"/>
      <point x="433.348" y="-9.8"/>
      <point x="462.384" y="-3.452"/>
      <point x="470.868" y="0.19199999999999995" type="curve"/>
      <point x="490.21999999999997" y="187.696" type="line"/>
      <point x="484.96799999999996" y="187.852"/>
      <point x="479.99199999999996" y="187.428"/>
      <point x="474.9599999999999" y="187.428" type="curve" smooth="yes"/>
      <point x="446.912" y="187.428"/>
      <point x="416.02799999999996" y="200.70399999999998"/>
      <point x="379.59999999999997" y="249.74399999999997" type="curve" smooth="yes"/>
      <point x="204.748" y="483.636" type="line"/>
      <point x="173.74800000000002" y="263.75600000000003" type="line"/>
      <point x="302.65199999999993" y="64.872" type="line" smooth="yes"/>
      <point x="334.496" y="14.744"/>
      <point x="367.952" y="-9.8"/>
    </contour>
    <contour>
      <point x="308.81199999999995" y="278.144" type="line"/>
      <point x="427.708" y="378.872"/>
      <point x="523.036" y="503.03600000000006"/>
      <point x="568.656" y="645.536" type="curve"/>
      <point x="433.62399999999997" y="704.6959999999999" type="line"/>
      <point x="379.48800000000006" y="577.2919999999999"/>
      <point x="306.18399999999997" y="464.756"/>
      <point x="231.54399999999998" y="400.22400000000005" type="curve"/>
    </contour>
  </outline>
</glyph>
<glyph name="L" format="2">
  <advance width="419.788"/>
  <unicode hex="004C"/>
  <anchor x="185.828" y="0.0" name="bottom"/>
  <anchor x="220.51255199999997" y="350.0" name="center"/>
  <anchor x="186.536" y="700.0" name="top"/>
  <anchor x="331.01199999999994" y="700.0" name="topright"/>
  <outline>
    <contour>
      <point x="-7.9399999999999995" y="0.0" type="line"/>
      <point x="361.568" y="0.0" type="line"/>
      <point x="386.06800000000004" y="150.064" type="line"/>
      <point x="181.932" y="150.064" type="line"/>
      <point x="269.464" y="700.0" type="line"/>
      <point x="103.74799999999999" y="700.0" type="line"/>
    </contour>
  </outline>
</glyph>
<glyph name="M" format="2">
  <advance width="615.912"/>
  <unicode hex="004D"/>
  <outline>
    <contour>
      <point x="-8.128" y="0.0" type="line"/>
      <point x="143.468" y="0.0" type="line"/>
      <point x="207.94" y="418.66800000000006" type="line"/>
      <point x="247.34799999999998" y="143.94799999999998" type="line"/>
      <point x="321.92" y="143.94799999999998" type="line"/>
      <point x="451.024" y="416.744" type="line"/>
      <point x="383.72400000000005" y="0.0" type="line"/>
      <point x="535.1640000000001" y="0.0" type="line"/>
      <point x="646.8520000000001" y="700.0" type="line"/>
      <point x="467.036" y="700.0" type="line"/>
      <point x="320.72" y="390.34400000000005" type="line"/>
      <point x="270.868" y="700.0" type="line"/>
      <point x="103.74799999999999" y="700.0" type="line"/>
    </contour>
  </outline>
</glyph>
<glyph name="N" format="2">
  <advance width="527.74"/>
  <unicode hex="004E"/>
  <anchor x="225.12" y="0.0" name="bottom"/>
  <anchor x="331.62" y="700.0" name="top"/>
  <outline>
    <contour>
      <point x="-7.799999999999999" y="0.0" type="line"/>
      <point x="139.84" y="0.0" type="line"/>
      <point x="198.19" y="359.42" type="line"/>
      <point x="287.5" y="-0.28" type="line"/>
      <point x="446.82" y="-0.28" type="line"/>
      <point x="558.6800000000001" y="700.0" type="line"/>
      <point x="410.68" y="700.0" type="line"/>
      <point x="347.67" y="315.91999999999996" type="line"/>
      <point x="263.59000000000003" y="700.28" type="line"/>
      <point x="103.99" y="700.28" type="line"/>
    </contour>
  </outline>
</glyph>
<glyph name="O" format="2">
  <advance width="537.1600000000001"/>
  <unicode hex="004F"/>
  <note>
8
</note>
  <anchor x="224.96" y="0.0" name="bottom"/>
  <anchor x="280.09999999999997" y="350.0" name="center"/>
  <anchor x="305.58" y="1.86" name="ogonek"/>
  <anchor x="333.02000000000004" y="700.0" name="top"/>
  <anchor x="86.75999999999999" y="700.0" name="topleft"/>
  <anchor x="456.99999999999994" y="696.52" name="topright"/>
  <outline>
    <contour>
      <point x="239.85999999999999" y="-8.14" type="curve" smooth="yes"/>
      <point x="445.94" y="-8.14"/>
      <point x="532.04" y="233.09999999999997"/>
      <point x="536.0" y="463.96000000000004" type="curve" smooth="yes"/>
      <point x="538.88" y="625.56"/>
      <point x="469.14000000000004" y="708.14"/>
      <point x="321.3" y="708.14" type="curve" smooth="yes"/>
      <point x="115.21999999999998" y="708.14"/>
      <point x="29.120000000000005" y="466.9"/>
      <point x="25.160000000000004" y="236.04" type="curve" smooth="yes"/>
      <point x="22.28000000000001" y="74.44"/>
      <point x="92.02000000000001" y="-8.14"/>
    </contour>
    <contour>
      <point x="250.79999999999998" y="145.01999999999998" type="curve" smooth="yes"/>
      <point x="212.88000000000002" y="145.01999999999998"/>
      <point x="192.86" y="162.26000000000002"/>
      <point x="192.86" y="226.86" type="curve" smooth="yes"/>
      <point x="192.86" y="334.24"/>
      <point x="239.24000000000004" y="554.98"/>
      <point x="310.5" y="554.98" type="curve" smooth="yes"/>
      <point x="348.28000000000003" y="554.98"/>
      <point x="368.3" y="537.38"/>
      <point x="368.3" y="472.78" type="curve" smooth="yes"/>
      <point x="368.3" y="365.4"/>
      <point x="321.92" y="145.01999999999998"/>
    </contour>
  </outline>
</glyph>
<glyph name="P" format="2">
  <advance width="517.3499999999999"/>
  <unicode hex="0050"/>
  <outline>
    <contour>
      <point x="-7.369999999999999" y="0.0" type="line"/>
      <point x="157.83" y="0.0" type="line"/>
      <point x="186.56" y="176.78" type="line"/>
      <point x="223.57999999999998" y="173.13"/>
      <point x="234.47" y="173.06"/>
      <point x="262.89" y="173.06" type="curve" smooth="yes"/>
      <point x="437.16" y="173.06"/>
      <point x="535.23" y="305.15"/>
      <point x="535.3000000000001" y="511.7" type="curve" smooth="yes"/>
      <point x="535.3000000000001" y="646.7299999999999"/>
      <point x="471.18" y="710.0"/>
      <point x="316.62" y="710.0" type="curve" smooth="yes"/>
      <point x="272.41" y="710.0"/>
      <point x="193.81" y="707.14"/>
      <point x="104.49" y="701.7099999999999" type="curve"/>
    </contour>
    <contour>
      <point x="248.27" y="562.16" type="line"/>
      <point x="275.65999999999997" y="564.37"/>
      <point x="285.18" y="565.4399999999999"/>
      <point x="305.02000000000004" y="565.4399999999999" type="curve" smooth="yes"/>
      <point x="353.40000000000003" y="565.4399999999999"/>
      <point x="370.1" y="541.63"/>
      <point x="370.1" y="486.13000000000005" type="curve" smooth="yes"/>
      <point x="370.1" y="403.14000000000004"/>
      <point x="330.62" y="318.05"/>
      <point x="254.07000000000002" y="318.05" type="curve" smooth="yes"/>
      <point x="240.64" y="318.05"/>
      <point x="230.42000000000002" y="318.69"/>
      <point x="209.34" y="320.62" type="curve"/>
    </contour>
  </outline>
</glyph>
<glyph name="Q" format="2">
  <advance width="537.784"/>
  <unicode hex="0051"/>
  <note>
14
</note>
  <outline>
    <contour>
      <point x="379.00399999999996" y="-173.552" type="curve" smooth="yes"/>
      <point x="401.68800000000005" y="-173.552"/>
      <point x="424.86" y="-170.412"/>
      <point x="446.748" y="-163.68" type="curve"/>
      <point x="459.836" y="-23.872000000000014" type="line"/>
      <point x="448.52000000000004" y="-28.028"/>
      <point x="434.40000000000003" y="-30.307999999999996"/>
      <point x="419.104" y="-30.307999999999996" type="curve" smooth="yes"/>
      <point x="377.15600000000006" y="-30.307999999999996"/>
      <point x="345.44800000000004" y="-11.423999999999996"/>
      <point x="339.736" y="21.532" type="curve"/>
      <point x="201.62400000000002" y="14.111999999999998" type="line"/>
      <point x="208.304" y="-128.416"/>
      <point x="295.72400000000005" y="-173.552"/>
    </contour>
    <component base="O"/>
  </outline>
</glyph>
<glyph name="R" format="2">
  <advance width="530.5600000000001"/>
  <unicode hex="0052"/>
  <anchor x="239.78000000000003" y="0.0" name="bottom"/>
  <anchor x="301.82000000000005" y="700.0" name="top"/>
  <outline>
    <contour>
      <point x="-7.9399999999999995" y="0.0" type="line"/>
      <point x="157.9" y="0.0" type="line"/>
      <point x="192.64" y="218.28" type="line"/>
      <point x="214.6" y="218.14"/>
      <point x="235.7" y="218.0"/>
      <point x="262.0" y="217.5" type="curve"/>
      <point x="279.34" y="237.12" type="line"/>
      <point x="431.08" y="237.26"/>
      <point x="535.1599999999999" y="342.26000000000005"/>
      <point x="535.1599999999999" y="512.3" type="curve" smooth="yes"/>
      <point x="535.1599999999999" y="637.7200000000001"/>
      <point x="462.70000000000005" y="710.0"/>
      <point x="309.58" y="710.0" type="curve" smooth="yes"/>
      <point x="249.29999999999998" y="710.0"/>
      <point x="185.12" y="705.9200000000001"/>
      <point x="104.05999999999999" y="699.7" type="curve"/>
    </contour>
    <contour>
      <point x="422.52000000000004" y="-10.0" type="curve" smooth="yes"/>
      <point x="434.18000000000006" y="-10.0"/>
      <point x="463.18" y="-6.14"/>
      <point x="473.41999999999996" y="-0.8400000000000001" type="curve"/>
      <point x="492.7799999999999" y="165.57999999999998" type="line"/>
      <point x="488.63999999999993" y="164.94"/>
      <point x="483.41999999999996" y="164.94"/>
      <point x="479.34" y="164.94" type="curve" smooth="yes"/>
      <point x="438.5199999999999" y="164.93999999999997"/>
      <point x="398.56" y="197.61999999999998"/>
      <point x="370.24" y="287.46000000000004" type="curve"/>
      <point x="220.23999999999998" y="248.20000000000002" type="line"/>
      <point x="288.18" y="25.54"/>
      <point x="343.56" y="-10.0"/>
    </contour>
    <contour>
      <point x="261.68" y="348.17999999999995" type="curve" smooth="yes"/>
      <point x="243.36" y="348.17999999999995"/>
      <point x="228.28" y="349.18"/>
      <point x="213.48" y="351.18" type="curve"/>
      <point x="247.98" y="565.6" type="line"/>
      <point x="275.15999999999997" y="567.88"/>
      <point x="284.84" y="568.88"/>
      <point x="305.36" y="568.88" type="curve" smooth="yes"/>
      <point x="350.58" y="568.88"/>
      <point x="365.88000000000005" y="541.72"/>
      <point x="365.88000000000005" y="501.9600000000001" type="curve" smooth="yes"/>
      <point x="365.88000000000005" y="413.9599999999999"/>
      <point x="322.46" y="348.17999999999995"/>
    </contour>
  </outline>
</glyph>
<glyph name="S" format="2">
  <advance width="470.53000000000003"/>
  <unicode hex="0053"/>
  <anchor x="205.17" y="0.0" name="bottom"/>
  <anchor x="309.15" y="700.0" name="top"/>
  <outline>
    <contour>
      <point x="490.0" y="673.44" type="line"/>
      <point x="442.96999999999997" y="695.76"/>
      <point x="383.25" y="710.0"/>
      <point x="314.21999999999997" y="710.0" type="curve" smooth="yes"/>
      <point x="143.01" y="710.0"/>
      <point x="49.89" y="623.08"/>
      <point x="49.89" y="483.53999999999996" type="curve" smooth="yes"/>
      <point x="49.89" y="298.31"/>
      <point x="274.17" y="282.54"/>
      <point x="274.16999999999996" y="197.67" type="curve" smooth="yes"/>
      <point x="274.16999999999996" y="162.35999999999999"/>
      <point x="247.66" y="135.12"/>
      <point x="188.51" y="135.12" type="curve" smooth="yes"/>
      <point x="135.59" y="135.12"/>
      <point x="85.02" y="146.77000000000004"/>
      <point x="23.369999999999997" y="170.51" type="curve"/>
      <point x="-26.61" y="33.92" type="line"/>
      <point x="28.150000000000006" y="5.74"/>
      <point x="100.78" y="-10.0"/>
      <point x="184.74999999999997" y="-10.0" type="curve" smooth="yes"/>
      <point x="355.07000000000005" y="-10.0"/>
      <point x="446.55" y="79.77000000000001"/>
      <point x="446.55" y="209.98000000000002" type="curve" smooth="yes"/>
      <point x="446.69" y="396.76000000000005"/>
      <point x="225.57" y="417.52000000000004"/>
      <point x="225.57" y="499.03999999999996" type="curve" smooth="yes"/>
      <point x="225.57" y="542.2299999999999"/>
      <point x="255.22" y="564.96"/>
      <point x="313.46999999999997" y="564.96" type="curve" smooth="yes"/>
      <point x="357.96999999999997" y="564.96"/>
      <point x="403.22999999999996" y="557.24"/>
      <point x="442.82" y="540.6600000000001" type="curve"/>
    </contour>
  </outline>
</glyph>
<glyph name="T" format="2">
  <advance width="466.90400000000005"/>
  <unicode hex="0054"/>
  <anchor x="189.75747199999998" y="0.0" name="bottom"/>
  <anchor x="245.365364" y="350.0" name="center"/>
  <anchor x="300.676108" y="700.0" name="top"/>
  <outline>
    <contour>
      <point x="499.84799999999996" y="556.644" type="line"/>
      <point x="524.176" y="700.0" type="line"/>
      <point x="78.61999999999999" y="700.0" type="line"/>
      <point x="54.12" y="556.644" type="line"/>
      <point x="194.6" y="556.644" type="line"/>
      <point x="106.38000000000001" y="0.0" type="line"/>
      <point x="272.096" y="0.0" type="line"/>
      <point x="360.144" y="556.644" type="line"/>
    </contour>
  </outline>
</glyph>
<glyph name="U" format="2">
  <advance width="518.8480000000001"/>
  <unicode hex="0055"/>
  <anchor x="215.90584" y="0.0" name="bottom"/>
  <anchor x="292.344" y="0.0" name="ogonek"/>
  <anchor x="326.45718" y="700.0" name="top"/>
  <anchor x="532.452" y="700.0" name="topright"/>
  <outline>
    <contour>
      <point x="211.63199999999998" y="-10.0" type="curve" smooth="yes"/>
      <point x="368.436" y="-10.0"/>
      <point x="450.61199999999997" y="59.300000000000004"/>
      <point x="475.63199999999995" y="213.704" type="curve" smooth="yes"/>
      <point x="553.4359999999999" y="700.0" type="line"/>
      <point x="388.812" y="700.0" type="line"/>
      <point x="308.4" y="193.064" type="line" smooth="yes"/>
      <point x="302.692" y="153.62"/>
      <point x="279.544" y="135.248"/>
      <point x="237.388" y="135.248" type="curve" smooth="yes"/>
      <point x="196.304" y="135.248"/>
      <point x="177.33999999999997" y="155.0"/>
      <point x="183.656" y="190.90800000000002" type="curve" smooth="yes"/>
      <point x="265.156" y="700.0" type="line"/>
      <point x="100.64399999999999" y="700.0" type="line"/>
      <point x="22.644000000000002" y="211.184" type="line" smooth="yes"/>
      <point x="18.18" y="182.82399999999998"/>
      <point x="16.604" y="166.38400000000001"/>
      <point x="16.604" y="150.064" type="curve" smooth="yes"/>
      <point x="16.604" y="41.996"/>
      <point x="80.356" y="-10.0"/>
    </contour>
  </outline>
</glyph>
<glyph name="V" format="2">
  <advance width="511.618"/>
  <unicode hex="0056"/>
  <outline>
    <contour>
      <point x="309.838" y="0.0" type="line"/>
      <point x="487.31" y="350.698"/>
      <point x="543.5699999999999" y="494.38"/>
      <point x="567.22" y="675.18" type="curve" smooth="yes"/>
      <point x="568.08" y="683.8380000000001"/>
      <point x="568.8000000000001" y="691.328"/>
      <point x="568.838" y="700.0" type="curve"/>
      <point x="387.71799999999996" y="700.0" type="line"/>
      <point x="387.96999999999997" y="694.3100000000001"/>
      <point x="388.568" y="688.638"/>
      <point x="388.568" y="681.69" type="curve" smooth="yes"/>
      <point x="382.978" y="530.5600000000001"/>
      <point x="326.424" y="394.654"/>
      <point x="239.79599999999996" y="159.45999999999998" type="curve"/>
      <point x="252.73999999999998" y="700.308" type="line"/>
      <point x="66.4" y="700.07" type="line"/>
      <point x="101.64800000000001" y="0.0" type="line"/>
    </contour>
  </outline>
</glyph>
<glyph name="W" format="2">
  <advance width="769.48"/>
  <unicode hex="0057"/>
  <anchor x="336.74" y="0.0" name="bottom"/>
  <anchor x="449.56" y="700.0" name="top"/>
  <outline>
    <contour>
      <point x="598.1" y="-0.14" type="line"/>
      <point x="773.22" y="453.65999999999997"/>
      <point x="817.08" y="574.98"/>
      <point x="823.68" y="683.4999999999999" type="curve" smooth="yes"/>
      <point x="823.68" y="688.9"/>
      <point x="823.68" y="694.74"/>
      <point x="823.62" y="700.0" type="curve"/>
      <point x="667.02" y="700.0" type="line"/>
      <point x="667.3" y="694.74"/>
      <point x="667.44" y="690.1199999999999"/>
      <point x="667.44" y="684.4999999999999" type="curve" smooth="yes"/>
      <point x="661.14" y="539.3"/>
      <point x="627.5400000000001" y="468.64000000000004"/>
      <point x="523.9599999999999" y="173.96" type="curve"/>
      <point x="521.38" y="654.22" type="line"/>
      <point x="368.21999999999997" y="654.22" type="line"/>
      <point x="328.94" y="499.48"/>
      <point x="271.38" y="297.96"/>
      <point x="220.2" y="172.68" type="curve"/>
      <point x="227.64000000000001" y="700.0" type="line"/>
      <point x="67.17999999999999" y="700.0" type="line"/>
      <point x="84.86" y="-0.14" type="line"/>
      <point x="254.23999999999998" y="-0.14" type="line"/>
      <point x="319.54" y="154.44"/>
      <point x="371.35999999999996" y="294.42"/>
      <point x="407.28" y="397.06" type="curve"/>
      <point x="419.67999999999995" y="-0.14" type="line"/>
    </contour>
  </outline>
</glyph>
<glyph name="X" format="2">
  <advance width="535.28"/>
  <unicode hex="0058"/>
  <outline>
    <contour>
      <point x="331.46" y="-1.1999999999999997" type="line"/>
      <point x="496.21999999999997" y="0.72" type="line"/>
      <point x="397.44" y="348.74" type="line"/>
      <point x="517.7800000000001" y="575.12"/>
      <point x="567.5600000000001" y="624.8000000000001"/>
      <point x="577.6800000000001" y="700.72" type="curve"/>
      <point x="418.9" y="702.08" type="line"/>
      <point x="409.72" y="624.22"/>
      <point x="360.53999999999996" y="548.4999999999999"/>
      <point x="293.58" y="451.32000000000005" type="curve"/>
      <point x="238.0" y="701.48" type="line"/>
      <point x="77.67999999999999" y="699.56" type="line"/>
      <point x="155.85999999999999" y="361.2" type="line"/>
      <point x="52.220000000000006" y="197.42000000000002"/>
      <point x="-11.68" y="110.17999999999999"/>
      <point x="-20.320000000000004" y="0.0" type="curve"/>
      <point x="144.14" y="0.0" type="line"/>
      <point x="152.78" y="98.46000000000001"/>
      <point x="185.22" y="143.64000000000001"/>
      <point x="264.03999999999996" y="258.62" type="curve"/>
    </contour>
  </outline>
</glyph>
<glyph name="Y" format="2">
  <advance width="495.35599999999994"/>
  <unicode hex="0059"/>
  <anchor x="204.596" y="0.0" name="bottom"/>
  <anchor x="317.452" y="700.0" name="top"/>
  <anchor x="89.012" y="700.0" name="topleft"/>
  <outline>
    <contour>
      <point x="120.36399999999999" y="0.0" type="line"/>
      <point x="283.30000000000007" y="0.0" type="line"/>
      <point x="320.396" y="225.656" type="line"/>
      <point x="444.15999999999997" y="399.576"/>
      <point x="504.968" y="520.148"/>
      <point x="554.908" y="667.8639999999999" type="curve" smooth="yes"/>
      <point x="557.72" y="678.236"/>
      <point x="561.908" y="689.94"/>
      <point x="565.1080000000001" y="700.812" type="curve"/>
      <point x="377.01599999999996" y="701.0400000000001" type="line"/>
      <point x="375.536" y="691.0120000000001"/>
      <point x="373.424" y="680.796"/>
      <point x="371.644" y="670.912" type="curve" smooth="yes"/>
      <point x="347.916" y="566.6840000000001"/>
      <point x="322.732" y="475.92"/>
      <point x="264.26800000000003" y="367.964" type="curve"/>
      <point x="255.48800000000003" y="700.5279999999999" type="line"/>
      <point x="65.10000000000001" y="699.856" type="line"/>
      <point x="157.13600000000002" y="225.656" type="line"/>
    </contour>
  </outline>
</glyph>
<glyph name="Z" format="2">
  <advance width="469.94"/>
  <unicode hex="005A"/>
  <anchor x="191.96" y="0.0" name="bottom"/>
  <anchor x="246.84000000000003" y="350.0" name="center"/>
  <anchor x="300.68" y="700.0" name="top"/>
  <outline>
    <contour>
      <point x="-27.72" y="0.0" type="line"/>
      <point x="408.20000000000005" y="0.0" type="line"/>
      <point x="432.34000000000003" y="144.34" type="line"/>
      <point x="186.45999999999998" y="144.34" type="line"/>
      <point x="490.46" y="553.28" type="line"/>
      <point x="513.9599999999999" y="700.0" type="line"/>
      <point x="97.03999999999999" y="700.0" type="line"/>
      <point x="73.03999999999999" y="555.6600000000001" type="line"/>
      <point x="303.02000000000004" y="555.6600000000001" type="line"/>
      <point x="-4.94" y="142.92000000000002" type="line"/>
    </contour>
  </outline>
</glyph>
<glyph name="bracketleft" format="2">
  <advance width="281.456"/>
  <unicode hex="005B"/>
  <outline>
    <contour>
      <point x="108.06400000000001" y="-78.48" type="line"/>
      <point x="219.352" y="608.508" type="line"/>
      <point x="320.212" y="608.508" type="line"/>
      <point x="342.132" y="740.0" type="line"/>
      <point x="111.39200000000001" y="740.0" type="line"/>
      <point x="-43.452" y="-210.0" type="line"/>
      <point x="186.31600000000003" y="-210.0" type="line"/>
      <point x="208.92399999999998" y="-78.48" type="line"/>
    </contour>
  </outline>
</glyph>
<glyph name="backslash" format="2">
  <advance width="357.472"/>
  <unicode hex="005C"/>
  <outline>
    <contour>
      <point x="201.772" y="740.0" type="line"/>
      <point x="72.088" y="740.0" type="line"/>
      <point x="191.21599999999998" y="-210.0" type="line"/>
      <point x="320.21200000000005" y="-210.0" type="line"/>
    </contour>
  </outline>
</glyph>
<glyph name="bracketright" format="2">
  <advance width="281.456"/>
  <unicode hex="005D"/>
  <outline>
    <contour>
      <point x="-41.616" y="-78.48" type="line"/>
      <point x="-63.364" y="-210.0" type="line"/>
      <point x="166.26399999999998" y="-210.0" type="line"/>
      <point x="322.08" y="740.0" type="line"/>
      <point x="91.452" y="740.0" type="line"/>
      <point x="68.844" y="608.48" type="line"/>
      <point x="169.704" y="608.48" type="line"/>
      <point x="57.728" y="-78.48" type="line"/>
    </contour>
  </outline>
</glyph>
<glyph name="asciicircum" format="2">
  <advance width="446.15599999999995"/>
  <unicode hex="005E"/>
  <outline>
    <contour>
      <point x="42.268" y="240.216" type="line"/>
      <point x="159.70800000000003" y="240.216" type="line"/>
      <point x="262.408" y="530.192" type="line"/>
      <point x="276.408" y="240.216" type="line"/>
      <point x="393.104" y="240.216" type="line"/>
      <point x="360.004" y="701.4" type="line"/>
      <point x="214.844" y="701.4" type="line"/>
    </contour>
  </outline>
</glyph>
<glyph name="underscore" format="2">
  <advance width="634.6560000000001"/>
  <unicode hex="005F"/>
  <outline>
    <contour>
      <point x="-71.236" y="-198.952" type="line"/>
      <point x="553.876" y="-198.952" type="line"/>
      <point x="578.8919999999999" y="-51.728" type="line"/>
      <point x="-46.22" y="-51.728" type="line"/>
    </contour>
  </outline>
</glyph>
<glyph name="a" format="2">
  <advance width="480.9"/>
  <unicode hex="0061"/>
  <note>
15
</note>
  <anchor x="203.06999999999996" y="0.0" name="bottom"/>
  <anchor x="439.79999999999995" y="10.319999999999999" name="ogonek"/>
  <anchor x="282.38" y="547.2" name="top"/>
  <outline>
    <contour>
      <point x="356.30000000000007" y="-10.0" type="curve" smooth="yes"/>
      <point x="386.78000000000003" y="-10.0"/>
      <point x="420.98999999999995" y="-1.3399999999999996"/>
      <point x="439.44000000000005" y="10.319999999999999" type="curve"/>
      <point x="453.93000000000006" y="143.64" type="line"/>
      <point x="449.24" y="142.07999999999996"/>
      <point x="443.61000000000007" y="141.73"/>
      <point x="439.49" y="141.73" type="curve" smooth="yes"/>
      <point x="428.09" y="141.73"/>
      <point x="424.75000000000006" y="147.21000000000004"/>
      <point x="424.75000000000006" y="159.39" type="curve" smooth="yes"/>
      <point x="424.75000000000006" y="166.10000000000002"/>
      <point x="430.15999999999997" y="196.33"/>
      <point x="482.1199999999999" y="521.9399999999999" type="curve"/>
      <point x="432.60999999999996" y="540.6700000000001"/>
      <point x="357.61" y="557.2"/>
      <point x="287.48" y="557.2" type="curve" smooth="yes"/>
      <point x="118.00999999999999" y="557.2"/>
      <point x="12.1" y="425.2300000000001"/>
      <point x="12.1" y="168.13" type="curve" smooth="yes"/>
      <point x="12.1" y="52.38"/>
      <point x="64.42999999999999" y="-10.0"/>
      <point x="144.02000000000004" y="-10.0" type="curve" smooth="yes"/>
      <point x="190.61" y="-10.0"/>
      <point x="228.54000000000002" y="6.72"/>
      <point x="261.7" y="38.11000000000001" type="curve"/>
      <point x="281.61" y="5.36"/>
      <point x="313.52" y="-10.0"/>
    </contour>
    <contour>
      <point x="260.12999999999994" y="152.29" type="line"/>
      <point x="247.60999999999996" y="145.54999999999995"/>
      <point x="231.69" y="140.57999999999998"/>
      <point x="217.39999999999998" y="140.57999999999998" type="curve" smooth="yes"/>
      <point x="196.46" y="140.57999999999998"/>
      <point x="180.94999999999996" y="157.9"/>
      <point x="180.94999999999996" y="193.49" type="curve" smooth="yes"/>
      <point x="180.94999999999996" y="316.46"/>
      <point x="221.08" y="416.72"/>
      <point x="269.79" y="416.72" type="curve" smooth="yes"/>
      <point x="280.59" y="416.72"/>
      <point x="291.48" y="415.5900000000001"/>
      <point x="301.23999999999995" y="411.53999999999996" type="curve"/>
    </contour>
  </outline>
</glyph>
<glyph name="b" format="2">
  <advance width="471.472"/>
  <unicode hex="0062"/>
  <note>
12
</note>
  <outline>
    <contour>
      <point x="269.006" y="740.0" type="line"/>
      <point x="105.956" y="740.0" type="line"/>
      <point x="-8.268" y="18.235999999999997" type="line"/>
      <point x="31.817999999999998" y="5.058"/>
      <point x="94.358" y="-10.0"/>
      <point x="175.658" y="-10.0" type="curve" smooth="yes"/>
      <point x="375.074" y="-10.0"/>
      <point x="462.298" y="164.172"/>
      <point x="461.00800000000004" y="375.008" type="curve" smooth="yes"/>
      <point x="460.578" y="497.516"/>
      <point x="417.81" y="557.2"/>
      <point x="336.238" y="557.2" type="curve" smooth="yes"/>
      <point x="301.604" y="557.2"/>
      <point x="269.212" y="546.2760000000001"/>
      <point x="234.39000000000001" y="522.4720000000001" type="curve"/>
    </contour>
    <contour>
      <point x="256.754" y="404.58200000000005" type="curve" smooth="yes"/>
      <point x="283.708" y="404.58200000000005"/>
      <point x="294.94800000000004" y="384.14199999999994"/>
      <point x="294.94800000000004" y="347.928" type="curve" smooth="yes"/>
      <point x="294.94800000000004" y="237.97200000000004"/>
      <point x="260.37" y="127.13799999999999"/>
      <point x="203.00999999999996" y="127.13799999999999" type="curve" smooth="yes"/>
      <point x="192.61200000000002" y="127.13799999999999"/>
      <point x="182.12" y="128.78199999999998"/>
      <point x="173.15" y="131.912" type="curve"/>
      <point x="214.19" y="392.168" type="line"/>
      <point x="226.79199999999997" y="399.444"/>
      <point x="242.50599999999997" y="404.58200000000005"/>
    </contour>
  </outline>
</glyph>
<glyph name="c" format="2">
  <advance width="396.8"/>
  <unicode hex="0063"/>
  <note>
10
</note>
  <anchor x="193.56000000000003" y="0.0" name="bottom"/>
  <anchor x="280.52000000000004" y="547.1999999999999" name="top"/>
  <outline>
    <contour>
      <point x="206.90000000000003" y="-10.0" type="curve" smooth="yes"/>
      <point x="252.48" y="-10.0"/>
      <point x="309.55999999999995" y="-1.7799999999999994"/>
      <point x="349.09999999999997" y="13.020000000000001" type="curve"/>
      <point x="335.0" y="152.16" type="line"/>
      <point x="304.47999999999996" y="146.38"/>
      <point x="281.5199999999999" y="144.18"/>
      <point x="253.76" y="144.18" type="curve" smooth="yes"/>
      <point x="205.54000000000005" y="144.18"/>
      <point x="182.34" y="176.12000000000003"/>
      <point x="182.34" y="225.06" type="curve" smooth="yes"/>
      <point x="182.34" y="318.5"/>
      <point x="220.88" y="402.88"/>
      <point x="290.34000000000003" y="402.88" type="curve" smooth="yes"/>
      <point x="318.91999999999996" y="402.88"/>
      <point x="345.00000000000006" y="400.02000000000004"/>
      <point x="374.48" y="390.52" type="curve"/>
      <point x="424.48" y="538.6800000000001" type="line"/>
      <point x="389.9" y="550.62"/>
      <point x="341.76" y="557.1999999999999"/>
      <point x="293.7" y="557.1999999999999" type="curve" smooth="yes"/>
      <point x="102.46" y="557.1999999999999"/>
      <point x="12.82" y="407.30000000000007"/>
      <point x="12.82" y="188.59999999999997" type="curve" smooth="yes"/>
      <point x="12.82" y="63.640000000000015"/>
      <point x="78.60000000000001" y="-10.0"/>
    </contour>
  </outline>
</glyph>
<glyph name="d" format="2">
  <advance width="479.46000000000004"/>
  <unicode hex="0064"/>
  <note>
17
</note>
  <anchor x="218.79" y="0.0" name="bottom"/>
  <anchor x="240.39000000000001" y="285.57" name="center"/>
  <anchor x="297.88000000000005" y="740.0" name="top"/>
  <anchor x="542.53" y="740.0" name="topright"/>
  <outline>
    <contour>
      <point x="354.87000000000006" y="-10.0" type="curve" smooth="yes"/>
      <point x="383.21" y="-10.0"/>
      <point x="417.85" y="-2.2"/>
      <point x="437.51" y="10.319999999999999" type="curve"/>
      <point x="451.86000000000007" y="143.63999999999996" type="line"/>
      <point x="447.02000000000004" y="142.14999999999998"/>
      <point x="441.68" y="141.73"/>
      <point x="437.85" y="141.73" type="curve" smooth="yes"/>
      <point x="426.72999999999996" y="141.73"/>
      <point x="423.60999999999996" y="146.99999999999997"/>
      <point x="423.60999999999996" y="156.02999999999997" type="curve" smooth="yes"/>
      <point x="423.60999999999996" y="172.77"/>
      <point x="502.85" y="667.4100000000001"/>
      <point x="514.2600000000001" y="740.0" type="curve"/>
      <point x="351.86" y="740.0" type="line"/>
      <point x="320.15000000000003" y="542.26" type="line"/>
      <point x="298.8" y="552.2"/>
      <point x="273.6499999999999" y="557.2"/>
      <point x="245.66" y="557.2" type="curve" smooth="yes"/>
      <point x="118.10000000000001" y="557.2"/>
      <point x="12.680000000000001" y="415.90000000000003"/>
      <point x="12.680000000000001" y="178.93000000000004" type="curve" smooth="yes"/>
      <point x="12.680000000000001" y="50.18"/>
      <point x="64.5" y="-10.0"/>
      <point x="145.39000000000001" y="-10.0" type="curve" smooth="yes"/>
      <point x="191.56" y="-10.0"/>
      <point x="231.26" y="11.729999999999999"/>
      <point x="259.77" y="38.25000000000001" type="curve"/>
      <point x="279.75" y="6.079999999999999"/>
      <point x="311.38" y="-10.0"/>
    </contour>
    <contour>
      <point x="215.18999999999997" y="140.79" type="curve" smooth="yes"/>
      <point x="193.37999999999997" y="140.79"/>
      <point x="178.95" y="159.06"/>
      <point x="178.95" y="187.17999999999998" type="curve" smooth="yes"/>
      <point x="178.95" y="297.99999999999994"/>
      <point x="215.59" y="416.72"/>
      <point x="268.52" y="416.72" type="curve" smooth="yes"/>
      <point x="279.66999999999996" y="416.72"/>
      <point x="289.56" y="415.45000000000005"/>
      <point x="299.52" y="412.03000000000003" type="curve"/>
      <point x="258.27000000000004" y="152.35999999999996" type="line"/>
      <point x="245.75" y="145.61999999999995"/>
      <point x="229.25" y="140.79"/>
    </contour>
  </outline>
</glyph>
<glyph name="e" format="2">
  <advance width="439.04"/>
  <unicode hex="0065"/>
  <note>
14 points
</note>
  <anchor x="205.11999999999998" y="0.0" name="bottom"/>
  <anchor x="323.68" y="1.56" name="ogonek"/>
  <anchor x="277.71999999999997" y="546.4000000000001" name="top"/>
  <outline>
    <contour>
      <point x="140.74" y="291.42" type="curve"/>
      <point x="121.32" y="193.9" type="line"/>
      <point x="161.48" y="190.88000000000002"/>
      <point x="203.12" y="194.94"/>
      <point x="246.56" y="204.50000000000003" type="curve" smooth="yes"/>
      <point x="368.18" y="232.98000000000002"/>
      <point x="446.85999999999996" y="314.23999999999995"/>
      <point x="446.85999999999996" y="421.81999999999994" type="curve" smooth="yes"/>
      <point x="446.85999999999996" y="501.84"/>
      <point x="389.78" y="556.12"/>
      <point x="284.22" y="556.12" type="curve" smooth="yes"/>
      <point x="103.24000000000001" y="556.12"/>
      <point x="12.800000000000002" y="393.5799999999999"/>
      <point x="12.800000000000002" y="198.47999999999996" type="curve" smooth="yes"/>
      <point x="12.800000000000002" y="65.16000000000001"/>
      <point x="85.6" y="-10.0"/>
      <point x="216.45999999999995" y="-10.0" type="curve" smooth="yes"/>
      <point x="271.86" y="-10.0"/>
      <point x="333.12" y="0.14000000000000057"/>
      <point x="385.31999999999994" y="23.220000000000002" type="curve"/>
      <point x="363.64" y="165.64000000000001" type="line"/>
      <point x="316.62" y="147.86"/>
      <point x="273.96000000000004" y="140.94"/>
      <point x="244.56" y="140.94" type="curve" smooth="yes"/>
      <point x="192.98000000000002" y="140.94"/>
      <point x="170.39999999999998" y="154.25999999999996"/>
      <point x="171.84000000000003" y="227.6" type="curve" smooth="yes"/>
      <point x="174.0" y="348.3399999999999"/>
      <point x="215.0" y="421.8200000000001"/>
      <point x="262.98" y="421.4600000000001" type="curve" smooth="yes"/>
      <point x="282.02000000000004" y="421.4600000000001"/>
      <point x="290.8999999999999" y="412.7799999999999"/>
      <point x="290.8999999999999" y="391.58" type="curve" smooth="yes"/>
      <point x="290.17999999999995" y="353.4200000000001"/>
      <point x="259.5" y="315.12"/>
      <point x="207.57999999999998" y="299.02000000000004" type="curve" smooth="yes"/>
      <point x="187.49999999999997" y="293.0400000000001"/>
      <point x="158.22" y="289.12"/>
    </contour>
  </outline>
</glyph>
<glyph name="f" format="2">
  <advance width="313.796"/>
  <unicode hex="0066"/>
  <outline>
    <contour>
      <point x="-11.587999999999996" y="-220.0" type="curve" smooth="yes"/>
      <point x="98.212" y="-220.0"/>
      <point x="155.924" y="-150.208"/>
      <point x="178.712" y="-7.195999999999998" type="curve" smooth="yes"/>
      <point x="239.67199999999997" y="378.312" type="line"/>
      <point x="318.948" y="378.312" type="line"/>
      <point x="340.868" y="514.96" type="line"/>
      <point x="261.41999999999996" y="514.96" type="line"/>
      <point x="271.276" y="578.6159999999999"/>
      <point x="290.488" y="596.84"/>
      <point x="325.348" y="596.84" type="curve" smooth="yes"/>
      <point x="343.26" y="596.84"/>
      <point x="365.06000000000006" y="592.5"/>
      <point x="382.20799999999997" y="586.56" type="curve"/>
      <point x="426.848" y="722.38" type="line"/>
      <point x="392.80000000000007" y="738.288"/>
      <point x="354.26399999999995" y="750.0"/>
      <point x="303.688" y="750.0" type="curve" smooth="yes"/>
      <point x="196.092" y="750.0"/>
      <point x="120.916" y="671.8439999999999"/>
      <point x="98.6" y="514.96" type="curve"/>
      <point x="44.86" y="505.89200000000005" type="line"/>
      <point x="23.596" y="378.312" type="line"/>
      <point x="76.67999999999999" y="378.312" type="line"/>
      <point x="17.496000000000002" y="1.2839999999999954" type="line" smooth="yes"/>
      <point x="9.636" y="-47.208000000000006"/>
      <point x="-6.940000000000002" y="-66.77600000000001"/>
      <point x="-33.108000000000004" y="-66.77600000000001" type="curve" smooth="yes"/>
      <point x="-41.976" y="-66.77600000000001"/>
      <point x="-52.916" y="-66.12400000000001"/>
      <point x="-66.592" y="-61.41200000000002" type="curve"/>
      <point x="-107.11200000000001" y="-201.908" type="line"/>
      <point x="-75.544" y="-214.18800000000002"/>
      <point x="-45.15200000000001" y="-220.0"/>
    </contour>
  </outline>
</glyph>
<glyph name="g" format="2">
  <advance width="476.26000000000005"/>
  <unicode hex="0067"/>
  <note>
16
</note>
  <anchor x="155.64" y="-217.16" name="bottom"/>
  <anchor x="283.04" y="547.1999999999999" name="top"/>
  <outline>
    <contour>
      <point x="-22.279999999999998" y="-180.42000000000002" type="line"/>
      <point x="34.96" y="-205.54"/>
      <point x="100.63999999999999" y="-220.0"/>
      <point x="159.44000000000003" y="-220.0" type="curve" smooth="yes"/>
      <point x="298.12000000000006" y="-220.0"/>
      <point x="375.50000000000006" y="-145.21999999999997"/>
      <point x="400.88000000000005" y="15.340000000000002" type="curve" smooth="yes"/>
      <point x="484.0" y="530.3199999999999" type="line"/>
      <point x="449.70000000000005" y="543.6800000000001"/>
      <point x="366.1" y="557.1999999999999"/>
      <point x="304.99999999999994" y="557.1999999999999" type="curve" smooth="yes"/>
      <point x="100.04000000000003" y="557.1999999999999"/>
      <point x="12.76" y="407.50000000000006"/>
      <point x="12.76" y="175.66" type="curve" smooth="yes"/>
      <point x="12.76" y="76.9"/>
      <point x="55.28" y="13.459999999999999"/>
      <point x="139.46" y="13.459999999999999" type="curve" smooth="yes"/>
      <point x="165.57999999999998" y="13.459999999999999"/>
      <point x="209.74" y="22.879999999999995"/>
      <point x="243.17999999999995" y="42.54000000000001" type="curve"/>
      <point x="239.12" y="8.019999999999994" type="line" smooth="yes"/>
      <point x="231.07999999999998" y="-54.73999999999998"/>
      <point x="200.25999999999996" y="-71.42"/>
      <point x="156.44" y="-71.42" type="curve" smooth="yes"/>
      <point x="118.47999999999999" y="-71.42"/>
      <point x="62.68" y="-58.32000000000001"/>
      <point x="23.28" y="-44.239999999999995" type="curve"/>
    </contour>
    <contour>
      <point x="302.4" y="416.84" type="curve"/>
      <point x="261.58" y="159.44" type="line"/>
      <point x="249.48000000000002" y="152.83999999999997"/>
      <point x="233.58" y="148.23999999999998"/>
      <point x="222.8" y="148.23999999999998" type="curve" smooth="yes"/>
      <point x="195.82000000000002" y="148.23999999999998"/>
      <point x="182.11999999999998" y="167.10000000000002"/>
      <point x="182.11999999999998" y="204.82" type="curve" smooth="yes"/>
      <point x="182.11999999999998" y="307.90000000000003"/>
      <point x="219.55999999999997" y="422.23999999999995"/>
      <point x="272.68" y="422.23999999999995" type="curve" smooth="yes"/>
      <point x="285.7" y="422.23999999999995"/>
      <point x="294.3" y="419.9"/>
    </contour>
  </outline>
</glyph>
<glyph name="h" format="2">
  <advance width="470.32"/>
  <unicode hex="0068"/>
  <note>
16
</note>
  <anchor x="194.148" y="0.0" name="bottom"/>
  <anchor x="251.230864" y="374.3" name="center"/>
  <anchor x="305.136" y="740.0" name="top"/>
  <outline>
    <contour>
      <point x="414.814" y="157.034" type="curve" smooth="yes"/>
      <point x="414.814" y="173.76"/>
      <point x="460.626" y="422.732"/>
      <point x="460.626" y="454.28799999999995" type="curve" smooth="yes"/>
      <point x="460.626" y="516.896"/>
      <point x="426.952" y="557.2"/>
      <point x="355.63200000000006" y="557.2" type="curve" smooth="yes"/>
      <point x="312.574" y="557.2"/>
      <point x="279.902" y="545.076"/>
      <point x="232.38" y="513.83" type="curve"/>
      <point x="269.018" y="740.0" type="line"/>
      <point x="105.89999999999999" y="740.0" type="line"/>
      <point x="-12.174000000000001" y="0.0" type="line"/>
      <point x="151.08800000000002" y="0.0" type="line"/>
      <point x="213.978" y="391.14000000000004" type="line"/>
      <point x="230.462" y="400.65999999999997"/>
      <point x="247.436" y="406.546"/>
      <point x="261.488" y="406.546" type="curve" smooth="yes"/>
      <point x="280.652" y="406.546"/>
      <point x="287.90799999999996" y="396.33000000000004"/>
      <point x="287.90799999999996" y="381.41400000000004" type="curve" smooth="yes"/>
      <point x="287.90799999999996" y="361.116"/>
      <point x="243.026" y="119.428"/>
      <point x="243.026" y="83.08599999999998" type="curve" smooth="yes"/>
      <point x="243.026" y="29.508000000000003"/>
      <point x="283.95000000000005" y="-10.0"/>
      <point x="347.362" y="-10.0" type="curve" smooth="yes"/>
      <point x="376.422" y="-10.0"/>
      <point x="407.482" y="-2.1940000000000004"/>
      <point x="429.86800000000005" y="10.109999999999998" type="curve"/>
      <point x="444.50000000000006" y="144.42800000000003" type="line"/>
      <point x="439.59799999999996" y="142.86800000000002"/>
      <point x="433.96399999999994" y="142.374"/>
      <point x="430.408" y="142.374" type="curve" smooth="yes"/>
      <point x="420.304" y="142.374"/>
      <point x="414.814" y="146.852"/>
    </contour>
  </outline>
</glyph>
<glyph name="i" format="2">
  <advance width="227.78799999999998"/>
  <unicode hex="0069"/>
  <note>
Ajuster pts sur points
8
</note>
  <anchor x="70.244368" y="0.0" name="bottom"/>
  <anchor x="151.892" y="0.0" name="ogonek"/>
  <anchor x="156.87163200000003" y="547.2" name="top"/>
  <outline>
    <contour>
      <point x="-11.132000000000001" y="0.0" type="line"/>
      <point x="151.892" y="0.0" type="line"/>
      <point x="238.3" y="547.2" type="line"/>
      <point x="75.50800000000001" y="547.2" type="line"/>
    </contour>
    <contour>
      <point x="194.63199999999998" y="778.8" type="curve" smooth="yes"/>
      <point x="115.816" y="778.8"/>
      <point x="83.684" y="721.3"/>
      <point x="83.32" y="655.62" type="curve" smooth="yes"/>
      <point x="83.20799999999998" y="608.0880000000001"/>
      <point x="109.564" y="584.152"/>
      <point x="162.492" y="584.152" type="curve" smooth="yes"/>
      <point x="237.32" y="584.152"/>
      <point x="273.296" y="640.62"/>
      <point x="273.68800000000005" y="708.22" type="curve" smooth="yes"/>
      <point x="273.79999999999995" y="755.5519999999999"/>
      <point x="246.84" y="778.8"/>
    </contour>
  </outline>
</glyph>
<glyph name="j" format="2">
  <advance width="234.756"/>
  <unicode hex="006A"/>
  <note>
idem /i
12
</note>
  <outline>
    <contour>
      <point x="201.772" y="778.8" type="curve" smooth="yes"/>
      <point x="122.78399999999999" y="778.8"/>
      <point x="90.88" y="721.3"/>
      <point x="90.51599999999999" y="655.62" type="curve" smooth="yes"/>
      <point x="90.404" y="608.0880000000001"/>
      <point x="117.564" y="584.152"/>
      <point x="170.49200000000002" y="584.152" type="curve" smooth="yes"/>
      <point x="244.548" y="584.152"/>
      <point x="280.38" y="640.62"/>
      <point x="280.772" y="708.22" type="curve" smooth="yes"/>
      <point x="280.884" y="755.5519999999999"/>
      <point x="253.98000000000002" y="778.8"/>
    </contour>
    <contour>
      <point x="246.29999999999995" y="547.2" type="line"/>
      <point x="82.64800000000001" y="547.2" type="line"/>
      <point x="-3.955999999999998" y="4.176000000000001" type="line" smooth="yes"/>
      <point x="-11.652" y="-43.42000000000001"/>
      <point x="-26.451999999999998" y="-66.77600000000001"/>
      <point x="-53.92" y="-66.77600000000001" type="curve" smooth="yes"/>
      <point x="-62.900000000000006" y="-66.77600000000001"/>
      <point x="-74.036" y="-66.32400000000001"/>
      <point x="-86.87599999999999" y="-61.67200000000001" type="curve"/>
      <point x="-125.132" y="-205.952" type="line"/>
      <point x="-93.44800000000001" y="-216.252"/>
      <point x="-57.135999999999996" y="-220.0"/>
      <point x="-34.059999999999995" y="-220.0" type="curve" smooth="yes"/>
      <point x="85.75200000000001" y="-220.0"/>
      <point x="135.096" y="-147.476"/>
      <point x="159.556" y="6.916" type="curve" smooth="yes"/>
    </contour>
  </outline>
</glyph>
<glyph name="l" format="2">
  <advance width="250.716"/>
  <unicode hex="006C"/>
  <anchor x="103.00800000000001" y="0.0" name="bottom"/>
  <anchor x="142.61303199999998" y="374.3" name="center"/>
  <anchor x="187.224" y="740.0" name="top"/>
  <anchor x="296.96000000000004" y="740.0" name="topright"/>
  <outline>
    <contour>
      <point x="105.784" y="740.0" type="line"/>
      <point x="9.988" y="134.86" type="line" smooth="yes"/>
      <point x="7.5840000000000005" y="119.496"/>
      <point x="5.983999999999999" y="103.05199999999999"/>
      <point x="5.983999999999999" y="90.072" type="curve" smooth="yes"/>
      <point x="5.983999999999999" y="25.992"/>
      <point x="39.016" y="-10.0"/>
      <point x="107.196" y="-10.0" type="curve" smooth="yes"/>
      <point x="143.288" y="-10.0"/>
      <point x="183.95999999999998" y="-0.20800000000000032"/>
      <point x="211.45600000000002" y="14.479999999999999" type="curve"/>
      <point x="226.00400000000002" y="150.508" type="line"/>
      <point x="214.10800000000003" y="147.51600000000002"/>
      <point x="205.23999999999998" y="146.26399999999998"/>
      <point x="197.744" y="146.26399999999998" type="curve" smooth="yes"/>
      <point x="184.45999999999998" y="146.26399999999998"/>
      <point x="178.84" y="153.064"/>
      <point x="178.84" y="166.736" type="curve" smooth="yes"/>
      <point x="178.84" y="173.05200000000002"/>
      <point x="179.97599999999997" y="181.13999999999996"/>
      <point x="181.51199999999997" y="190.868" type="curve" smooth="yes"/>
      <point x="268.77599999999995" y="740.0" type="line"/>
    </contour>
  </outline>
</glyph>
<glyph name="m" format="2">
  <advance width="693.432"/>
  <unicode hex="006D"/>
  <note>
24&gt;23 points
un point de trop dans la jointure avec 2e jambage
</note>
  <outline>
    <contour>
      <point x="568.508" y="-10.0" type="curve" smooth="yes"/>
      <point x="597.5120000000001" y="-10.0"/>
      <point x="632.5880000000001" y="-2.2640000000000002"/>
      <point x="653.008" y="10.067999999999998" type="curve"/>
      <point x="667.5840000000001" y="144.17600000000002" type="line"/>
      <point x="662.78" y="142.616"/>
      <point x="657.02" y="142.248"/>
      <point x="653.4920000000001" y="142.248" type="curve" smooth="yes"/>
      <point x="643.416" y="142.248"/>
      <point x="637.7160000000001" y="148.776"/>
      <point x="637.7160000000001" y="161.03600000000003" type="curve" smooth="yes"/>
      <point x="637.7160000000001" y="190.18800000000002"/>
      <point x="683.724" y="427.464"/>
      <point x="683.724" y="458.332" type="curve" smooth="yes"/>
      <point x="683.724" y="515.408"/>
      <point x="649.864" y="557.2"/>
      <point x="577.94" y="557.2" type="curve" smooth="yes"/>
      <point x="533.7280000000001" y="557.2"/>
      <point x="493.06" y="543.6680000000001"/>
      <point x="440.54799999999994" y="503.06" type="curve"/>
      <point x="428.43199999999996" y="536.592"/>
      <point x="400.112" y="557.2"/>
      <point x="351.336" y="557.2" type="curve" smooth="yes"/>
      <point x="310.76" y="557.2"/>
      <point x="267.692" y="544.36"/>
      <point x="216.33200000000002" y="507.224" type="curve"/>
      <point x="222.88" y="547.2" type="line"/>
      <point x="75.224" y="547.2" type="line"/>
      <point x="-11.327999999999998" y="0.0" type="line"/>
      <point x="151.63600000000002" y="0.0" type="line"/>
      <point x="213.992" y="392.968" type="line"/>
      <point x="227.536" y="401.168"/>
      <point x="241.708" y="406.56"/>
      <point x="254.396" y="406.56" type="curve" smooth="yes"/>
      <point x="272.48799999999994" y="406.56"/>
      <point x="280.14" y="396.2"/>
      <point x="280.14" y="380.048" type="curve" smooth="yes"/>
      <point x="280.14" y="367.56399999999996"/>
      <point x="242.66799999999995" y="141.188"/>
      <point x="219.45199999999997" y="0.0" type="curve"/>
      <point x="381.15200000000004" y="0.0" type="line"/>
      <point x="399.036" y="109.62800000000001"/>
      <point x="423.092" y="261.584"/>
      <point x="439.604" y="365.89200000000005" type="curve" smooth="yes"/>
      <point x="440.464" y="372.492"/>
      <point x="442.388" y="385.8"/>
      <point x="443.08000000000004" y="391.25600000000003" type="curve"/>
      <point x="457.52000000000004" y="401.036"/>
      <point x="471.00000000000006" y="406.044"/>
      <point x="484.212" y="406.044" type="curve" smooth="yes"/>
      <point x="503.04799999999994" y="406.044"/>
      <point x="510.27200000000005" y="395.768"/>
      <point x="510.27200000000005" y="380.456" type="curve" smooth="yes"/>
      <point x="510.27200000000005" y="360.092"/>
      <point x="465.57599999999996" y="125.88000000000001"/>
      <point x="465.57599999999996" y="85.136" type="curve" smooth="yes"/>
      <point x="465.57599999999996" y="25.352"/>
      <point x="505.15200000000004" y="-10.0"/>
    </contour>
  </outline>
</glyph>
<glyph name="n" format="2">
  <advance width="470.096"/>
  <unicode hex="006E"/>
  <note>
16
</note>
  <anchor x="202.236" y="0.0" name="bottom"/>
  <anchor x="274.056" y="547.2" name="top"/>
  <outline>
    <contour>
      <point x="75.224" y="547.2" type="line"/>
      <point x="-11.327999999999998" y="0.0" type="line"/>
      <point x="151.46400000000003" y="0.0" type="line"/>
      <point x="214.65200000000002" y="391.28000000000003" type="line"/>
      <point x="229.47199999999998" y="400.284"/>
      <point x="246.924" y="406.672"/>
      <point x="261.948" y="406.672" type="curve" smooth="yes"/>
      <point x="280.85600000000005" y="406.672"/>
      <point x="288.68" y="396.972"/>
      <point x="288.68" y="381.31600000000003" type="curve" smooth="yes"/>
      <point x="288.68" y="352.85999999999996"/>
      <point x="243.812" y="127.60000000000001"/>
      <point x="243.812" y="79.63199999999999" type="curve" smooth="yes"/>
      <point x="243.812" y="30.168000000000003"/>
      <point x="283.192" y="-10.0"/>
      <point x="346.548" y="-10.0" type="curve" smooth="yes"/>
      <point x="375.552" y="-10.0"/>
      <point x="409.252" y="-2.2640000000000002"/>
      <point x="429.672" y="10.067999999999998" type="curve"/>
      <point x="444.24799999999993" y="144.17600000000002" type="line"/>
      <point x="439.44399999999996" y="142.616"/>
      <point x="433.684" y="142.248"/>
      <point x="430.15599999999995" y="142.248" type="curve" smooth="yes"/>
      <point x="420.08" y="142.248"/>
      <point x="414.576" y="146.74"/>
      <point x="414.576" y="156.93599999999998" type="curve" smooth="yes"/>
      <point x="414.576" y="173.70399999999998"/>
      <point x="461.272" y="422.648"/>
      <point x="461.272" y="454.20399999999995" type="curve" smooth="yes"/>
      <point x="461.272" y="519.192"/>
      <point x="423.432" y="557.2"/>
      <point x="355.292" y="557.2" type="curve" smooth="yes"/>
      <point x="310.7" y="557.2"/>
      <point x="263.72" y="543.76"/>
      <point x="216.62" y="507.028" type="curve"/>
      <point x="222.536" y="547.2" type="line"/>
    </contour>
  </outline>
</glyph>
<glyph name="o" format="2">
  <advance width="463.08"/>
  <unicode hex="006F"/>
  <note>
8
</note>
  <anchor x="189.09984" y="0.0" name="bottom"/>
  <anchor x="231.96" y="273.88" name="center"/>
  <anchor x="272.08" y="0.0" name="ogonek"/>
  <anchor x="264.94" y="547.1999999999999" name="top"/>
  <anchor x="378.53999999999996" y="537.4799999999999" name="topright"/>
  <outline>
    <contour>
      <point x="206.4" y="-9.639999999999999" type="curve" smooth="yes"/>
      <point x="377.88" y="-9.639999999999999"/>
      <point x="448.91999999999996" y="170.14"/>
      <point x="448.91999999999996" y="369.40000000000003" type="curve" smooth="yes"/>
      <point x="448.91999999999996" y="494.6000000000001"/>
      <point x="386.14" y="557.7"/>
      <point x="259.42" y="557.7" type="curve" smooth="yes"/>
      <point x="84.22" y="557.7"/>
      <point x="13.459999999999999" y="376.31999999999994"/>
      <point x="13.459999999999999" y="177.79999999999998" type="curve" smooth="yes"/>
      <point x="13.459999999999999" y="53.599999999999994"/>
      <point x="75.82" y="-9.639999999999999"/>
    </contour>
    <contour>
      <point x="211.95999999999998" y="130.26000000000002" type="curve" smooth="yes"/>
      <point x="190.82000000000002" y="129.9"/>
      <point x="175.51999999999998" y="139.82"/>
      <point x="174.79999999999998" y="172.26" type="curve" smooth="yes"/>
      <point x="173.35999999999999" y="235.0"/>
      <point x="200.8" y="417.08"/>
      <point x="250.55999999999997" y="417.8" type="curve" smooth="yes"/>
      <point x="270.64" y="418.16"/>
      <point x="286.72" y="408.38000000000005"/>
      <point x="287.44000000000005" y="376.92" type="curve" smooth="yes"/>
      <point x="288.88000000000005" y="311.65999999999997"/>
      <point x="261.44" y="130.98000000000002"/>
    </contour>
  </outline>
</glyph>
<glyph name="p" format="2">
  <advance width="471.93"/>
  <unicode hex="0070"/>
  <note>
14 point
</note>
  <outline>
    <contour>
      <point x="-44.044000000000004" y="-210.0" type="line"/>
      <point x="118.03399999999999" y="-210.0" type="line"/>
      <point x="151.118" y="-1.608" type="line"/>
      <point x="167.09799999999996" y="-5.084"/>
      <point x="189.406" y="-8.709999999999999"/>
      <point x="218.46200000000002" y="-8.709999999999999" type="curve" smooth="yes"/>
      <point x="382.30000000000007" y="-8.709999999999999"/>
      <point x="461.00800000000004" y="170.26"/>
      <point x="461.00800000000004" y="371.91400000000004" type="curve" smooth="yes"/>
      <point x="461.00800000000004" y="494.188"/>
      <point x="421.16599999999994" y="557.2"/>
      <point x="337.584" y="557.2" type="curve" smooth="yes"/>
      <point x="287.41400000000004" y="557.2"/>
      <point x="253.816" y="535.124"/>
      <point x="224.93" y="512.61" type="curve"/>
      <point x="223.92" y="548.32" type="line"/>
      <point x="75.62" y="548.32" type="line"/>
    </contour>
    <contour>
      <point x="202.78599999999997" y="127.13799999999999" type="curve" smooth="yes"/>
      <point x="192.388" y="127.13799999999999"/>
      <point x="182.12" y="128.69799999999998"/>
      <point x="173.03799999999998" y="131.828" type="curve"/>
      <point x="214.16200000000003" y="392.57" type="line"/>
      <point x="226.11" y="399.192"/>
      <point x="242.422" y="404.58200000000005"/>
      <point x="257.61400000000003" y="404.58200000000005" type="curve" smooth="yes"/>
      <point x="282.84" y="404.58200000000005"/>
      <point x="294.94800000000004" y="389.29"/>
      <point x="294.94800000000004" y="343.51599999999996" type="curve" smooth="yes"/>
      <point x="294.94800000000004" y="245.19"/>
      <point x="261.8" y="127.13799999999999"/>
    </contour>
  </outline>
</glyph>
<glyph name="q" format="2">
  <advance width="474.04400000000004"/>
  <unicode hex="0071"/>
  <note>
12
</note>
  <outline>
    <contour>
      <point x="481.6859999999999" y="528.9639999999999" type="line"/>
      <point x="438.814" y="541.918"/>
      <point x="366.45000000000005" y="557.2"/>
      <point x="293.75" y="557.2" type="curve" smooth="yes"/>
      <point x="107.75399999999999" y="557.2"/>
      <point x="10.931999999999999" y="397.502"/>
      <point x="10.931999999999999" y="165.76399999999998" type="curve" smooth="yes"/>
      <point x="10.931999999999999" y="51.162"/>
      <point x="56.73600000000001" y="-10.0"/>
      <point x="145.424" y="-10.0" type="curve" smooth="yes"/>
      <point x="178.478" y="-10.0"/>
      <point x="209.01000000000002" y="2.962"/>
      <point x="238.028" y="24.326" type="curve"/>
      <point x="201.06600000000003" y="-210.0" type="line"/>
      <point x="362.62" y="-210.0" type="line"/>
    </contour>
    <contour>
      <point x="299.86600000000004" y="412.47400000000005" type="curve"/>
      <point x="258.658" y="153.602" type="line"/>
      <point x="245.364" y="145.672"/>
      <point x="230.26600000000002" y="140.898"/>
      <point x="216.76600000000002" y="140.898" type="curve" smooth="yes"/>
      <point x="193.484" y="140.898"/>
      <point x="178.51600000000002" y="157.54399999999998"/>
      <point x="178.51600000000002" y="195.762" type="curve" smooth="yes"/>
      <point x="178.51600000000002" y="288.632"/>
      <point x="209.62999999999997" y="417.59400000000005"/>
      <point x="269.26800000000003" y="417.59400000000005" type="curve" smooth="yes"/>
      <point x="281.91" y="417.59400000000005"/>
      <point x="291.28" y="415.4920000000001"/>
    </contour>
  </outline>
</glyph>
<glyph name="r" format="2">
  <advance width="328.82"/>
  <unicode hex="0072"/>
  <anchor x="68.192" y="0.0" name="bottom"/>
  <anchor x="238.98000000000002" y="547.2" name="top"/>
  <outline>
    <contour>
      <point x="221.13199999999998" y="547.2" type="line"/>
      <point x="75.56800000000001" y="547.2" type="line"/>
      <point x="-11.499999999999998" y="0.0" type="line"/>
      <point x="149.54399999999998" y="0.0" type="line"/>
      <point x="208.01600000000002" y="360.98400000000004" type="line"/>
      <point x="234.88400000000001" y="377.988"/>
      <point x="255.24" y="383.168"/>
      <point x="276.752" y="383.168" type="curve" smooth="yes"/>
      <point x="289.336" y="383.168"/>
      <point x="308.05199999999996" y="381.028"/>
      <point x="324.768" y="376.0" type="curve"/>
      <point x="375.59999999999997" y="547.4839999999999" type="line"/>
      <point x="357.704" y="555.1759999999999"/>
      <point x="341.66" y="557.2"/>
      <point x="323.844" y="557.2" type="curve" smooth="yes"/>
      <point x="289.728" y="557.2"/>
      <point x="258.628" y="539.6959999999999"/>
      <point x="212.876" y="494.508" type="curve"/>
    </contour>
  </outline>
</glyph>
<glyph name="s" format="2">
  <advance width="414.46000000000004"/>
  <unicode hex="0073"/>
  <anchor x="170.04" y="0.0" name="bottom"/>
  <anchor x="258.58000000000004" y="547.1999999999999" name="top"/>
  <outline>
    <contour>
      <point x="-23.82" y="28.0" type="line"/>
      <point x="24.24" y="5.46"/>
      <point x="80.6" y="-10.0"/>
      <point x="165.05999999999997" y="-10.0" type="curve" smooth="yes"/>
      <point x="297.79999999999995" y="-10.0"/>
      <point x="386.72" y="42.300000000000004"/>
      <point x="386.72" y="185.96" type="curve" smooth="yes"/>
      <point x="386.72" y="375.28000000000003"/>
      <point x="170.36" y="315.34"/>
      <point x="170.36" y="387.52000000000004" type="curve" smooth="yes"/>
      <point x="170.36" y="409.09999999999997"/>
      <point x="193.64000000000001" y="415.58000000000004"/>
      <point x="247.96" y="415.58000000000004" type="curve" smooth="yes"/>
      <point x="288.36" y="415.58000000000004"/>
      <point x="336.78000000000003" y="405.72"/>
      <point x="376.56" y="390.84000000000003" type="curve"/>
      <point x="415.08000000000004" y="528.16" type="line"/>
      <point x="378.96000000000004" y="544.68"/>
      <point x="318.91999999999996" y="557.1999999999999"/>
      <point x="256.46" y="557.1999999999999" type="curve" smooth="yes"/>
      <point x="99.89999999999999" y="557.1999999999999"/>
      <point x="29.82" y="478.16"/>
      <point x="29.82" y="368.32000000000005" type="curve" smooth="yes"/>
      <point x="29.82" y="184.24"/>
      <point x="246.9" y="230.88000000000002"/>
      <point x="246.9" y="155.61999999999998" type="curve" smooth="yes"/>
      <point x="246.9" y="134.76"/>
      <point x="223.06" y="127.74000000000001"/>
      <point x="168.48" y="127.74000000000001" type="curve" smooth="yes"/>
      <point x="116.53999999999999" y="127.74000000000001"/>
      <point x="56.68" y="142.61999999999998"/>
      <point x="19.22" y="160.0" type="curve"/>
    </contour>
  </outline>
</glyph>
<glyph name="t" format="2">
  <advance width="310.05600000000004"/>
  <unicode hex="0074"/>
  <anchor x="136.64" y="0.0" name="bottom"/>
  <anchor x="153.024" y="281.496" name="center"/>
  <anchor x="204.02" y="657.432" name="top"/>
  <anchor x="337.796" y="767.34" name="topright"/>
  <outline>
    <contour>
      <point x="274.276" y="149.14000000000001" type="line"/>
      <point x="255.888" y="145.064"/>
      <point x="243.84" y="142.47199999999998"/>
      <point x="232.61599999999996" y="142.47199999999998" type="curve" smooth="yes"/>
      <point x="207.09599999999998" y="142.47199999999998"/>
      <point x="198.18800000000002" y="156.52399999999997"/>
      <point x="198.18800000000002" y="178.272" type="curve" smooth="yes"/>
      <point x="198.18800000000002" y="185.712"/>
      <point x="199.12800000000001" y="193.98"/>
      <point x="200.296" y="203.444" type="curve" smooth="yes"/>
      <point x="234.40400000000002" y="410.608" type="line"/>
      <point x="317.932" y="410.608" type="line"/>
      <point x="341.572" y="547.2" type="line"/>
      <point x="257.52799999999996" y="547.2" type="line"/>
      <point x="274.77200000000005" y="657.432" type="line"/>
      <point x="133.404" y="657.432" type="line"/>
      <point x="96.11200000000001" y="547.2" type="line"/>
      <point x="43.924" y="538.792" type="line"/>
      <point x="21.6" y="411.29599999999994" type="line"/>
      <point x="71.956" y="411.29599999999994" type="line"/>
      <point x="35.956" y="187.44799999999998" type="line" smooth="yes"/>
      <point x="31.236" y="158.552"/>
      <point x="27.284" y="121.4"/>
      <point x="27.284" y="99.57199999999999" type="curve" smooth="yes"/>
      <point x="27.284" y="12.544"/>
      <point x="82.36000000000001" y="-10.0"/>
      <point x="140.06400000000002" y="-10.0" type="curve" smooth="yes"/>
      <point x="184.544" y="-10.0"/>
      <point x="223.184" y="-1.7279999999999998"/>
      <point x="260.03999999999996" y="14.636000000000001" type="curve"/>
    </contour>
  </outline>
</glyph>
<glyph name="u" format="2">
  <advance width="468.68"/>
  <unicode hex="0075"/>
  <note>
15
</note>
  <anchor x="193.836" y="0.0" name="bottom"/>
  <anchor x="427.32" y="14.792" name="ogonek"/>
  <anchor x="274.910528" y="547.2" name="top"/>
  <anchor x="453.288" y="547.2" name="topright"/>
  <outline>
    <contour>
      <point x="117.756" y="-10.0" type="curve" smooth="yes"/>
      <point x="164.55599999999998" y="-10.0"/>
      <point x="204.32799999999997" y="8.639999999999999"/>
      <point x="249.03199999999998" y="48.07599999999999" type="curve"/>
      <point x="261.236" y="15.155999999999999"/>
      <point x="295.38" y="-10.0"/>
      <point x="340.5319999999999" y="-10.0" type="curve" smooth="yes"/>
      <point x="370.548" y="-10.0"/>
      <point x="405.46" y="0.16400000000000037"/>
      <point x="427.32" y="16.684" type="curve"/>
      <point x="441.46799999999996" y="143.6" type="line"/>
      <point x="435.43199999999996" y="141.524"/>
      <point x="429.828" y="141.10399999999998"/>
      <point x="426.95599999999996" y="141.10399999999998" type="curve" smooth="yes"/>
      <point x="417.452" y="141.10399999999998"/>
      <point x="412.63199999999995" y="147.228"/>
      <point x="412.63199999999995" y="160.57600000000002" type="curve" smooth="yes"/>
      <point x="412.63199999999995" y="166.32799999999997"/>
      <point x="413.856" y="176.39999999999998"/>
      <point x="473.928" y="547.2" type="curve"/>
      <point x="312.828" y="547.2" type="line"/>
      <point x="249.464" y="154.168" type="line"/>
      <point x="234.34" y="144.548"/>
      <point x="218.64800000000002" y="138.80800000000002"/>
      <point x="202.42400000000004" y="138.80800000000002" type="curve" smooth="yes"/>
      <point x="184.45600000000002" y="138.80800000000002"/>
      <point x="174.84400000000002" y="149.57999999999998"/>
      <point x="176.22" y="168.26" type="curve" smooth="yes"/>
      <point x="188.604" y="254.844"/>
      <point x="205.6" y="358.984"/>
      <point x="236.076" y="547.2" type="curve"/>
      <point x="74.31599999999999" y="547.2" type="line"/>
      <point x="26.119999999999997" y="247.856"/>
      <point x="5.344000000000001" y="146.45600000000002"/>
      <point x="5.344000000000001" y="93.6" type="curve" smooth="yes"/>
      <point x="5.344000000000001" y="32.784000000000006"/>
      <point x="43.484" y="-10.0"/>
    </contour>
  </outline>
</glyph>
<glyph name="v" format="2">
  <advance width="438.544"/>
  <unicode hex="0076"/>
  <outline>
    <contour>
      <point x="265.508" y="-0.2480000000000001" type="line"/>
      <point x="372.864" y="207.08800000000002"/>
      <point x="457.596" y="374.53999999999996"/>
      <point x="467.212" y="547.2" type="curve"/>
      <point x="298.04" y="547.2" type="line"/>
      <point x="295.24399999999997" y="419.476"/>
      <point x="253.96800000000002" y="306.744"/>
      <point x="190.052" y="150.84" type="curve"/>
      <point x="207.896" y="547.48" type="line"/>
      <point x="35.284" y="547.1840000000001" type="line"/>
      <point x="62.72" y="-0.2480000000000001" type="line"/>
    </contour>
  </outline>
</glyph>
<glyph name="w" format="2">
  <advance width="660.968"/>
  <unicode hex="0077"/>
  <note>
15
</note>
  <anchor x="286.984" y="0.0" name="bottom"/>
  <anchor x="356.94" y="547.2" name="top"/>
  <outline>
    <contour>
      <point x="501.63199999999995" y="0.0" type="line"/>
      <point x="611.2479999999999" y="229.81599999999997"/>
      <point x="683.5" y="391.444"/>
      <point x="684.996" y="547.2" type="curve"/>
      <point x="527.032" y="547.2" type="line"/>
      <point x="521.472" y="422.668"/>
      <point x="489.524" y="311.09999999999997"/>
      <point x="428.008" y="153.764" type="curve"/>
      <point x="458.836" y="540.792" type="line"/>
      <point x="277.032" y="540.792" type="line"/>
      <point x="241.71199999999996" y="404.67199999999997"/>
      <point x="205.664" y="282.248"/>
      <point x="168.424" y="153.49599999999998" type="curve"/>
      <point x="202.73599999999996" y="547.48" type="line"/>
      <point x="37.648" y="547.2120000000001" type="line"/>
      <point x="38.916" y="0.0" type="line"/>
      <point x="240.128" y="0.0" type="line"/>
      <point x="271.29600000000005" y="102.83999999999999"/>
      <point x="304.39599999999996" y="216.70800000000003"/>
      <point x="331.14799999999997" y="316.252" type="curve"/>
      <point x="312.26" y="0.0" type="line"/>
    </contour>
  </outline>
</glyph>
<glyph name="x" format="2">
  <advance width="472.116"/>
  <unicode hex="0078"/>
  <outline>
    <contour>
      <point x="328.946" y="547.2" type="line"/>
      <point x="324.19" y="474.19"/>
      <point x="303.538" y="428.492"/>
      <point x="253.03599999999997" y="353.142" type="curve"/>
      <point x="238.754" y="548.392" type="line"/>
      <point x="58.864" y="547.3480000000001" type="line"/>
      <point x="111.35799999999999" y="279.54599999999994" type="line"/>
      <point x="46.662" y="195.506"/>
      <point x="-9.389999999999999" y="105.21600000000001"/>
      <point x="-25.560000000000002" y="0.0" type="curve"/>
      <point x="151.92000000000002" y="0.0" type="line"/>
      <point x="165.452" y="82.62"/>
      <point x="196.996" y="144.602"/>
      <point x="230.51999999999998" y="199.12" type="curve"/>
      <point x="248.026" y="-0.7080000000000002" type="line"/>
      <point x="430.79" y="0.062" type="line"/>
      <point x="371.56199999999995" y="273.77" type="line"/>
      <point x="452.716" y="379.866"/>
      <point x="490.386" y="486.80800000000005"/>
      <point x="501.182" y="547.2" type="curve"/>
    </contour>
  </outline>
</glyph>
<glyph name="y" format="2">
  <advance width="448.18"/>
  <unicode hex="0079"/>
  <anchor x="321.02000000000004" y="-58.80000000000001" name="bottom"/>
  <anchor x="260.06" y="547.1999999999999" name="top"/>
  <outline>
    <contour>
      <point x="328.35999999999996" y="546.88" type="line"/>
      <point x="327.05999999999995" y="428.56"/>
      <point x="269.62" y="291.64"/>
      <point x="201.72000000000003" y="140.66" type="curve"/>
      <point x="188.64" y="548.6" type="line"/>
      <point x="35.4" y="547.4599999999999" type="line"/>
      <point x="83.28" y="-1.72" type="line"/>
      <point x="130.06" y="-1.72" type="line"/>
      <point x="100.08" y="-63.300000000000004"/>
      <point x="62.51999999999999" y="-126.20000000000002"/>
      <point x="10.32" y="-209.14" type="curve"/>
      <point x="158.36" y="-211.4" type="line"/>
      <point x="321.15999999999997" y="96.34"/>
      <point x="463.9" y="337.41999999999996"/>
      <point x="479.74" y="547.1800000000001" type="curve"/>
    </contour>
  </outline>
</glyph>
<glyph name="z" format="2">
  <advance width="422.572"/>
  <unicode hex="007A"/>
  <anchor x="176.796" y="0.0" name="bottom"/>
  <anchor x="210.99200000000002" y="275.0" name="center"/>
  <anchor x="255.536" y="547.2" name="top"/>
  <outline>
    <contour>
      <point x="-17.32" y="0.0" type="line"/>
      <point x="362.37600000000003" y="0.0" type="line"/>
      <point x="384.468" y="140.62" type="line"/>
      <point x="193.488" y="140.62" type="line"/>
      <point x="411.024" y="412.41200000000003" type="line"/>
      <point x="437.432" y="547.2" type="line"/>
      <point x="73.00800000000001" y="547.2" type="line"/>
      <point x="50.056" y="405.20399999999995" type="line"/>
      <point x="226.10799999999998" y="405.20399999999995" type="line"/>
      <point x="2.2239999999999993" y="125.5" type="line"/>
    </contour>
  </outline>
</glyph>
<glyph name="braceleft" format="2">
  <advance width="284.032"/>
  <unicode hex="007B"/>
  <outline>
    <contour>
      <point x="2.120000000000001" y="-88.17999999999999" type="curve" smooth="yes"/>
      <point x="2.120000000000001" y="-174.44"/>
      <point x="49.296" y="-210.0"/>
      <point x="111.188" y="-210.0" type="curve" smooth="yes"/>
      <point x="186.808" y="-210.0" type="line"/>
      <point x="209.416" y="-78.2" type="line"/>
      <point x="179.03199999999998" y="-78.2" type="line" smooth="yes"/>
      <point x="156.836" y="-78.2"/>
      <point x="147.28400000000002" y="-64.14000000000001"/>
      <point x="147.28400000000002" y="-39.623999999999995" type="curve" smooth="yes"/>
      <point x="147.28400000000002" y="34.784"/>
      <point x="202.42000000000002" y="95.388"/>
      <point x="202.42000000000002" y="169.864" type="curve" smooth="yes"/>
      <point x="202.42000000000002" y="206.64"/>
      <point x="191.45600000000002" y="240.38400000000001"/>
      <point x="159.856" y="265.98" type="curve"/>
      <point x="216.636" y="303.344"/>
      <point x="244.82000000000002" y="364.572"/>
      <point x="244.82000000000002" y="430.14000000000004" type="curve" smooth="yes"/>
      <point x="244.82000000000002" y="461.02000000000004"/>
      <point x="239.152" y="484.996"/>
      <point x="239.152" y="520.08" type="curve" smooth="yes"/>
      <point x="239.152" y="558.208"/>
      <point x="250.72" y="608.1999999999999"/>
      <point x="291.92" y="608.1999999999999" type="curve" smooth="yes"/>
      <point x="320.48" y="608.1999999999999" type="line"/>
      <point x="341.712" y="740.0" type="line"/>
      <point x="266.652" y="740.0" type="line" smooth="yes"/>
      <point x="146.88000000000002" y="740.0"/>
      <point x="99.98000000000002" y="628.048"/>
      <point x="99.98000000000002" y="512.708" type="curve" smooth="yes"/>
      <point x="99.98000000000002" y="472.848"/>
      <point x="107.53999999999999" y="445.556"/>
      <point x="107.53999999999999" y="412.536" type="curve" smooth="yes"/>
      <point x="107.53999999999999" y="375.24"/>
      <point x="99.292" y="334.572"/>
      <point x="65.256" y="334.572" type="curve" smooth="yes"/>
      <point x="50.912000000000006" y="334.572" type="line"/>
      <point x="28.992000000000004" y="197.064" type="line"/>
      <point x="43.14" y="197.064" type="line" smooth="yes"/>
      <point x="62.464" y="197.064"/>
      <point x="68.74799999999999" y="186.39200000000002"/>
      <point x="68.74799999999999" y="167.16" type="curve" smooth="yes"/>
      <point x="68.74799999999999" y="101.312"/>
      <point x="2.120000000000001" y="14.48"/>
    </contour>
  </outline>
</glyph>
<glyph name="bar" format="2">
  <advance width="190.95200000000003"/>
  <unicode hex="007C"/>
  <outline>
    <contour>
      <point x="245.29999999999998" y="790.688" type="line"/>
      <point x="109.48000000000002" y="790.688" type="line"/>
      <point x="-50.035999999999994" y="-210.0" type="line"/>
      <point x="86.3" y="-210.0" type="line"/>
    </contour>
  </outline>
</glyph>
<glyph name="braceright" format="2">
  <advance width="284.032"/>
  <unicode hex="007D"/>
  <outline>
    <contour>
      <point x="278.884" y="618.1800000000001" type="curve" smooth="yes"/>
      <point x="278.884" y="705.128"/>
      <point x="231.01999999999998" y="740.688"/>
      <point x="169.12800000000001" y="740.688" type="curve" smooth="yes"/>
      <point x="93.508" y="740.688" type="line"/>
      <point x="70.89999999999999" y="608.8879999999999" type="line"/>
      <point x="94.404" y="608.8879999999999" type="line" smooth="yes"/>
      <point x="117.28800000000001" y="608.8879999999999"/>
      <point x="127.528" y="594.1400000000001"/>
      <point x="127.528" y="569.6239999999999" type="curve" smooth="yes"/>
      <point x="127.528" y="493.84"/>
      <point x="72.39200000000001" y="448.004"/>
      <point x="72.39200000000001" y="359.08" type="curve" smooth="yes"/>
      <point x="72.39200000000001" y="324.36800000000005"/>
      <point x="82.66799999999999" y="290.62399999999997"/>
      <point x="115.64399999999999" y="265.716" type="curve"/>
      <point x="58.864000000000004" y="227.66400000000002"/>
      <point x="29.992" y="167.812"/>
      <point x="29.992" y="101.55600000000001" type="curve" smooth="yes"/>
      <point x="29.992" y="70.67600000000002"/>
      <point x="35.660000000000004" y="45.692"/>
      <point x="35.660000000000004" y="11.984000000000002" type="curve" smooth="yes"/>
      <point x="35.660000000000004" y="-26.144"/>
      <point x="24.78" y="-77.512"/>
      <point x="-16.419999999999998" y="-77.512" type="curve" smooth="yes"/>
      <point x="-39.476" y="-77.512" type="line"/>
      <point x="-60.708000000000006" y="-210.0" type="line"/>
      <point x="13.664000000000001" y="-210.0" type="line" smooth="yes"/>
      <point x="133.436" y="-210.0"/>
      <point x="180.336" y="-89.104"/>
      <point x="180.336" y="4.219999999999999" type="curve" smooth="yes"/>
      <point x="180.336" y="62.656000000000006"/>
      <point x="172.776" y="93.708"/>
      <point x="172.776" y="121.91199999999999" type="curve" smooth="yes"/>
      <point x="172.776" y="157.83200000000002"/>
      <point x="182.4" y="197.12400000000002"/>
      <point x="215.06" y="197.12400000000002" type="curve" smooth="yes"/>
      <point x="229.404" y="197.12400000000002" type="line"/>
      <point x="251.324" y="333.94399999999996" type="line"/>
      <point x="237.176" y="333.94399999999996" type="line" smooth="yes"/>
      <point x="217.85200000000003" y="333.94399999999996"/>
      <point x="211.568" y="344.616"/>
      <point x="211.568" y="363.848" type="curve" smooth="yes"/>
      <point x="211.568" y="430.384"/>
      <point x="278.884" y="505.888"/>
    </contour>
  </outline>
</glyph>
<glyph name="asciitilde" format="2">
  <advance width="449.00399999999996"/>
  <unicode hex="007E"/>
  <outline>
    <contour>
      <point x="388.60799999999995" y="236.02" type="curve"/>
      <point x="410.84000000000003" y="382.252" type="line"/>
      <point x="383.21599999999995" y="357.28000000000003"/>
      <point x="356.41200000000003" y="347.896"/>
      <point x="326.388" y="347.896" type="curve" smooth="yes"/>
      <point x="250.64" y="347.896"/>
      <point x="227.212" y="422.44000000000005"/>
      <point x="160.08" y="422.44000000000005" type="curve" smooth="yes"/>
      <point x="118.42" y="422.44000000000005"/>
      <point x="81.78399999999999" y="398.628"/>
      <point x="73.392" y="389.5" type="curve"/>
      <point x="50.300000000000004" y="243.24" type="line"/>
      <point x="63.848" y="255.4"/>
      <point x="97.992" y="276.192"/>
      <point x="136.95999999999998" y="276.192" type="curve" smooth="yes"/>
      <point x="210.11200000000002" y="276.192"/>
      <point x="232.592" y="201.648"/>
      <point x="306.476" y="201.648" type="curve" smooth="yes"/>
      <point x="333.768" y="201.648"/>
      <point x="362.468" y="212.072"/>
    </contour>
  </outline>
</glyph>
<glyph name="cent" format="2">
  <advance width="526.512"/>
  <unicode hex="00A2"/>
  <outline>
    <contour>
      <point x="158.644" y="-105.516" type="line"/>
      <point x="293.08799999999997" y="-105.516" type="line"/>
      <point x="308.948" y="-4.296" type="line"/>
      <point x="344.908" y="-0.9480000000000013"/>
      <point x="378.164" y="5.252000000000001"/>
      <point x="403.69599999999997" y="15.264000000000001" type="curve"/>
      <point x="403.22" y="169.63599999999997" type="line"/>
      <point x="368.92" y="162.864"/>
      <point x="342.024" y="157.556"/>
      <point x="318.18" y="157.556" type="curve" smooth="yes"/>
      <point x="272.368" y="157.556"/>
      <point x="254.904" y="186.12"/>
      <point x="254.904" y="225.42000000000002" type="curve" smooth="yes"/>
      <point x="254.904" y="303.456"/>
      <point x="286.79200000000003" y="387.872"/>
      <point x="352.708" y="387.872" type="curve" smooth="yes"/>
      <point x="378.348" y="387.872"/>
      <point x="399.072" y="384.56800000000004"/>
      <point x="428.984" y="376.392" type="curve"/>
      <point x="479.128" y="537.8960000000001" type="line"/>
      <point x="454.84" y="545.3839999999999"/>
      <point x="430.724" y="551.1279999999999"/>
      <point x="398.168" y="553.648" type="curve"/>
      <point x="414.312" y="651.5120000000001" type="line"/>
      <point x="279.86800000000005" y="651.5120000000001" type="line"/>
      <point x="261.832" y="540.72" type="line"/>
      <point x="136.924" y="484.78400000000005"/>
      <point x="81.792" y="307.80400000000003"/>
      <point x="81.792" y="164.14" type="curve" smooth="yes"/>
      <point x="81.792" y="73.53599999999999"/>
      <point x="115.828" y="24.008"/>
      <point x="175.396" y="3.5559999999999996" type="curve"/>
    </contour>
  </outline>
</glyph>
<glyph name="sterling" format="2">
  <advance width="526.68"/>
  <unicode hex="00A3"/>
  <outline>
    <contour>
      <point x="32.696000000000005" y="0.0" type="line"/>
      <point x="410.45599999999996" y="0.0" type="line"/>
      <point x="433.23599999999993" y="145.7" type="line"/>
      <point x="245.73599999999996" y="145.7" type="line"/>
      <point x="283.632" y="187.71200000000002"/>
      <point x="310.29600000000005" y="233.62400000000005"/>
      <point x="310.29600000000005" y="298.17999999999995" type="curve" smooth="yes"/>
      <point x="310.29600000000005" y="341.82399999999996"/>
      <point x="293.608" y="398.84"/>
      <point x="293.608" y="443.77200000000005" type="curve" smooth="yes"/>
      <point x="293.608" y="516.344"/>
      <point x="331.896" y="549.8199999999999"/>
      <point x="388.42400000000004" y="549.8199999999999" type="curve" smooth="yes"/>
      <point x="418.12" y="549.8199999999999"/>
      <point x="442.23199999999997" y="546.544"/>
      <point x="471.21200000000005" y="534.9839999999999" type="curve"/>
      <point x="517.476" y="676.1039999999999" type="line"/>
      <point x="476.452" y="698.7"/>
      <point x="430.144" y="710.0"/>
      <point x="376.212" y="710.0" type="curve" smooth="yes"/>
      <point x="230.62800000000001" y="710.0"/>
      <point x="135.86399999999998" y="596.008"/>
      <point x="135.86399999999998" y="467.548" type="curve" smooth="yes"/>
      <point x="135.86399999999998" y="397.45200000000006"/>
      <point x="159.57999999999998" y="340.228"/>
      <point x="159.57999999999998" y="283.864" type="curve" smooth="yes"/>
      <point x="159.57999999999998" y="211.284"/>
      <point x="109.58000000000001" y="154.036"/>
      <point x="49.464" y="111.30000000000001" type="curve"/>
    </contour>
    <contour>
      <point x="75.872" y="310.51200000000006" type="line"/>
      <point x="411.54799999999994" y="310.512" type="line"/>
      <point x="425.28399999999993" y="400.192" type="line"/>
      <point x="89.60400000000001" y="400.192" type="line"/>
    </contour>
  </outline>
</glyph>
<glyph name="currency" format="2">
  <advance width="416.50800000000004"/>
  <unicode hex="00A4"/>
  <outline>
    <contour>
      <point x="91.67999999999999" y="96.832" type="line"/>
      <point x="154.76799999999997" y="156.696" type="line"/>
      <point x="164.572" y="152.17600000000002"/>
      <point x="176.47199999999998" y="150.464"/>
      <point x="189.78799999999998" y="150.464" type="curve" smooth="yes"/>
      <point x="202.044" y="150.464"/>
      <point x="214.01600000000002" y="152.204"/>
      <point x="225.28799999999998" y="156.18" type="curve"/>
      <point x="270.62399999999997" y="96.832" type="line"/>
      <point x="375.492" y="196.488" type="line"/>
      <point x="338.5" y="245.516" type="line"/>
      <point x="348.788" y="263.91200000000003"/>
      <point x="355.43600000000004" y="284.44800000000004"/>
      <point x="356.812" y="306.148" type="curve" smooth="yes"/>
      <point x="358.18800000000005" y="319.284"/>
      <point x="357.176" y="332.744"/>
      <point x="354.776" y="345.55600000000004" type="curve"/>
      <point x="407.22800000000007" y="394.584" type="line"/>
      <point x="333.82" y="494.23999999999995" type="line"/>
      <point x="271.736" y="436.956" type="line"/>
      <point x="261.504" y="440.96000000000004"/>
      <point x="249.376" y="443.5"/>
      <point x="236.26" y="443.5" type="curve" smooth="yes"/>
      <point x="222.256" y="443.5"/>
      <point x="209.108" y="440.272"/>
      <point x="196.804" y="436.44" type="curve"/>
      <point x="154.704" y="494.23999999999995" type="line"/>
      <point x="48.684000000000005" y="394.584" type="line"/>
      <point x="86.516" y="343.088" type="line"/>
      <point x="77.23200000000001" y="326.672"/>
      <point x="71.412" y="307.96799999999996"/>
      <point x="70.036" y="288.36" type="curve" smooth="yes"/>
      <point x="68.66" y="274.53999999999996"/>
      <point x="68.984" y="260.452"/>
      <point x="71.55600000000001" y="247.95600000000002" type="curve"/>
      <point x="16.776000000000003" y="196.488" type="line"/>
    </contour>
    <contour>
      <point x="206.85999999999999" y="254.74399999999997" type="curve" smooth="yes"/>
      <point x="185.41199999999998" y="254.74399999999997"/>
      <point x="173.032" y="269.116"/>
      <point x="175.096" y="292.27599999999995" type="curve" smooth="yes"/>
      <point x="177.15999999999997" y="317.98"/>
      <point x="196.196" y="338.532"/>
      <point x="219.844" y="338.532" type="curve" smooth="yes"/>
      <point x="241.57600000000002" y="338.532"/>
      <point x="253.156" y="321.78000000000003"/>
      <point x="251.09199999999998" y="300.084" type="curve" smooth="yes"/>
      <point x="249.02800000000002" y="272.6"/>
      <point x="230.33199999999997" y="254.74399999999997"/>
    </contour>
  </outline>
</glyph>
<glyph name="yen" format="2">
  <advance width="549.0"/>
  <unicode hex="00A5"/>
  <outline>
    <contour>
      <point x="77.02" y="293.67999999999995" type="line"/>
      <point x="204.88" y="293.67999999999995" type="line"/>
      <point x="199.2" y="255.50000000000003" type="line"/>
      <point x="71.26" y="255.50000000000003" type="line"/>
      <point x="58.1" y="171.08" type="line"/>
      <point x="186.18" y="171.08" type="line"/>
      <point x="158.48000000000002" y="0.0" type="line"/>
      <point x="304.66" y="0.0" type="line"/>
      <point x="333.22" y="171.08" type="line"/>
      <point x="460.7" y="171.08" type="line"/>
      <point x="473.58" y="255.50000000000003" type="line"/>
      <point x="345.38" y="255.50000000000003" type="line"/>
      <point x="351.06" y="293.67999999999995" type="line"/>
      <point x="479.98" y="293.67999999999995" type="line"/>
      <point x="493.0" y="378.18" type="line"/>
      <point x="364.72" y="378.18" type="line"/>
      <point x="581.0400000000001" y="699.28" type="line"/>
      <point x="424.82" y="701.12" type="line"/>
      <point x="306.8" y="477.08" type="line"/>
      <point x="259.90000000000003" y="701.14" type="line"/>
      <point x="102.46" y="698.78" type="line"/>
      <point x="218.62" y="378.18" type="line"/>
      <point x="90.17999999999999" y="378.18" type="line"/>
    </contour>
  </outline>
</glyph>
<glyph name="brokenbar" format="2">
  <advance width="194.504"/>
  <unicode hex="00A6"/>
  <outline>
    <contour>
      <point x="183.88000000000002" y="391.0" type="line"/>
      <point x="249.428" y="790.688" type="line"/>
      <point x="113.608" y="790.688" type="line"/>
      <point x="48.06" y="391.0" type="line"/>
    </contour>
    <contour>
      <point x="14.824000000000002" y="190.68800000000002" type="line"/>
      <point x="-49.92399999999999" y="-210.0" type="line"/>
      <point x="85.724" y="-210.0" type="line"/>
      <point x="151.16000000000003" y="190.68800000000002" type="line"/>
    </contour>
  </outline>
</glyph>
<glyph name="section" format="2">
  <advance width="457.224"/>
  <unicode hex="00A7"/>
  <outline>
    <contour>
      <point x="15.168" y="-20.08800000000001" type="curve"/>
      <point x="-43.348" y="-184.868" type="line"/>
      <point x="-3.3439999999999994" y="-206.172"/>
      <point x="63.668" y="-220.0"/>
      <point x="102.1" y="-220.0" type="curve" smooth="yes"/>
      <point x="298.7" y="-220.0"/>
      <point x="409.948" y="-23.656"/>
      <point x="409.948" y="157.424" type="curve" smooth="yes"/>
      <point x="409.948" y="289.668"/>
      <point x="333.156" y="387.47999999999996"/>
      <point x="333.156" y="492.316" type="curve" smooth="yes"/>
      <point x="333.156" y="536.4639999999999"/>
      <point x="354.116" y="571.6519999999999"/>
      <point x="390.05600000000004" y="571.6519999999999" type="curve" smooth="yes"/>
      <point x="402.052" y="571.6519999999999"/>
      <point x="409.984" y="567.1679999999999"/>
      <point x="423.372" y="560.1999999999999" type="curve"/>
      <point x="481.36" y="725.884" type="line"/>
      <point x="452.512" y="742.0920000000001"/>
      <point x="395.75600000000003" y="749.688"/>
      <point x="362.90799999999996" y="749.688" type="curve" smooth="yes"/>
      <point x="150.488" y="749.688"/>
      <point x="47.492" y="566.924"/>
      <point x="47.492" y="383.08" type="curve" smooth="yes"/>
      <point x="47.492" y="231.24"/>
      <point x="125.052" y="109.79599999999999"/>
      <point x="125.052" y="14.063999999999998" type="curve" smooth="yes"/>
      <point x="125.052" y="-14.528000000000002"/>
      <point x="109.96000000000001" y="-43.716000000000015"/>
      <point x="78.816" y="-43.716000000000015" type="curve" smooth="yes"/>
      <point x="58.024" y="-43.716000000000015"/>
      <point x="36.044" y="-36.879999999999995"/>
    </contour>
    <contour>
      <point x="300.136" y="646.176" type="curve"/>
      <point x="239.49200000000002" y="600.4879999999999"/>
      <point x="219.492" y="530.0840000000001"/>
      <point x="219.492" y="468.484" type="curve" smooth="yes"/>
      <point x="219.492" y="354.188"/>
      <point x="289.436" y="238.9"/>
      <point x="289.436" y="127.36400000000002" type="curve" smooth="yes"/>
      <point x="289.436" y="15.352000000000004"/>
      <point x="232.416" y="-117.37199999999999"/>
      <point x="120.624" y="-126.30799999999999" type="curve"/>
      <point x="206.97199999999998" y="-96.26"/>
      <point x="240.404" y="-13.844"/>
      <point x="240.404" y="60.17199999999998" type="curve" smooth="yes"/>
      <point x="240.404" y="174.196"/>
      <point x="169.536" y="286.21999999999997"/>
      <point x="169.536" y="402.74" type="curve" smooth="yes"/>
      <point x="169.536" y="502.23199999999997"/>
      <point x="208.012" y="610.56"/>
    </contour>
  </outline>
</glyph>
<glyph name="copyright" format="2">
  <advance width="687.4240000000001"/>
  <unicode hex="00A9"/>
  <outline>
    <contour>
      <point x="325.068" y="-10.200000000000001" type="curve" smooth="yes"/>
      <point x="557.752" y="-10.744"/>
      <point x="662.452" y="169.492"/>
      <point x="662.452" y="403.036" type="curve" smooth="yes"/>
      <point x="662.452" y="593.596"/>
      <point x="571.752" y="709.092"/>
      <point x="387.31199999999995" y="709.636" type="curve" smooth="yes"/>
      <point x="154.72" y="710.18"/>
      <point x="48.284" y="530.9359999999999"/>
      <point x="48.284" y="296.6" type="curve" smooth="yes"/>
      <point x="48.284" y="106.352"/>
      <point x="139.15999999999997" y="-9.656"/>
    </contour>
    <contour>
      <point x="341.69200000000006" y="130.568" type="curve" smooth="yes"/>
      <point x="374.188" y="130.568"/>
      <point x="410.396" y="138.264"/>
      <point x="433.068" y="149.956" type="curve"/>
      <point x="430.524" y="236.04399999999998" type="line"/>
      <point x="412.816" y="229.968"/>
      <point x="391.468" y="225.936"/>
      <point x="374.068" y="225.936" type="curve" smooth="yes"/>
      <point x="339.84000000000003" y="225.936"/>
      <point x="319.28400000000005" y="253.004"/>
      <point x="319.28400000000005" y="300.46799999999996" type="curve" smooth="yes"/>
      <point x="319.28400000000005" y="387.544"/>
      <point x="351.468" y="464.516"/>
      <point x="404.932" y="464.516" type="curve" smooth="yes"/>
      <point x="421.992" y="464.516"/>
      <point x="437.47999999999996" y="462.328"/>
      <point x="453.80400000000003" y="456.54" type="curve"/>
      <point x="482.44399999999996" y="555.224" type="line"/>
      <point x="465.056" y="562.932"/>
      <point x="440.24" y="568.9719999999999"/>
      <point x="405.26800000000003" y="568.9719999999999" type="curve" smooth="yes"/>
      <point x="304.132" y="568.9719999999999"/>
      <point x="213.772" y="461.34"/>
      <point x="213.772" y="298.592" type="curve" smooth="yes"/>
      <point x="213.772" y="186.252"/>
      <point x="261.69199999999995" y="130.568"/>
    </contour>
    <contour>
      <point x="331.284" y="44.403999999999996" type="curve" smooth="yes"/>
      <point x="179.14" y="44.403999999999996"/>
      <point x="107.428" y="135.52"/>
      <point x="107.428" y="297.76000000000005" type="curve" smooth="yes"/>
      <point x="107.428" y="495.644"/>
      <point x="184.15200000000002" y="655.088"/>
      <point x="381.14" y="655.088" type="curve" smooth="yes"/>
      <point x="530.5639999999999" y="655.088"/>
      <point x="603.3079999999999" y="563.9159999999999"/>
      <point x="603.3079999999999" y="402.22" type="curve" smooth="yes"/>
      <point x="603.3079999999999" y="204.73600000000002"/>
      <point x="527.872" y="44.403999999999996"/>
    </contour>
  </outline>
</glyph>
<glyph name="ordfeminine" format="2">
  <advance width="327.44800000000004"/>
  <unicode hex="00AA"/>
  <outline>
    <contour>
      <point x="22.844" y="236.57199999999997" type="line"/>
      <point x="293.02000000000004" y="236.57199999999997" type="line"/>
      <point x="305.996" y="321.25600000000003" type="line"/>
      <point x="35.82" y="321.25600000000003" type="line"/>
    </contour>
    <component base="a.superior" xOffset="8.504"/>
  </outline>
</glyph>
<glyph name="logicalnot" format="2">
  <advance width="446.03999999999996"/>
  <unicode hex="00AC"/>
  <outline>
    <contour>
      <point x="50.412" y="306.65200000000004" type="line"/>
      <point x="263.68" y="306.65200000000004" type="line"/>
      <point x="243.952" y="174.076" type="line"/>
      <point x="384.356" y="174.076" type="line"/>
      <point x="427.552" y="447.63200000000006" type="line"/>
      <point x="73.88" y="447.63200000000006" type="line"/>
    </contour>
  </outline>
</glyph>
<glyph name="registered" format="2">
  <advance width="618.4239999999999"/>
  <unicode hex="00AE"/>
  <outline>
    <contour>
      <point x="310.752" y="208.45600000000002" type="curve" smooth="yes"/>
      <point x="505.16799999999995" y="208.45600000000002"/>
      <point x="627.984" y="373.024"/>
      <point x="627.984" y="616.9040000000001" type="curve" smooth="yes"/>
      <point x="627.984" y="787.528"/>
      <point x="547.212" y="893.168"/>
      <point x="394.128" y="893.168" type="curve" smooth="yes"/>
      <point x="199.712" y="893.168"/>
      <point x="77.952" y="728.1"/>
      <point x="77.952" y="484.71999999999997" type="curve" smooth="yes"/>
      <point x="77.952" y="314.15200000000004"/>
      <point x="157.61199999999997" y="208.45600000000002"/>
    </contour>
    <contour>
      <point x="315.536" y="259.872" type="curve" smooth="yes"/>
      <point x="194.37199999999999" y="259.872"/>
      <point x="131.55599999999998" y="348.216"/>
      <point x="131.55599999999998" y="482.97999999999996" type="curve" smooth="yes"/>
      <point x="131.55599999999998" y="700.26"/>
      <point x="228.304" y="841.308"/>
      <point x="389.4" y="841.308" type="curve" smooth="yes"/>
      <point x="510.564" y="841.308"/>
      <point x="574.38" y="753.408"/>
      <point x="574.38" y="618.144" type="curve" smooth="yes"/>
      <point x="574.38" y="400.864"/>
      <point x="476.576" y="259.872"/>
    </contour>
    <contour>
      <point x="208.80800000000002" y="359.38" type="line"/>
      <point x="302.52" y="359.38" type="line"/>
      <point x="321.568" y="480.05199999999996" type="line"/>
      <point x="327.624" y="479.62800000000004"/>
      <point x="333.448" y="479.14799999999997"/>
      <point x="341.18799999999993" y="479.31600000000003" type="curve"/>
      <point x="363.01599999999996" y="491.64" type="line"/>
      <point x="441.748" y="493.556"/>
      <point x="498.53599999999994" y="550.448"/>
      <point x="498.53599999999994" y="647.5680000000001" type="curve" smooth="yes"/>
      <point x="498.53599999999994" y="719.2680000000001"/>
      <point x="459.148" y="757.3960000000001"/>
      <point x="380.264" y="757.3960000000001" type="curve" smooth="yes"/>
      <point x="345.46000000000004" y="757.3960000000001"/>
      <point x="311.88" y="755.0640000000001"/>
      <point x="271.324" y="750.72" type="curve"/>
    </contour>
    <contour>
      <point x="350.84799999999996" y="553.38" type="curve" smooth="yes"/>
      <point x="345.99199999999996" y="553.38"/>
      <point x="341.44" y="554.192"/>
      <point x="333.26800000000003" y="554.992" type="curve"/>
      <point x="352.392" y="672.484" type="line"/>
      <point x="364.132" y="673.6080000000001"/>
      <point x="368.968" y="674.6080000000001"/>
      <point x="377.8999999999999" y="674.6080000000001" type="curve" smooth="yes"/>
      <point x="397.484" y="674.6080000000001"/>
      <point x="405.08" y="662.948"/>
      <point x="405.08" y="643.1279999999999" type="curve" smooth="yes"/>
      <point x="405.08" y="595.3"/>
      <point x="385.776" y="553.38"/>
    </contour>
    <contour>
      <point x="434.884" y="354.128" type="curve" smooth="yes"/>
      <point x="440.468" y="354.128"/>
      <point x="454.476" y="356.00399999999996"/>
      <point x="461.15999999999997" y="359.068" type="curve"/>
      <point x="472.804" y="456.484" type="line"/>
      <point x="470.548" y="456.35999999999996"/>
      <point x="468.404" y="456.35999999999996"/>
      <point x="466.37199999999996" y="456.35999999999996" type="curve" smooth="yes"/>
      <point x="446.644" y="456.35999999999996"/>
      <point x="426.20000000000005" y="476.976"/>
      <point x="414.64000000000004" y="521.436" type="curve"/>
      <point x="330.448" y="497.74799999999993" type="line"/>
      <point x="363.03200000000004" y="371.824"/>
      <point x="393.524" y="354.128"/>
    </contour>
  </outline>
</glyph>
<glyph name="degree" format="2">
  <advance width="313.08"/>
  <unicode hex="00B0"/>
  <outline>
    <contour>
      <point x="175.35999999999999" y="382.05600000000004" type="curve" smooth="yes"/>
      <point x="282.91200000000003" y="382.05600000000004"/>
      <point x="333.88800000000003" y="495.608"/>
      <point x="333.88800000000003" y="589.8639999999999" type="curve" smooth="yes"/>
      <point x="333.88800000000003" y="657.192"/>
      <point x="304.52000000000004" y="712.1759999999999"/>
      <point x="224.328" y="712.1759999999999" type="curve" smooth="yes"/>
      <point x="117.29599999999999" y="712.1759999999999"/>
      <point x="65.168" y="599.552"/>
      <point x="65.168" y="505.35200000000003" type="curve" smooth="yes"/>
      <point x="65.168" y="435.552"/>
      <point x="97.808" y="382.05600000000004"/>
    </contour>
    <contour>
      <point x="191.68800000000002" y="497.62399999999997" type="curve" smooth="yes"/>
      <point x="175.67999999999998" y="497.62399999999997"/>
      <point x="167.38400000000001" y="510.5280000000001"/>
      <point x="167.38400000000001" y="530.6560000000001" type="curve" smooth="yes"/>
      <point x="167.38400000000001" y="560.3439999999999"/>
      <point x="180.448" y="593.856"/>
      <point x="206.67999999999998" y="593.856" type="curve" smooth="yes"/>
      <point x="223.432" y="593.856"/>
      <point x="231.672" y="580.7280000000001"/>
      <point x="231.672" y="561.232" type="curve" smooth="yes"/>
      <point x="231.672" y="532.232"/>
      <point x="217.86400000000003" y="497.62399999999997"/>
    </contour>
  </outline>
</glyph>
<glyph name="plusminus" format="2">
  <advance width="446.608"/>
  <unicode hex="00B1"/>
  <outline>
    <contour>
      <point x="358.42400000000004" y="10.187999999999999" type="line"/>
      <point x="381.892" y="158.16000000000003" type="line"/>
      <point x="275.012" y="158.16000000000003" type="line"/>
      <point x="291.47200000000004" y="260.81600000000003" type="line"/>
      <point x="398.24" y="260.81600000000003" type="line"/>
      <point x="421.70799999999997" y="408.788" type="line"/>
      <point x="314.94" y="408.788" type="line"/>
      <point x="332.632" y="517.78" type="line"/>
      <point x="191.54" y="517.78" type="line"/>
      <point x="173.616" y="408.788" type="line"/>
      <point x="67.14" y="408.788" type="line"/>
      <point x="43.672" y="260.81600000000003" type="line"/>
      <point x="150.38" y="260.81600000000003" type="line"/>
      <point x="133.57600000000002" y="158.16000000000003" type="line"/>
      <point x="27.324" y="158.16000000000003" type="line"/>
      <point x="3.8560000000000003" y="10.187999999999999" type="line"/>
    </contour>
  </outline>
</glyph>
<glyph name="uni00B2" format="2">
  <advance width="303.03999999999996"/>
  <unicode hex="00B2"/>
  <outline>
    <contour>
      <point x="39.58" y="369.56399999999996" type="line"/>
      <point x="289.428" y="369.56399999999996" type="line"/>
      <point x="303.48400000000004" y="447.624" type="line"/>
      <point x="185.88799999999998" y="447.624" type="line"/>
      <point x="260.144" y="519.6759999999999"/>
      <point x="326.348" y="591.148"/>
      <point x="326.348" y="682.016" type="curve" smooth="yes"/>
      <point x="326.348" y="740.4639999999999"/>
      <point x="282.11199999999997" y="773.7040000000001"/>
      <point x="221.144" y="773.7040000000001" type="curve" smooth="yes"/>
      <point x="175.24" y="773.7040000000001"/>
      <point x="125.412" y="758.592"/>
      <point x="90.41999999999999" y="736.436" type="curve"/>
      <point x="109.56800000000001" y="642.908" type="line"/>
      <point x="132.62800000000001" y="655.964"/>
      <point x="152.62800000000001" y="663.464"/>
      <point x="173.72" y="663.464" type="curve" smooth="yes"/>
      <point x="194.244" y="663.464"/>
      <point x="204.912" y="650.548"/>
      <point x="204.912" y="631.404" type="curve" smooth="yes"/>
      <point x="204.6" y="579.4799999999999"/>
      <point x="122.50800000000001" y="484.90000000000003"/>
      <point x="50.948" y="437.916" type="curve"/>
    </contour>
  </outline>
</glyph>
<glyph name="uni00B3" format="2">
  <advance width="322.33"/>
  <unicode hex="00B3"/>
  <outline>
    <contour>
      <point x="39.84" y="393.63" type="line"/>
      <point x="71.09" y="374.93"/>
      <point x="108.11" y="364.86"/>
      <point x="156.24" y="364.86" type="curve" smooth="yes"/>
      <point x="238.45000000000002" y="364.86"/>
      <point x="324.67" y="405.99"/>
      <point x="324.67" y="500.55" type="curve" smooth="yes"/>
      <point x="324.67" y="542.5699999999999"/>
      <point x="303.28999999999996" y="564.9799999999999"/>
      <point x="277.64" y="577.21" type="curve"/>
      <point x="320.03999999999996" y="600.31"/>
      <point x="349.7" y="632.56"/>
      <point x="349.7" y="686.28" type="curve" smooth="yes"/>
      <point x="349.7" y="740.21"/>
      <point x="302.07" y="775.15"/>
      <point x="227.63" y="775.15" type="curve" smooth="yes"/>
      <point x="181.2" y="775.15"/>
      <point x="134.26999999999998" y="763.27"/>
      <point x="103.39999999999999" y="745.05" type="curve"/>
      <point x="115.84" y="667.55" type="line"/>
      <point x="136.19" y="674.9599999999999"/>
      <point x="165.21" y="679.9599999999999"/>
      <point x="189.29" y="679.9599999999999" type="curve" smooth="yes"/>
      <point x="222.92" y="679.9599999999999"/>
      <point x="239.82" y="667.21"/>
      <point x="239.82" y="648.59" type="curve" smooth="yes"/>
      <point x="239.82" y="625.42"/>
      <point x="217.28" y="608.36"/>
      <point x="182.35999999999999" y="608.36" type="curve" smooth="yes"/>
      <point x="140.74" y="608.36" type="line"/>
      <point x="127.56" y="536.5999999999999" type="line"/>
      <point x="169.25" y="536.5999999999999" type="line" smooth="yes"/>
      <point x="208.98" y="536.5999999999999"/>
      <point x="223.1" y="522.55"/>
      <point x="223.1" y="503.07" type="curve" smooth="yes"/>
      <point x="223.1" y="476.12"/>
      <point x="198.57000000000002" y="455.32"/>
      <point x="154.88" y="455.32" type="curve" smooth="yes"/>
      <point x="128.17" y="455.32"/>
      <point x="104.38" y="460.95"/>
      <point x="83.3" y="472.28" type="curve"/>
    </contour>
  </outline>
</glyph>
<glyph name="uni00B5" format="2">
  <advance width="470.27599999999995"/>
  <unicode hex="00B5"/>
  <outline>
    <contour>
      <point x="-44.763999999999996" y="-210.0" type="line"/>
      <point x="116.53999999999999" y="-210.0" type="line"/>
      <point x="149.58" y="-3.7479999999999993" type="line"/>
      <point x="153.472" y="-7.839999999999999"/>
      <point x="158.92" y="-10.0"/>
      <point x="166.65200000000002" y="-10.0" type="curve" smooth="yes"/>
      <point x="193.84400000000002" y="-10.0"/>
      <point x="226.22000000000003" y="3.824"/>
      <point x="256.82000000000005" y="39.82" type="curve"/>
      <point x="269.024" y="13.78"/>
      <point x="300.416" y="-10.0"/>
      <point x="342.128" y="-10.0" type="curve" smooth="yes"/>
      <point x="372.144" y="-10.0"/>
      <point x="407.05600000000004" y="0.16400000000000037"/>
      <point x="428.91600000000005" y="16.684" type="curve"/>
      <point x="443.06399999999996" y="143.6" type="line"/>
      <point x="437.028" y="141.524"/>
      <point x="431.42400000000004" y="141.10399999999998"/>
      <point x="428.552" y="141.10399999999998" type="curve" smooth="yes"/>
      <point x="419.048" y="141.10399999999998"/>
      <point x="414.228" y="147.228"/>
      <point x="414.228" y="160.57600000000002" type="curve" smooth="yes"/>
      <point x="414.228" y="166.32799999999997"/>
      <point x="415.45200000000006" y="176.39999999999998"/>
      <point x="475.52400000000006" y="547.2" type="curve"/>
      <point x="314.42400000000004" y="547.2" type="line"/>
      <point x="251.06" y="154.168" type="line"/>
      <point x="235.93600000000004" y="144.548"/>
      <point x="219.34799999999998" y="138.80800000000002"/>
      <point x="203.79600000000002" y="138.80800000000002" type="curve" smooth="yes"/>
      <point x="185.828" y="138.80800000000002"/>
      <point x="176.328" y="149.01999999999998"/>
      <point x="177.704" y="167.70000000000002" type="curve" smooth="yes"/>
      <point x="193.52800000000002" y="254.732"/>
      <point x="209.548" y="374.216"/>
      <point x="237.67200000000003" y="547.2" type="curve"/>
      <point x="75.912" y="547.2" type="line"/>
    </contour>
  </outline>
</glyph>
<glyph name="paragraph" format="2">
  <advance width="560.848"/>
  <unicode hex="00B6"/>
  <outline>
    <contour>
      <point x="322.432" y="-210.0" type="line"/>
      <point x="445.868" y="-210.0" type="line"/>
      <point x="598.1039999999999" y="740.0" type="line"/>
      <point x="474.668" y="740.0" type="line"/>
    </contour>
    <contour>
      <point x="237.51999999999998" y="344.892" type="line"/>
      <point x="216.552" y="350.69599999999997"/>
      <point x="199.212" y="381.48400000000004"/>
      <point x="199.212" y="430.864" type="curve" smooth="yes"/>
      <point x="199.212" y="498.292"/>
      <point x="223.212" y="588.7160000000001"/>
      <point x="291.83599999999996" y="590.848" type="curve"/>
      <point x="164.272" y="-210.0" type="line"/>
      <point x="287.708" y="-210.0" type="line"/>
      <point x="439.944" y="740.0" type="line"/>
      <point x="359.464" y="740.0" type="line" smooth="yes"/>
      <point x="165.42000000000002" y="740.0"/>
      <point x="59.55200000000001" y="603.208"/>
      <point x="59.55200000000001" y="422.096" type="curve" smooth="yes"/>
      <point x="59.55200000000001" y="325.044"/>
      <point x="105.172" y="256.61199999999997"/>
      <point x="203.28" y="236.02399999999997" type="curve"/>
    </contour>
  </outline>
</glyph>
<glyph name="periodcentered" format="2">
  <advance width="213.03599999999997"/>
  <unicode hex="00B7"/>
  <outline>
    <contour>
      <point x="22.426000000000002" y="289.37" type="curve" smooth="yes"/>
      <point x="22.146" y="241.254"/>
      <point x="44.86" y="217.61399999999998"/>
      <point x="97.34999999999998" y="217.61399999999998" type="curve" smooth="yes"/>
      <point x="175.204" y="217.61399999999998"/>
      <point x="203.79399999999998" y="290.278"/>
      <point x="204.07399999999998" y="352.928" type="curve" smooth="yes"/>
      <point x="204.35399999999998" y="399.9700000000001"/>
      <point x="181.56999999999996" y="423.68000000000006"/>
      <point x="130.01000000000002" y="423.68000000000006" type="curve" smooth="yes"/>
      <point x="53.22599999999999" y="423.68000000000006"/>
      <point x="22.706" y="351.30400000000003"/>
    </contour>
  </outline>
</glyph>
<glyph name="uni00B9" format="2">
  <advance width="284.204"/>
  <unicode hex="00B9"/>
  <outline>
    <contour>
      <point x="42.192" y="370.0" type="line"/>
      <point x="280.456" y="370.0" type="line"/>
      <point x="295.872" y="454.74" type="line"/>
      <point x="234.824" y="454.74" type="line"/>
      <point x="288.8" y="767.536" type="line"/>
      <point x="231.90400000000002" y="767.536" type="line"/>
      <point x="91.27200000000002" y="721.588" type="line"/>
      <point x="96.008" y="625.144" type="line"/>
      <point x="159.72799999999998" y="646.856" type="line"/>
      <point x="126.148" y="454.74" type="line"/>
      <point x="56.316" y="454.74" type="line"/>
    </contour>
  </outline>
</glyph>
<glyph name="ordmasculine" format="2">
  <advance width="304.436"/>
  <unicode hex="00BA"/>
  <outline>
    <contour>
      <point x="22.964" y="236.57199999999997" type="line"/>
      <point x="271.808" y="236.57199999999997" type="line"/>
      <point x="284.67199999999997" y="321.25600000000003" type="line"/>
      <point x="35.828" y="321.25600000000003" type="line"/>
    </contour>
    <component base="o.superior" xOffset="9.120000000000001"/>
  </outline>
</glyph>
<glyph name="AE" format="2">
  <advance width="717.63"/>
  <unicode hex="00C6"/>
  <anchor x="324.338824" y="0.0" name="bottom"/>
  <anchor x="455.17800000000005" y="700.0" name="top"/>
  <outline>
    <contour>
      <point x="267.998" y="0.0" type="line"/>
      <point x="656.716" y="0.0" type="line"/>
      <point x="680.2120000000001" y="147.338" type="line"/>
      <point x="451.604" y="147.338" type="line"/>
      <point x="472.438" y="280.24800000000005" type="line"/>
      <point x="665.112" y="280.24800000000005" type="line"/>
      <point x="688.1720000000001" y="417.526" type="line"/>
      <point x="494.85200000000003" y="417.526" type="line"/>
      <point x="515.6160000000001" y="549.432" type="line"/>
      <point x="731.5079999999999" y="549.432" type="line"/>
      <point x="756.5060000000001" y="700.0" type="line"/>
      <point x="266.09799999999996" y="700.0" type="line"/>
      <point x="-43.02" y="0.0" type="line"/>
      <point x="131.962" y="0.0" type="line"/>
      <point x="193.03799999999998" y="138.92" type="line"/>
      <point x="289.684" y="138.92" type="line"/>
    </contour>
    <contour>
      <point x="248.66400000000002" y="282.834" type="line"/>
      <point x="358.8179999999999" y="577.724" type="line"/>
      <point x="312.032" y="282.834" type="line"/>
    </contour>
  </outline>
</glyph>
<glyph name="multiply" format="2">
  <advance width="422.08000000000004"/>
  <unicode hex="00D7"/>
  <outline>
    <contour>
      <point x="110.232" y="134.25" type="line"/>
      <point x="204.298" y="227.004" type="line"/>
      <point x="270.35600000000005" y="131.946" type="line"/>
      <point x="379.30199999999996" y="238.54999999999998" type="line"/>
      <point x="317.14000000000004" y="329.642" type="line"/>
      <point x="409.104" y="421.57" type="line"/>
      <point x="330.18" y="526.3100000000001" type="line"/>
      <point x="236.38999999999996" y="433.26800000000003" type="line"/>
      <point x="169.628" y="528.038" type="line"/>
      <point x="60.468" y="423.00999999999993" type="line"/>
      <point x="123.91400000000002" y="330.564" type="line"/>
      <point x="30.517999999999997" y="238.13" type="line"/>
    </contour>
  </outline>
</glyph>
<glyph name="Oslash" format="2">
  <advance width="537.1600000000001"/>
  <unicode hex="00D8"/>
  <anchor x="330.72" y="700.0" name="top"/>
  <outline>
    <contour>
      <point x="585.22" y="713.6" type="line"/>
      <point x="491.05999999999995" y="713.6" type="line"/>
      <point x="413.54" y="607.5" type="line"/>
      <point x="408.24" y="608.8599999999999" type="line"/>
      <point x="111.16" y="173.42" type="line"/>
      <point x="106.71999999999998" y="175.27999999999997" type="line"/>
      <point x="-23.36" y="-6.44" type="line"/>
      <point x="70.58000000000001" y="-6.44" type="line"/>
      <point x="153.74" y="106.32" type="line"/>
      <point x="159.04" y="104.96" type="line"/>
      <point x="450.3399999999999" y="531.94" type="line"/>
      <point x="454.42" y="530.08" type="line"/>
    </contour>
    <contour>
      <point x="240.0" y="-8.280000000000001" type="curve" smooth="yes"/>
      <point x="445.21999999999997" y="-8.280000000000001"/>
      <point x="532.1400000000001" y="230.44"/>
      <point x="536.1" y="463.26" type="curve" smooth="yes"/>
      <point x="538.98" y="624.02"/>
      <point x="468.5" y="708.28"/>
      <point x="321.64" y="708.28" type="curve" smooth="yes"/>
      <point x="119.64000000000001" y="708.28"/>
      <point x="29.500000000000004" y="469.7"/>
      <point x="25.540000000000003" y="236.73999999999998" type="curve" smooth="yes"/>
      <point x="22.660000000000004" y="75.83999999999999"/>
      <point x="93.14" y="-8.280000000000001"/>
    </contour>
    <contour>
      <point x="251.96000000000004" y="137.48000000000002" type="curve" smooth="yes"/>
      <point x="207.42" y="137.48000000000002"/>
      <point x="185.70000000000002" y="162.46"/>
      <point x="185.70000000000002" y="227.01999999999998" type="curve" smooth="yes"/>
      <point x="185.70000000000002" y="353.22"/>
      <point x="239.64" y="562.5200000000001"/>
      <point x="312.32" y="562.5200000000001" type="curve" smooth="yes"/>
      <point x="355.22" y="562.5200000000001"/>
      <point x="376.8" y="537.6800000000001"/>
      <point x="376.8" y="473.98" type="curve" smooth="yes"/>
      <point x="376.8" y="354.02"/>
      <point x="321.92" y="137.48000000000002"/>
    </contour>
  </outline>
</glyph>
<glyph name="Thorn" format="2">
  <advance width="519.1400000000001"/>
  <unicode hex="00DE"/>
  <outline>
    <contour>
      <point x="-7.799999999999999" y="0.0" type="line"/>
      <point x="157.83" y="0.0" type="line"/>
      <point x="173.14" y="94.92" type="line"/>
      <point x="212.01" y="91.27000000000001"/>
      <point x="224.01" y="90.84"/>
      <point x="249.74999999999997" y="90.84" type="curve" smooth="yes"/>
      <point x="423.25" y="90.84"/>
      <point x="523.17" y="223.38"/>
      <point x="523.17" y="426.46000000000004" type="curve" smooth="yes"/>
      <point x="523.17" y="555.64"/>
      <point x="464.98999999999995" y="628.14"/>
      <point x="306.03999999999996" y="628.14" type="curve" smooth="yes"/>
      <point x="295.15" y="628.14"/>
      <point x="279.69" y="627.57"/>
      <point x="258.78" y="627.0799999999999" type="curve"/>
      <point x="270.40999999999997" y="700.0" type="line"/>
      <point x="104.78" y="700.0" type="line"/>
    </contour>
    <contour>
      <point x="241.73000000000002" y="235.76" type="curve" smooth="yes"/>
      <point x="227.48" y="235.76"/>
      <point x="217.81" y="235.89999999999998"/>
      <point x="198.07" y="238.33" type="curve"/>
      <point x="234.85000000000002" y="479.87" type="line"/>
      <point x="263.64" y="482.58"/>
      <point x="272.8" y="483.58"/>
      <point x="291.86" y="483.58" type="curve" smooth="yes"/>
      <point x="339.62" y="483.58"/>
      <point x="357.97" y="455.90999999999997"/>
      <point x="357.97" y="411.14" type="curve" smooth="yes"/>
      <point x="357.97" y="304.59999999999997"/>
      <point x="317.71" y="235.76"/>
    </contour>
  </outline>
</glyph>
<glyph name="germandbls" format="2">
  <advance width="616.71"/>
  <unicode hex="00DF"/>
  <outline>
    <contour>
      <point x="16.464" y="-0.7880000000000027" type="line" smooth="yes"/>
      <point x="8.696000000000002" y="-46.952000000000005"/>
      <point x="-7.2860000000000005" y="-66.69000000000003"/>
      <point x="-32.891999999999996" y="-66.69000000000003" type="curve" smooth="yes"/>
      <point x="-42.518" y="-66.69000000000003"/>
      <point x="-52.508" y="-65.98200000000001"/>
      <point x="-66.99799999999999" y="-61.414000000000016" type="curve"/>
      <point x="-107.47200000000001" y="-201.898" type="line"/>
      <point x="-76.05799999999999" y="-214.276"/>
      <point x="-45.23800000000001" y="-220.0"/>
      <point x="-11.615999999999998" y="-220.0" type="curve" smooth="yes"/>
      <point x="97.678" y="-220.0"/>
      <point x="153.76399999999998" y="-150.66"/>
      <point x="176.002" y="-9.869999999999997" type="curve" smooth="yes"/>
      <point x="255.514" y="499.80600000000004" type="line" smooth="yes"/>
      <point x="266.27" y="566.754"/>
      <point x="308.554" y="603.434"/>
      <point x="378.28999999999996" y="603.434" type="curve" smooth="yes"/>
      <point x="427.896" y="603.434"/>
      <point x="445.998" y="588.144"/>
      <point x="445.998" y="568.5980000000001" type="curve" smooth="yes"/>
      <point x="445.998" y="546.5319999999999"/>
      <point x="434.606" y="535.0340000000001"/>
      <point x="376.51" y="511.086" type="curve" smooth="yes"/>
      <point x="310.824" y="483.38"/>
      <point x="270.87399999999997" y="439.22200000000004"/>
      <point x="270.87399999999997" y="353.22400000000005" type="curve" smooth="yes"/>
      <point x="270.87399999999997" y="274.712"/>
      <point x="312.40000000000003" y="239.454"/>
      <point x="373.436" y="214.6" type="curve" smooth="yes"/>
      <point x="424.856" y="193.22"/>
      <point x="435.88199999999995" y="185.446"/>
      <point x="435.88199999999995" y="165.22400000000002" type="curve" smooth="yes"/>
      <point x="435.88199999999995" y="147.14000000000001"/>
      <point x="412.08" y="129.82199999999997"/>
      <point x="371.70599999999996" y="129.82199999999997" type="curve" smooth="yes"/>
      <point x="332.12399999999997" y="129.82199999999997"/>
      <point x="283.73400000000004" y="138.466"/>
      <point x="247.432" y="149.81199999999998" type="curve"/>
      <point x="212.134" y="19.154000000000003" type="line"/>
      <point x="252.44600000000003" y="2.508"/>
      <point x="304.112" y="-9.856"/>
      <point x="368.556" y="-9.856" type="curve" smooth="yes"/>
      <point x="523.9760000000001" y="-9.856"/>
      <point x="600.162" y="60.402"/>
      <point x="600.162" y="181.91400000000002" type="curve" smooth="yes"/>
      <point x="600.162" y="263.26"/>
      <point x="561.8240000000001" y="302.904"/>
      <point x="497.962" y="326.248" type="curve" smooth="yes"/>
      <point x="438.05199999999996" y="348.368"/>
      <point x="425.46799999999996" y="356.38199999999995"/>
      <point x="425.46799999999996" y="375.08" type="curve" smooth="yes"/>
      <point x="425.46799999999996" y="393.182"/>
      <point x="437.044" y="401.672"/>
      <point x="497.006" y="422.352" type="curve" smooth="yes"/>
      <point x="569.6260000000001" y="446.836"/>
      <point x="610.2" y="491.01800000000003"/>
      <point x="610.2" y="582.284" type="curve" smooth="yes"/>
      <point x="610.2" y="686.004"/>
      <point x="530.2" y="750.0"/>
      <point x="386.004" y="750.0" type="curve" smooth="yes"/>
      <point x="210.702" y="750.0"/>
      <point x="122.634" y="671.254"/>
      <point x="99.78" y="525.2420000000001" type="curve" smooth="yes"/>
      <point x="98.37600000000002" y="515.0300000000001" type="line"/>
      <point x="44.078" y="505.88000000000005" type="line"/>
      <point x="22.374000000000002" y="377.92800000000005" type="line"/>
      <point x="75.812" y="377.92800000000005" type="line"/>
    </contour>
  </outline>
</glyph>
<glyph name="ae" format="2">
  <advance width="695.0400000000001"/>
  <unicode hex="00E6"/>
  <anchor x="312.29999999999995" y="0.0" name="bottom"/>
  <anchor x="396.7" y="547.1999999999999" name="top"/>
  <outline>
    <contour>
      <point x="138.99999999999997" y="-10.0" type="curve" smooth="yes"/>
      <point x="175.2" y="-10.0"/>
      <point x="207.04000000000002" y="1.06"/>
      <point x="242.79999999999998" y="37.06" type="curve"/>
      <point x="236.07999999999998" y="-1.1200000000000006" type="line"/>
      <point x="380.98" y="-1.1200000000000006" type="line"/>
      <point x="388.52" y="45.540000000000006" type="line"/>
      <point x="416.00000000000006" y="12.640000000000004"/>
      <point x="457.54" y="-8.64"/>
      <point x="509.67999999999995" y="-8.64" type="curve" smooth="yes"/>
      <point x="555.04" y="-8.64"/>
      <point x="602.82" y="1.7199999999999998"/>
      <point x="644.56" y="25.380000000000006" type="curve"/>
      <point x="626.8799999999999" y="164.0" type="line"/>
      <point x="580.18" y="145.56"/>
      <point x="538.1800000000001" y="137.64"/>
      <point x="507.6" y="137.64" type="curve" smooth="yes"/>
      <point x="455.78" y="137.64"/>
      <point x="423.64" y="156.92"/>
      <point x="423.64" y="224.29999999999998" type="curve" smooth="yes"/>
      <point x="423.64" y="318.09999999999997"/>
      <point x="456.26" y="423.26"/>
      <point x="514.66" y="423.26" type="curve" smooth="yes"/>
      <point x="532.6" y="423.26"/>
      <point x="543.3399999999999" y="414.65999999999997"/>
      <point x="543.3399999999999" y="393.67999999999995" type="curve" smooth="yes"/>
      <point x="543.3399999999999" y="354.34"/>
      <point x="514.5199999999999" y="314.18"/>
      <point x="460.22" y="296.8" type="curve" smooth="yes"/>
      <point x="438.64" y="289.67999999999995"/>
      <point x="416.85999999999996" y="286.48"/>
      <point x="392.28" y="287.91999999999996" type="curve"/>
      <point x="375.29999999999995" y="193.53999999999996" type="line"/>
      <point x="416.02" y="190.73999999999998"/>
      <point x="458.85999999999996" y="195.37999999999997"/>
      <point x="502.2200000000001" y="206.44" type="curve" smooth="yes"/>
      <point x="622.54" y="236.35999999999999"/>
      <point x="697.5600000000001" y="321.8"/>
      <point x="697.5600000000001" y="432.41999999999996" type="curve" smooth="yes"/>
      <point x="697.5600000000001" y="508.46000000000004"/>
      <point x="654.5400000000001" y="557.1999999999999"/>
      <point x="574.2" y="557.1999999999999" type="curve" smooth="yes"/>
      <point x="529.5" y="557.1999999999999"/>
      <point x="492.15999999999997" y="541.0600000000001"/>
      <point x="461.46000000000004" y="514.44" type="curve"/>
      <point x="468.28" y="555.1999999999999" type="line"/>
      <point x="323.94" y="555.1999999999999" type="line"/>
      <point x="320.08" y="531.4000000000001" type="line"/>
      <point x="299.71999999999997" y="548.76"/>
      <point x="272.64" y="557.1999999999999"/>
      <point x="240.9" y="557.1999999999999" type="curve" smooth="yes"/>
      <point x="102.14000000000001" y="557.1999999999999"/>
      <point x="11.24" y="394.03999999999996"/>
      <point x="11.24" y="163.9" type="curve" smooth="yes"/>
      <point x="11.24" y="52.879999999999995"/>
      <point x="59.98" y="-10.0"/>
    </contour>
    <contour>
      <point x="216.54" y="122.16" type="curve" smooth="yes"/>
      <point x="195.52000000000004" y="122.16"/>
      <point x="178.22000000000003" y="137.32"/>
      <point x="178.22000000000003" y="187.38000000000002" type="curve" smooth="yes"/>
      <point x="178.22000000000003" y="304.23999999999995"/>
      <point x="223.0" y="418.8"/>
      <point x="269.08000000000004" y="418.8" type="curve" smooth="yes"/>
      <point x="280.73999999999995" y="418.8"/>
      <point x="290.84000000000003" y="416.88"/>
      <point x="299.44" y="411.64" type="curve"/>
      <point x="257.04" y="133.72" type="line"/>
      <point x="244.02000000000004" y="126.34"/>
      <point x="230.17999999999998" y="122.16"/>
    </contour>
  </outline>
</glyph>
<glyph name="eth" format="2">
  <advance width="467.82"/>
  <unicode hex="00F0"/>
  <outline>
    <contour>
      <point x="321.46" y="391.6" type="curve"/>
      <point x="346.59999999999997" y="507.76" type="line"/>
      <point x="317.96000000000004" y="523.4200000000001"/>
      <point x="277.9" y="531.48"/>
      <point x="243.78000000000003" y="531.48" type="curve" smooth="yes"/>
      <point x="84.88" y="531.48"/>
      <point x="7.139999999999997" y="361.28"/>
      <point x="7.139999999999997" y="190.16" type="curve" smooth="yes"/>
      <point x="7.139999999999997" y="49.339999999999996"/>
      <point x="85.67999999999999" y="-9.499999999999998"/>
      <point x="194.88" y="-9.499999999999998" type="curve" smooth="yes"/>
      <point x="346.91999999999996" y="-9.499999999999998"/>
      <point x="417.94000000000005" y="75.16"/>
      <point x="458.88" y="327.52" type="curve" smooth="yes"/>
      <point x="467.22" y="379.26"/>
      <point x="471.56" y="425.62"/>
      <point x="471.56" y="466.14000000000004" type="curve" smooth="yes"/>
      <point x="471.56" y="654.5999999999999"/>
      <point x="373.24" y="749.6999999999999"/>
      <point x="195.40000000000003" y="749.6999999999999" type="curve" smooth="yes"/>
      <point x="144.79999999999998" y="749.6999999999999"/>
      <point x="104.76" y="739.9000000000001"/>
      <point x="70.82" y="730.9599999999999" type="curve"/>
      <point x="72.96000000000001" y="622.9800000000001" type="line"/>
      <point x="96.88" y="627.12"/>
      <point x="119.65999999999997" y="633.3399999999999"/>
      <point x="158.32" y="633.3399999999999" type="curve" smooth="yes"/>
      <point x="268.56000000000006" y="633.3399999999999"/>
      <point x="309.65999999999997" y="595.46"/>
      <point x="309.65999999999997" y="501.69999999999993" type="curve" smooth="yes"/>
      <point x="309.65999999999997" y="465.9"/>
      <point x="305.65999999999997" y="420.54"/>
      <point x="296.32" y="362.92" type="curve" smooth="yes"/>
      <point x="262.25999999999993" y="148.55999999999997"/>
      <point x="239.93999999999994" y="112.61999999999999"/>
      <point x="204.32000000000002" y="112.61999999999999" type="curve" smooth="yes"/>
      <point x="179.02" y="112.61999999999999"/>
      <point x="167.83999999999997" y="131.26000000000002"/>
      <point x="167.83999999999997" y="166.8" type="curve" smooth="yes"/>
      <point x="167.83999999999997" y="255.66"/>
      <point x="206.66" y="408.14000000000004"/>
      <point x="269.58" y="408.14000000000004" type="curve" smooth="yes"/>
      <point x="286.8" y="408.14000000000004"/>
      <point x="304.94" y="401.58000000000004"/>
    </contour>
    <contour>
      <point x="189.92" y="550.96" type="line"/>
      <point x="337.29999999999995" y="634.36" type="line"/>
      <point x="334.79999999999995" y="638.36" type="line"/>
      <point x="526.0" y="748.02" type="line"/>
      <point x="395.38" y="748.74" type="line"/>
      <point x="283.82000000000005" y="685.48" type="line"/>
      <point x="284.79999999999995" y="680.1800000000001" type="line"/>
      <point x="59.86" y="551.32" type="line"/>
    </contour>
  </outline>
</glyph>
<glyph name="divide" format="2">
  <advance width="446.80400000000003"/>
  <unicode hex="00F7"/>
  <outline>
    <contour>
      <point x="118.74799999999999" y="101.58000000000001" type="curve" smooth="yes"/>
      <point x="118.46799999999999" y="63.767999999999994"/>
      <point x="139.52799999999996" y="44.28"/>
      <point x="186.64799999999997" y="44.28" type="curve" smooth="yes"/>
      <point x="243.20800000000003" y="44.28"/>
      <point x="277.89599999999996" y="76.09599999999999"/>
      <point x="278.45599999999996" y="144.67600000000002" type="curve" smooth="yes"/>
      <point x="278.736" y="182.62800000000004"/>
      <point x="257.53999999999996" y="201.25600000000003"/>
      <point x="211.992" y="201.25600000000003" type="curve" smooth="yes"/>
      <point x="151.412" y="201.25600000000003"/>
      <point x="119.30799999999999" y="158.26000000000002"/>
    </contour>
    <contour>
      <point x="183.09600000000003" y="500.26" type="curve" smooth="yes"/>
      <point x="182.816" y="462.732"/>
      <point x="202.872" y="443.82"/>
      <point x="250.13600000000002" y="443.82" type="curve" smooth="yes"/>
      <point x="306.84" y="443.82"/>
      <point x="341.81600000000003" y="476.064"/>
      <point x="342.37600000000003" y="543.6440000000001" type="curve" smooth="yes"/>
      <point x="342.656" y="582.312"/>
      <point x="321.168" y="600.796"/>
      <point x="275.336" y="600.796" type="curve" smooth="yes"/>
      <point x="212.31999999999996" y="600.796"/>
      <point x="183.656" y="554.36"/>
    </contour>
    <contour>
      <point x="41.988" y="248.9" type="line"/>
      <point x="396.64000000000004" y="248.9" type="line"/>
      <point x="420.4200000000001" y="397.17999999999995" type="line"/>
      <point x="65.62799999999999" y="397.17999999999995" type="line"/>
    </contour>
  </outline>
</glyph>
<glyph name="oslash" format="2">
  <advance width="463.08"/>
  <unicode hex="00F8"/>
  <anchor x="264.14000000000004" y="547.1999999999999" name="top"/>
  <outline>
    <contour>
      <point x="409.0400000000001" y="558.0600000000001" type="line"/>
      <point x="338.73999999999995" y="467.14000000000004" type="line"/>
      <point x="334.15999999999997" y="469.36" type="line"/>
      <point x="105.35999999999999" y="160.03999999999996" type="line"/>
      <point x="101.99999999999999" y="162.89999999999998" type="line"/>
      <point x="-32.160000000000004" y="-10.0" type="line"/>
      <point x="51.78" y="-10.0" type="line"/>
      <point x="123.89999999999998" y="82.94000000000001" type="line"/>
      <point x="128.62" y="80.72" type="line"/>
      <point x="364.7199999999999" y="397.64000000000004" type="line"/>
      <point x="367.94" y="394.78" type="line"/>
      <point x="494.05999999999995" y="558.0600000000001" type="line"/>
    </contour>
    <contour>
      <point x="209.4" y="-10.0" type="curve" smooth="yes"/>
      <point x="381.96000000000004" y="-10.0"/>
      <point x="447.24" y="166.9"/>
      <point x="447.24" y="364.36000000000007" type="curve" smooth="yes"/>
      <point x="447.24" y="493.1600000000001"/>
      <point x="384.46000000000004" y="558.0600000000001"/>
      <point x="256.3" y="558.0600000000001" type="curve" smooth="yes"/>
      <point x="80.02000000000001" y="558.0600000000001"/>
      <point x="14.66" y="379.56"/>
      <point x="14.66" y="183.55999999999997" type="curve" smooth="yes"/>
      <point x="14.66" y="55.040000000000006"/>
      <point x="77.02" y="-10.0"/>
    </contour>
    <contour>
      <point x="212.85999999999999" y="125.74" type="curve" smooth="yes"/>
      <point x="184.84" y="125.24"/>
      <point x="168.68" y="141.26"/>
      <point x="167.82000000000002" y="173.57999999999998" type="curve" smooth="yes"/>
      <point x="165.02000000000004" y="251.65999999999997"/>
      <point x="195.42000000000002" y="421.32"/>
      <point x="249.17999999999995" y="422.32000000000005" type="curve" smooth="yes"/>
      <point x="276.56" y="422.82"/>
      <point x="293.08" y="406.38000000000005"/>
      <point x="293.94" y="374.34000000000003" type="curve" smooth="yes"/>
      <point x="296.74" y="293.74"/>
      <point x="265.92" y="126.38"/>
    </contour>
  </outline>
</glyph>
<glyph name="thorn" format="2">
  <advance width="471.93"/>
  <unicode hex="00FE"/>
  <outline>
    <contour>
      <point x="-44.044" y="-210.0" type="line"/>
      <point x="118.034" y="-210.0" type="line"/>
      <point x="151.118" y="-1.608" type="line"/>
      <point x="167.09799999999998" y="-5.084"/>
      <point x="189.406" y="-8.709999999999999"/>
      <point x="218.46200000000002" y="-8.709999999999999" type="curve" smooth="yes"/>
      <point x="382.3" y="-8.709999999999999"/>
      <point x="461.008" y="170.26"/>
      <point x="461.008" y="371.91400000000004" type="curve" smooth="yes"/>
      <point x="461.008" y="498.488"/>
      <point x="425.89599999999996" y="557.2"/>
      <point x="345.324" y="557.2" type="curve" smooth="yes"/>
      <point x="291.71400000000006" y="557.2"/>
      <point x="258.976" y="534.6940000000001"/>
      <point x="232.67" y="512.61" type="curve"/>
      <point x="268.146" y="740.0" type="line"/>
      <point x="105.956" y="740.0" type="line"/>
    </contour>
    <contour>
      <point x="202.78599999999997" y="128.428" type="curve" smooth="yes"/>
      <point x="192.388" y="128.428"/>
      <point x="182.11999999999998" y="129.988"/>
      <point x="173.03799999999998" y="133.11799999999997" type="curve"/>
      <point x="214.162" y="391.28000000000003" type="line"/>
      <point x="226.10999999999999" y="397.90200000000004"/>
      <point x="242.422" y="403.29200000000003"/>
      <point x="257.61400000000003" y="403.29200000000003" type="curve" smooth="yes"/>
      <point x="282.84000000000003" y="403.29200000000003"/>
      <point x="294.518" y="388.0"/>
      <point x="294.518" y="342.22599999999994" type="curve" smooth="yes"/>
      <point x="294.518" y="243.9"/>
      <point x="260.94000000000005" y="128.428"/>
    </contour>
  </outline>
</glyph>
<glyph name="Dcroat" format="2">
  <advance width="542.016"/>
  <unicode hex="0110"/>
  <outline>
    <contour>
      <point x="9.244" y="278.97" type="line"/>
      <point x="281.452" y="278.97" type="line"/>
      <point x="306.236" y="425.39799999999997" type="line"/>
      <point x="33.596" y="425.39799999999997" type="line"/>
    </contour>
    <component base="D" xOffset="10.802"/>
  </outline>
</glyph>
<glyph name="dcroat" format="2">
  <advance width="485.32199999999995"/>
  <unicode hex="0111"/>
  <outline>
    <contour>
      <point x="223.62" y="610.482" type="line"/>
      <point x="533.9320000000001" y="610.482" type="line"/>
      <point x="547.676" y="697.632" type="line"/>
      <point x="238.01000000000002" y="697.632" type="line"/>
    </contour>
    <component base="d"/>
  </outline>
</glyph>
<glyph name="Hbar" format="2">
  <advance width="536.016"/>
  <unicode hex="0126"/>
  <outline>
    <contour>
      <point x="37.736" y="499.36400000000003" type="line"/>
      <point x="570.1080000000001" y="499.36400000000003" type="line"/>
      <point x="591.572" y="632.152" type="line"/>
      <point x="59.2" y="632.152" type="line"/>
    </contour>
    <component base="H" xOffset="3.7519999999999993"/>
  </outline>
</glyph>
<glyph name="hbar" format="2">
  <advance width="474.76400000000007"/>
  <unicode hex="0127"/>
  <outline>
    <contour>
      <point x="49.839999999999996" y="610.482" type="line"/>
      <point x="336.498" y="610.482" type="line"/>
      <point x="350.10200000000003" y="697.632" type="line"/>
      <point x="63.44399999999999" y="697.632" type="line"/>
    </contour>
    <component base="h" xOffset="4.444"/>
  </outline>
</glyph>
<glyph name="Idotaccent" format="2">
  <advance width="239.084"/>
  <unicode hex="0130"/>
  <outline>
    <contour>
      <point x="223.97199999999998" y="926.98" type="curve" smooth="yes"/>
      <point x="145.156" y="926.98"/>
      <point x="113.024" y="869.48"/>
      <point x="112.66" y="803.8" type="curve" smooth="yes"/>
      <point x="112.548" y="756.268"/>
      <point x="138.904" y="732.332"/>
      <point x="191.832" y="732.332" type="curve" smooth="yes"/>
      <point x="266.65999999999997" y="732.332"/>
      <point x="302.63599999999997" y="788.8000000000001"/>
      <point x="303.02799999999996" y="856.4000000000001" type="curve" smooth="yes"/>
      <point x="303.14" y="903.732"/>
      <point x="276.17999999999995" y="926.98"/>
    </contour>
    <component base="I"/>
  </outline>
</glyph>
<glyph name="dotlessi" format="2">
  <advance width="227.56400000000002"/>
  <unicode hex="0131"/>
  <anchor x="70.13236800000001" y="0.0" name="bottom"/>
  <anchor x="151.78" y="0.0" name="ogonek"/>
  <anchor x="156.759632" y="547.2" name="top"/>
  <outline>
    <contour>
      <point x="151.78" y="0.0" type="line"/>
      <point x="238.18800000000002" y="547.2" type="line"/>
      <point x="75.396" y="547.2" type="line"/>
      <point x="-11.243999999999998" y="0.17200000000000001" type="line"/>
    </contour>
  </outline>
</glyph>
<glyph name="kgreenlandic" format="2">
  <advance width="451.94"/>
  <unicode hex="0138"/>
  <anchor x="199.68" y="0.0" name="bottom"/>
  <anchor x="274.10016" y="547.1999999999999" name="top"/>
  <outline>
    <contour>
      <point x="-11.099999999999998" y="0.0" type="line"/>
      <point x="151.79999999999998" y="0.0" type="line"/>
      <point x="238.73999999999998" y="547.1999999999999" type="line"/>
      <point x="75.33999999999999" y="547.1999999999999" type="line"/>
    </contour>
    <contour>
      <point x="356.11999999999995" y="-10.0" type="curve" smooth="yes"/>
      <point x="370.86" y="-10.0"/>
      <point x="385.24" y="-8.139999999999999"/>
      <point x="401.20000000000005" y="-2.56" type="curve"/>
      <point x="425.94000000000005" y="166.62" type="line"/>
      <point x="418.58000000000004" y="166.34"/>
      <point x="412.21999999999997" y="166.7"/>
      <point x="405.99999999999994" y="167.56" type="curve" smooth="yes"/>
      <point x="375.78000000000003" y="171.49999999999997"/>
      <point x="347.49999999999994" y="186.85999999999999"/>
      <point x="291.88" y="266.28" type="curve" smooth="yes"/>
      <point x="200.46000000000004" y="396.15999999999997" type="line"/>
      <point x="164.35999999999999" y="203.4" type="line"/>
      <point x="228.68" y="92.72" type="line" smooth="yes"/>
      <point x="267.23999999999995" y="25.72"/>
      <point x="306.08000000000004" y="-10.0"/>
    </contour>
    <contour>
      <point x="287.52" y="239.04" type="line"/>
      <point x="376.86" y="321.68"/>
      <point x="455.41999999999996" y="441.52"/>
      <point x="485.5" y="544.0400000000001" type="curve"/>
      <point x="321.86" y="557.2" type="line"/>
      <point x="295.24" y="456.56000000000006"/>
      <point x="255.56" y="396.78000000000003"/>
      <point x="198.78" y="336.3" type="curve"/>
    </contour>
  </outline>
</glyph>
<glyph name="Ldot" format="2">
  <advance width="419.788"/>
  <unicode hex="013F"/>
  <outline>
    <contour>
      <point x="279.186624" y="379.81785599999995" type="curve" smooth="yes"/>
      <point x="278.934624" y="343.659776"/>
      <point x="296.64345599999996" y="325.811632"/>
      <point x="337.30664" y="325.811632" type="curve" smooth="yes"/>
      <point x="395.505968" y="325.811632"/>
      <point x="418.519904" y="376.56779199999994"/>
      <point x="418.827904" y="424.29139200000003" type="curve" smooth="yes"/>
      <point x="419.07990400000006" y="459.764368"/>
      <point x="401.48307200000005" y="477.72451199999995"/>
      <point x="361.450096" y="477.72451199999995" type="curve" smooth="yes"/>
      <point x="303.881664" y="477.72451199999995"/>
      <point x="279.49462400000004" y="426.85345599999994"/>
    </contour>
    <component base="L"/>
  </outline>
</glyph>
<glyph name="ldot" format="2">
  <advance width="341.93600000000004"/>
  <unicode hex="0140"/>
  <outline>
    <contour>
      <point x="244.87181999999999" y="361.49272" type="curve" smooth="yes"/>
      <point x="244.61982" y="329.045024"/>
      <point x="258.94162800000004" y="313.29562400000003"/>
      <point x="292.392852" y="313.29562400000003" type="curve" smooth="yes"/>
      <point x="342.29713599999997" y="313.29562400000003"/>
      <point x="359.9918" y="361.189532"/>
      <point x="360.29979999999995" y="403.511128" type="curve" smooth="yes"/>
      <point x="360.5518" y="435.17516400000005"/>
      <point x="346.34199199999995" y="451.036564"/>
      <point x="313.4379" y="451.036564" type="curve" smooth="yes"/>
      <point x="264.079888" y="451.036564"/>
      <point x="245.17982" y="403.348712"/>
    </contour>
    <component base="l"/>
  </outline>
</glyph>
<glyph name="Lslash" format="2">
  <advance width="435.768"/>
  <unicode hex="0141"/>
  <outline>
    <contour>
      <point x="8.04" y="0.0" type="line"/>
      <point x="377.548" y="0.0" type="line"/>
      <point x="402.048" y="150.064" type="line"/>
      <point x="197.224" y="150.064" type="line"/>
      <point x="223.608" y="317.44800000000004" type="line"/>
      <point x="352.376" y="382.836" type="line"/>
      <point x="379.252" y="542.54" type="line"/>
      <point x="249.108" y="476.464" type="line"/>
      <point x="285.444" y="700.0" type="line"/>
      <point x="120.416" y="700.0" type="line"/>
      <point x="70.788" y="393.56399999999996" type="line"/>
      <point x="20.544" y="367.504" type="line"/>
      <point x="-4.0360000000000005" y="208.548" type="line"/>
      <point x="45.176" y="234.436" type="line"/>
    </contour>
  </outline>
</glyph>
<glyph name="lslash" format="2">
  <advance width="277.72"/>
  <unicode hex="0142"/>
  <outline>
    <contour>
      <point x="-4.824" y="210.828" type="line"/>
      <point x="282.74" y="388.252" type="line"/>
      <point x="304.97200000000004" y="527.3639999999999" type="line"/>
      <point x="16.548000000000002" y="349.94" type="line"/>
    </contour>
    <component base="l" xOffset="13.759999999999998"/>
  </outline>
</glyph>
<glyph name="Eng" format="2">
  <advance width="527.67"/>
  <unicode hex="014A"/>
  <outline>
    <contour>
      <point x="-7.869999999999999" y="0.0" type="line"/>
      <point x="140.67" y="0.0" type="line"/>
      <point x="198.54" y="353.74" type="line"/>
      <point x="287.84" y="-4.5200000000000005" type="line"/>
      <point x="283.09000000000003" y="-36.18000000000001"/>
      <point x="265.76" y="-46.18000000000001"/>
      <point x="242.7" y="-46.18000000000001" type="curve" smooth="yes"/>
      <point x="230.72999999999996" y="-46.46"/>
      <point x="220.28" y="-45.529999999999994"/>
      <point x="209.20999999999998" y="-42.040000000000006" type="curve"/>
      <point x="182.14" y="-202.85999999999999" type="line"/>
      <point x="202.41" y="-208.43"/>
      <point x="228.48999999999998" y="-208.98999999999998"/>
      <point x="246.18999999999997" y="-208.98999999999998" type="curve" smooth="yes"/>
      <point x="352.41" y="-205.32999999999998"/>
      <point x="423.58" y="-148.34"/>
      <point x="445.03000000000003" y="-11.419999999999998" type="curve" smooth="yes"/>
      <point x="558.61" y="700.0" type="line"/>
      <point x="409.35" y="700.0" type="line"/>
      <point x="347.25" y="321.67" type="line"/>
      <point x="262.95000000000005" y="700.28" type="line"/>
      <point x="103.92" y="700.28" type="line"/>
    </contour>
  </outline>
</glyph>
<glyph name="eng" format="2">
  <advance width="465.024"/>
  <unicode hex="014B"/>
  <outline>
    <contour>
      <point x="388.30400000000003" y="15.864000000000008" type="curve" smooth="yes"/>
      <point x="399.372" y="87.68000000000004"/>
      <point x="460.584" y="436.19999999999993"/>
      <point x="460.584" y="458.412" type="curve" smooth="yes"/>
      <point x="460.584" y="519.5200000000001"/>
      <point x="423.67199999999997" y="557.2"/>
      <point x="355.23199999999997" y="557.2" type="curve" smooth="yes"/>
      <point x="310.64000000000004" y="557.2"/>
      <point x="268.708" y="544.276"/>
      <point x="215.072" y="507.028" type="curve"/>
      <point x="220.988" y="547.2" type="line"/>
      <point x="75.224" y="547.2" type="line"/>
      <point x="-11.327999999999998" y="0.0" type="line"/>
      <point x="150.49200000000002" y="0.0" type="line"/>
      <point x="214.13600000000002" y="392.14" type="line"/>
      <point x="231.01999999999998" y="401.316"/>
      <point x="246.176" y="406.84400000000005"/>
      <point x="261.028" y="406.84400000000005" type="curve" smooth="yes"/>
      <point x="279.548" y="406.84400000000005"/>
      <point x="289.308" y="398.092"/>
      <point x="287.932" y="380.31199999999995" type="curve" smooth="yes"/>
      <point x="285.868" y="363.664"/>
      <point x="280.468" y="331.09599999999995"/>
      <point x="229.092" y="13.639999999999997" type="curve" smooth="yes"/>
      <point x="223.11599999999999" y="-23.46399999999999"/>
      <point x="210.036" y="-47.33600000000002"/>
      <point x="185.836" y="-47.33600000000002" type="curve" smooth="yes"/>
      <point x="182.748" y="-47.33600000000002"/>
      <point x="177.73600000000002" y="-47.168"/>
      <point x="172.96400000000003" y="-45.260000000000005" type="curve"/>
      <point x="137.34799999999998" y="-213.792" type="line"/>
      <point x="154.13600000000002" y="-217.39200000000002"/>
      <point x="178.476" y="-220.16799999999998"/>
      <point x="205.524" y="-220.16799999999998" type="curve" smooth="yes"/>
      <point x="290.41999999999996" y="-220.16799999999998"/>
      <point x="363.672" y="-166.22"/>
    </contour>
  </outline>
</glyph>
<glyph name="OE" format="2">
  <advance width="735.3699999999999"/>
  <unicode hex="0152"/>
  <outline>
    <contour>
      <point x="674.24" y="0.0" type="line"/>
      <point x="698.02" y="147.41000000000003" type="line"/>
      <point x="469.85" y="147.41000000000003" type="line"/>
      <point x="491.04" y="282.28000000000003" type="line"/>
      <point x="684.0500000000001" y="282.28000000000003" type="line"/>
      <point x="706.53" y="419.63" type="line"/>
      <point x="513.38" y="419.63" type="line"/>
      <point x="533.86" y="549.36" type="line"/>
      <point x="749.3200000000002" y="549.36" type="line"/>
      <point x="774.03" y="700.0" type="line"/>
      <point x="556.8" y="700.0" type="line"/>
      <point x="498.65" y="704.79"/>
      <point x="427.12" y="710.0"/>
      <point x="359.45000000000005" y="710.0" type="curve" smooth="yes"/>
      <point x="127.26" y="710.0"/>
      <point x="22.01" y="431.2"/>
      <point x="22.01" y="218.73" type="curve" smooth="yes"/>
      <point x="22.01" y="70.66000000000001"/>
      <point x="85.38" y="-10.0"/>
      <point x="254.36999999999995" y="-10.0" type="curve" smooth="yes"/>
      <point x="308.74000000000007" y="-10.0"/>
      <point x="363.50999999999993" y="-6.789999999999998"/>
      <point x="435.83" y="0.0" type="curve"/>
    </contour>
    <contour>
      <point x="304.5199999999999" y="138.98" type="line"/>
      <point x="290.3" y="136.63"/>
      <point x="273.25999999999993" y="135.48999999999995"/>
      <point x="253.28999999999996" y="135.48999999999995" type="curve" smooth="yes"/>
      <point x="209.92" y="135.48999999999995"/>
      <point x="186.12999999999997" y="173.2"/>
      <point x="186.12999999999997" y="229.6" type="curve" smooth="yes"/>
      <point x="186.12999999999997" y="358.68000000000006"/>
      <point x="246.46999999999997" y="559.8500000000001"/>
      <point x="326.04999999999995" y="559.8500000000001" type="curve" smooth="yes"/>
      <point x="343.46000000000004" y="559.8500000000001"/>
      <point x="360.41" y="557.9299999999998"/>
      <point x="371.75000000000006" y="557.15" type="curve"/>
    </contour>
  </outline>
</glyph>
